<svg width="164" height="132" viewBox="0 0 164 132" fill="none" xmlns="http://www.w3.org/2000/svg">
    <g clip-path="url(#clip0_6580_143312)">
        <path d="M65.5891 71.3111C66.624 71.9523 68.3018 71.9523 69.3367 71.3111C70.3715 70.6699 70.3715 69.6303 69.3367 68.9891C68.3018 68.3479 66.624 68.3479 65.5891 68.9891C64.5542 69.6303 64.5542 70.6699 65.5891 71.3111Z" fill="#2B1E37" fill-opacity="0.08"/>
        <path d="M58.0939 75.9551C59.1288 76.5963 60.8067 76.5963 61.8415 75.9551C62.8764 75.3139 62.8764 74.2743 61.8415 73.6331C60.8067 72.9919 59.1288 72.9919 58.0939 73.6331C57.0591 74.2743 57.0591 75.3139 58.0939 75.9551Z" fill="#2B1E37" fill-opacity="0.08"/>
        <path d="M50.5988 80.599C51.6336 81.2402 53.3115 81.2402 54.3464 80.599C55.3812 79.9578 55.3812 78.9183 54.3464 78.2771C53.3115 77.6359 51.6336 77.6359 50.5988 78.2771C49.5639 78.9183 49.5639 79.9578 50.5988 80.599Z" fill="#2B1E37" fill-opacity="0.08"/>
        <path d="M43.1036 85.243C44.1385 85.8842 45.8163 85.8842 46.8512 85.243C47.8861 84.6018 47.8861 83.5622 46.8512 82.921C45.8163 82.2798 44.1385 82.2798 43.1036 82.921C42.0688 83.5622 42.0688 84.6018 43.1036 85.243Z" fill="#2B1E37" fill-opacity="0.08"/>
        <path d="M35.6085 89.887C36.6433 90.5282 38.3212 90.5282 39.356 89.887C40.3909 89.2458 40.3909 88.2062 39.356 87.565C38.3212 86.9238 36.6433 86.9238 35.6085 87.565C34.5736 88.2062 34.5736 89.2458 35.6085 89.887Z" fill="#2B1E37" fill-opacity="0.08"/>
        <path d="M28.1133 94.5309C29.1482 95.1721 30.826 95.1721 31.8609 94.5309C32.8957 93.8897 32.8957 92.8502 31.8609 92.209C30.826 91.5678 29.1482 91.5678 28.1133 92.209C27.0784 92.8502 27.0784 93.8897 28.1133 94.5309Z" fill="#2B1E37" fill-opacity="0.08"/>
        <path d="M20.6181 99.1749C21.653 99.8161 23.3309 99.8161 24.3657 99.1749C25.4006 98.5337 25.4006 97.4941 24.3657 96.8529C23.3309 96.2117 21.653 96.2117 20.6181 96.8529C19.5833 97.4941 19.5833 98.5337 20.6181 99.1749Z" fill="#2B1E37" fill-opacity="0.08"/>
        <path d="M65.5891 75.9551C66.624 76.5963 68.3018 76.5963 69.3367 75.9551C70.3715 75.3139 70.3715 74.2743 69.3367 73.6331C68.3018 72.9919 66.624 72.9919 65.5891 73.6331C64.5542 74.2743 64.5542 75.3139 65.5891 75.9551Z" fill="#2B1E37" fill-opacity="0.08"/>
        <path d="M58.0939 80.599C59.1288 81.2402 60.8067 81.2402 61.8415 80.599C62.8764 79.9578 62.8764 78.9183 61.8415 78.2771C60.8067 77.6359 59.1288 77.6359 58.0939 78.2771C57.0591 78.9183 57.0591 79.9578 58.0939 80.599Z" fill="#2B1E37" fill-opacity="0.08"/>
        <path d="M50.5988 85.243C51.6336 85.8842 53.3115 85.8842 54.3464 85.243C55.3812 84.6018 55.3812 83.5622 54.3464 82.921C53.3115 82.2798 51.6336 82.2798 50.5988 82.921C49.5639 83.5622 49.5639 84.6018 50.5988 85.243Z" fill="#2B1E37" fill-opacity="0.08"/>
        <path d="M43.1036 89.887C44.1385 90.5282 45.8163 90.5282 46.8512 89.887C47.8861 89.2458 47.8861 88.2062 46.8512 87.565C45.8163 86.9238 44.1385 86.9238 43.1036 87.565C42.0688 88.2062 42.0688 89.2458 43.1036 89.887Z" fill="#2B1E37" fill-opacity="0.08"/>
        <path d="M35.6085 94.5309C36.6433 95.1721 38.3212 95.1721 39.356 94.5309C40.3909 93.8897 40.3909 92.8502 39.356 92.209C38.3212 91.5678 36.6433 91.5678 35.6085 92.209C34.5736 92.8502 34.5736 93.8897 35.6085 94.5309Z" fill="#2B1E37" fill-opacity="0.08"/>
        <path d="M28.1133 99.1749C29.1482 99.8161 30.826 99.8161 31.8609 99.1749C32.8957 98.5337 32.8957 97.4941 31.8609 96.8529C30.826 96.2117 29.1482 96.2117 28.1133 96.8529C27.0784 97.4941 27.0784 98.5337 28.1133 99.1749Z" fill="#2B1E37" fill-opacity="0.08"/>
        <path d="M20.6181 103.819C21.653 104.46 23.3309 104.46 24.3657 103.819C25.4006 103.178 25.4006 102.138 24.3657 101.497C23.3309 100.856 21.653 100.856 20.6181 101.497C19.5833 102.138 19.5833 103.178 20.6181 103.819Z" fill="#2B1E37" fill-opacity="0.08"/>
        <path d="M73.0843 75.9551C74.1191 76.5963 75.797 76.5963 76.8318 75.9551C77.8667 75.3139 77.8667 74.2743 76.8318 73.6331C75.797 72.9919 74.1191 72.9919 73.0843 73.6331C72.0494 74.2743 72.0494 75.3139 73.0843 75.9551Z" fill="#2B1E37" fill-opacity="0.08"/>
        <path d="M65.5891 80.599C66.624 81.2402 68.3018 81.2402 69.3367 80.599C70.3715 79.9578 70.3715 78.9183 69.3367 78.2771C68.3018 77.6359 66.624 77.6359 65.5891 78.2771C64.5542 78.9183 64.5542 79.9578 65.5891 80.599Z" fill="#2B1E37" fill-opacity="0.08"/>
        <path d="M58.0939 85.243C59.1288 85.8842 60.8067 85.8842 61.8415 85.243C62.8764 84.6018 62.8764 83.5622 61.8415 82.921C60.8067 82.2798 59.1288 82.2798 58.0939 82.921C57.0591 83.5622 57.0591 84.6018 58.0939 85.243Z" fill="#2B1E37" fill-opacity="0.08"/>
        <path d="M50.5988 89.887C51.6336 90.5282 53.3115 90.5282 54.3464 89.887C55.3812 89.2458 55.3812 88.2062 54.3464 87.565C53.3115 86.9238 51.6336 86.9238 50.5988 87.565C49.5639 88.2062 49.5639 89.2458 50.5988 89.887Z" fill="#2B1E37" fill-opacity="0.08"/>
        <path d="M43.1036 94.5309C44.1385 95.1721 45.8163 95.1721 46.8512 94.5309C47.8861 93.8897 47.8861 92.8502 46.8512 92.209C45.8163 91.5678 44.1385 91.5678 43.1036 92.209C42.0688 92.8502 42.0688 93.8897 43.1036 94.5309Z" fill="#2B1E37" fill-opacity="0.08"/>
        <path d="M35.6085 99.1749C36.6433 99.8161 38.3212 99.8161 39.356 99.1749C40.3909 98.5337 40.3909 97.4941 39.356 96.8529C38.3212 96.2117 36.6433 96.2117 35.6085 96.8529C34.5736 97.4941 34.5736 98.5337 35.6085 99.1749Z" fill="#2B1E37" fill-opacity="0.08"/>
        <path d="M28.1133 103.819C29.1482 104.46 30.826 104.46 31.8609 103.819C32.8957 103.178 32.8958 102.138 31.8609 101.497C30.826 100.856 29.1482 100.856 28.1133 101.497C27.0784 102.138 27.0784 103.178 28.1133 103.819Z" fill="#2B1E37" fill-opacity="0.08"/>
        <path d="M73.0843 80.599C74.1191 81.2402 75.797 81.2402 76.8318 80.599C77.8667 79.9578 77.8667 78.9183 76.8318 78.2771C75.797 77.6359 74.1191 77.6359 73.0843 78.2771C72.0494 78.9183 72.0494 79.9578 73.0843 80.599Z" fill="#2B1E37" fill-opacity="0.08"/>
        <path d="M65.5891 85.243C66.624 85.8842 68.3018 85.8842 69.3367 85.243C70.3715 84.6018 70.3715 83.5622 69.3367 82.921C68.3018 82.2798 66.624 82.2798 65.5891 82.921C64.5542 83.5622 64.5542 84.6018 65.5891 85.243Z" fill="#2B1E37" fill-opacity="0.08"/>
        <path d="M58.0939 89.887C59.1288 90.5282 60.8067 90.5282 61.8415 89.887C62.8764 89.2458 62.8764 88.2062 61.8415 87.565C60.8067 86.9238 59.1288 86.9238 58.0939 87.565C57.0591 88.2062 57.0591 89.2458 58.0939 89.887Z" fill="#2B1E37" fill-opacity="0.08"/>
        <path d="M50.5988 94.5309C51.6336 95.1721 53.3115 95.1721 54.3464 94.5309C55.3812 93.8897 55.3812 92.8502 54.3464 92.209C53.3115 91.5678 51.6336 91.5678 50.5988 92.209C49.5639 92.8502 49.5639 93.8897 50.5988 94.5309Z" fill="#2B1E37" fill-opacity="0.08"/>
        <path d="M43.1036 99.1749C44.1385 99.8161 45.8163 99.8161 46.8512 99.1749C47.8861 98.5337 47.8861 97.4941 46.8512 96.8529C45.8163 96.2117 44.1385 96.2117 43.1036 96.8529C42.0688 97.4941 42.0688 98.5337 43.1036 99.1749Z" fill="#2B1E37" fill-opacity="0.08"/>
        <path d="M35.6085 103.819C36.6433 104.46 38.3212 104.46 39.356 103.819C40.3909 103.178 40.3909 102.138 39.356 101.497C38.3212 100.856 36.6433 100.856 35.6085 101.497C34.5736 102.138 34.5736 103.178 35.6085 103.819Z" fill="#2B1E37" fill-opacity="0.08"/>
        <path d="M28.1133 108.463C29.1482 109.104 30.826 109.104 31.8609 108.463C32.8957 107.822 32.8957 106.782 31.8609 106.141C30.826 105.5 29.1482 105.5 28.1133 106.141C27.0784 106.782 27.0784 107.822 28.1133 108.463Z" fill="#2B1E37" fill-opacity="0.08"/>
        <path d="M80.5794 80.599C81.6143 81.2402 83.2921 81.2402 84.327 80.599C85.3619 79.9578 85.3619 78.9183 84.327 78.2771C83.2921 77.6359 81.6143 77.6359 80.5794 78.2771C79.5446 78.9183 79.5446 79.9578 80.5794 80.599Z" fill="#2B1E37" fill-opacity="0.08"/>
        <path d="M73.0843 85.243C74.1191 85.8842 75.797 85.8842 76.8318 85.243C77.8667 84.6018 77.8667 83.5622 76.8318 82.921C75.797 82.2798 74.1191 82.2798 73.0843 82.921C72.0494 83.5622 72.0494 84.6018 73.0843 85.243Z" fill="#2B1E37" fill-opacity="0.08"/>
        <path d="M65.5891 89.887C66.624 90.5282 68.3018 90.5282 69.3367 89.887C70.3715 89.2458 70.3715 88.2062 69.3367 87.565C68.3018 86.9238 66.624 86.9238 65.5891 87.565C64.5542 88.2062 64.5542 89.2458 65.5891 89.887Z" fill="#2B1E37" fill-opacity="0.08"/>
        <path d="M58.0939 94.5309C59.1288 95.1721 60.8067 95.1721 61.8415 94.5309C62.8764 93.8897 62.8764 92.8502 61.8415 92.209C60.8067 91.5678 59.1288 91.5678 58.0939 92.209C57.0591 92.8502 57.0591 93.8897 58.0939 94.5309Z" fill="#2B1E37" fill-opacity="0.08"/>
        <path d="M50.5988 99.1749C51.6336 99.8161 53.3115 99.8161 54.3464 99.1749C55.3812 98.5337 55.3812 97.4941 54.3464 96.8529C53.3115 96.2117 51.6336 96.2117 50.5988 96.8529C49.5639 97.4941 49.5639 98.5337 50.5988 99.1749Z" fill="#2B1E37" fill-opacity="0.08"/>
        <path d="M43.1036 103.819C44.1385 104.46 45.8163 104.46 46.8512 103.819C47.8861 103.178 47.8861 102.138 46.8512 101.497C45.8163 100.856 44.1385 100.856 43.1036 101.497C42.0688 102.138 42.0688 103.178 43.1036 103.819Z" fill="#2B1E37" fill-opacity="0.08"/>
        <path d="M35.6085 108.463C36.6433 109.104 38.3212 109.104 39.356 108.463C40.3909 107.822 40.3909 106.782 39.356 106.141C38.3212 105.5 36.6433 105.5 35.6085 106.141C34.5736 106.782 34.5736 107.822 35.6085 108.463Z" fill="#2B1E37" fill-opacity="0.08"/>
        <path d="M80.5794 85.243C81.6143 85.8842 83.2921 85.8842 84.327 85.243C85.3619 84.6018 85.3619 83.5622 84.327 82.921C83.2921 82.2798 81.6143 82.2798 80.5794 82.921C79.5446 83.5622 79.5446 84.6018 80.5794 85.243Z" fill="#2B1E37" fill-opacity="0.08"/>
        <path d="M73.0843 89.887C74.1191 90.5282 75.797 90.5282 76.8318 89.887C77.8667 89.2458 77.8667 88.2062 76.8318 87.565C75.797 86.9238 74.1191 86.9238 73.0843 87.565C72.0494 88.2062 72.0494 89.2458 73.0843 89.887Z" fill="#2B1E37" fill-opacity="0.08"/>
        <path d="M65.5891 94.5309C66.624 95.1721 68.3018 95.1721 69.3367 94.5309C70.3715 93.8897 70.3715 92.8502 69.3367 92.209C68.3018 91.5678 66.624 91.5678 65.5891 92.209C64.5542 92.8502 64.5542 93.8897 65.5891 94.5309Z" fill="#2B1E37" fill-opacity="0.08"/>
        <path d="M58.0939 99.1749C59.1288 99.8161 60.8067 99.8161 61.8415 99.1749C62.8764 98.5337 62.8764 97.4941 61.8415 96.8529C60.8067 96.2117 59.1288 96.2117 58.0939 96.8529C57.0591 97.4941 57.0591 98.5337 58.0939 99.1749Z" fill="#2B1E37" fill-opacity="0.08"/>
        <path d="M50.5988 103.819C51.6336 104.46 53.3115 104.46 54.3464 103.819C55.3812 103.178 55.3812 102.138 54.3464 101.497C53.3115 100.856 51.6336 100.856 50.5988 101.497C49.5639 102.138 49.5639 103.178 50.5988 103.819Z" fill="#2B1E37" fill-opacity="0.08"/>
        <path d="M43.1036 108.463C44.1385 109.104 45.8163 109.104 46.8512 108.463C47.8861 107.822 47.8861 106.782 46.8512 106.141C45.8163 105.5 44.1385 105.5 43.1036 106.141C42.0688 106.782 42.0688 107.822 43.1036 108.463Z" fill="#2B1E37" fill-opacity="0.08"/>
        <path d="M35.6085 113.107C36.6433 113.748 38.3212 113.748 39.356 113.107C40.3909 112.466 40.3909 111.426 39.356 110.785C38.3212 110.144 36.6433 110.144 35.6085 110.785C34.5736 111.426 34.5736 112.466 35.6085 113.107Z" fill="#2B1E37" fill-opacity="0.08"/>
        <path d="M88.0746 85.243C89.1094 85.8842 90.7873 85.8842 91.8222 85.243C92.857 84.6018 92.857 83.5622 91.8222 82.921C90.7873 82.2798 89.1094 82.2798 88.0746 82.921C87.0397 83.5622 87.0397 84.6018 88.0746 85.243Z" fill="#2B1E37" fill-opacity="0.08"/>
        <path d="M80.5794 89.887C81.6143 90.5282 83.2921 90.5282 84.327 89.887C85.3619 89.2458 85.3619 88.2062 84.327 87.565C83.2921 86.9238 81.6143 86.9238 80.5794 87.565C79.5446 88.2062 79.5446 89.2458 80.5794 89.887Z" fill="#2B1E37" fill-opacity="0.08"/>
        <path d="M73.0843 94.5309C74.1191 95.1721 75.797 95.1721 76.8318 94.5309C77.8667 93.8897 77.8667 92.8502 76.8318 92.209C75.797 91.5678 74.1191 91.5678 73.0843 92.209C72.0494 92.8502 72.0494 93.8897 73.0843 94.5309Z" fill="#2B1E37" fill-opacity="0.08"/>
        <path d="M65.5891 99.1749C66.624 99.8161 68.3018 99.8161 69.3367 99.1749C70.3715 98.5337 70.3715 97.4941 69.3367 96.8529C68.3018 96.2117 66.624 96.2117 65.5891 96.8529C64.5542 97.4941 64.5542 98.5337 65.5891 99.1749Z" fill="#2B1E37" fill-opacity="0.08"/>
        <path d="M58.0939 103.819C59.1288 104.46 60.8067 104.46 61.8415 103.819C62.8764 103.178 62.8764 102.138 61.8415 101.497C60.8067 100.856 59.1288 100.856 58.0939 101.497C57.0591 102.138 57.0591 103.178 58.0939 103.819Z" fill="#2B1E37" fill-opacity="0.08"/>
        <path d="M50.5988 108.463C51.6336 109.104 53.3115 109.104 54.3464 108.463C55.3812 107.822 55.3812 106.782 54.3464 106.141C53.3115 105.5 51.6336 105.5 50.5988 106.141C49.5639 106.782 49.5639 107.822 50.5988 108.463Z" fill="#2B1E37" fill-opacity="0.08"/>
        <path d="M43.1036 113.107C44.1385 113.748 45.8163 113.748 46.8512 113.107C47.8861 112.466 47.8861 111.426 46.8512 110.785C45.8163 110.144 44.1385 110.144 43.1036 110.785C42.0688 111.426 42.0688 112.466 43.1036 113.107Z" fill="#2B1E37" fill-opacity="0.08"/>
        <path d="M88.0746 89.887C89.1094 90.5282 90.7873 90.5282 91.8222 89.887C92.857 89.2458 92.857 88.2062 91.8222 87.565C90.7873 86.9238 89.1094 86.9238 88.0746 87.565C87.0397 88.2062 87.0397 89.2458 88.0746 89.887Z" fill="#2B1E37" fill-opacity="0.08"/>
        <path d="M80.5794 94.5309C81.6143 95.1721 83.2921 95.1721 84.327 94.5309C85.3619 93.8897 85.3619 92.8502 84.327 92.209C83.2921 91.5678 81.6143 91.5678 80.5794 92.209C79.5446 92.8502 79.5446 93.8897 80.5794 94.5309Z" fill="#2B1E37" fill-opacity="0.08"/>
        <path d="M73.0843 99.1749C74.1191 99.8161 75.797 99.8161 76.8318 99.1749C77.8667 98.5337 77.8667 97.4941 76.8318 96.8529C75.797 96.2117 74.1191 96.2117 73.0843 96.8529C72.0494 97.4941 72.0494 98.5337 73.0843 99.1749Z" fill="#2B1E37" fill-opacity="0.08"/>
        <path d="M65.5891 103.819C66.624 104.46 68.3018 104.46 69.3367 103.819C70.3715 103.178 70.3715 102.138 69.3367 101.497C68.3018 100.856 66.624 100.856 65.5891 101.497C64.5542 102.138 64.5542 103.178 65.5891 103.819Z" fill="#2B1E37" fill-opacity="0.08"/>
        <path d="M58.0939 108.463C59.1288 109.104 60.8067 109.104 61.8415 108.463C62.8764 107.822 62.8764 106.782 61.8415 106.141C60.8067 105.5 59.1288 105.5 58.0939 106.141C57.0591 106.782 57.0591 107.822 58.0939 108.463Z" fill="#2B1E37" fill-opacity="0.08"/>
        <path d="M50.5988 113.107C51.6336 113.748 53.3115 113.748 54.3464 113.107C55.3812 112.466 55.3812 111.426 54.3464 110.785C53.3115 110.144 51.6336 110.144 50.5988 110.785C49.5639 111.426 49.5639 112.466 50.5988 113.107Z" fill="#2B1E37" fill-opacity="0.08"/>
        <path d="M43.1036 117.751C44.1385 118.392 45.8163 118.392 46.8512 117.751C47.8861 117.11 47.8861 116.07 46.8512 115.429C45.8163 114.788 44.1385 114.788 43.1036 115.429C42.0688 116.07 42.0688 117.11 43.1036 117.751Z" fill="#2B1E37" fill-opacity="0.08"/>
        <path d="M95.5697 89.887C96.6046 90.5282 98.2825 90.5282 99.3173 89.887C100.352 89.2458 100.352 88.2062 99.3173 87.565C98.2825 86.9238 96.6046 86.9238 95.5697 87.565C94.5349 88.2062 94.5349 89.2458 95.5697 89.887Z" fill="#2B1E37" fill-opacity="0.08"/>
        <path d="M88.0746 94.5309C89.1094 95.1721 90.7873 95.1721 91.8222 94.5309C92.857 93.8897 92.857 92.8502 91.8222 92.209C90.7873 91.5678 89.1094 91.5678 88.0746 92.209C87.0397 92.8502 87.0397 93.8897 88.0746 94.5309Z" fill="#2B1E37" fill-opacity="0.08"/>
        <path d="M80.5794 99.1749C81.6143 99.8161 83.2921 99.8161 84.327 99.1749C85.3619 98.5337 85.3619 97.4941 84.327 96.8529C83.2921 96.2117 81.6143 96.2117 80.5794 96.8529C79.5446 97.4941 79.5446 98.5337 80.5794 99.1749Z" fill="#2B1E37" fill-opacity="0.08"/>
        <path d="M73.0843 103.819C74.1191 104.46 75.797 104.46 76.8318 103.819C77.8667 103.178 77.8667 102.138 76.8318 101.497C75.797 100.856 74.1191 100.856 73.0843 101.497C72.0494 102.138 72.0494 103.178 73.0843 103.819Z" fill="#2B1E37" fill-opacity="0.08"/>
        <path d="M65.5891 108.463C66.624 109.104 68.3018 109.104 69.3367 108.463C70.3715 107.822 70.3715 106.782 69.3367 106.141C68.3018 105.5 66.624 105.5 65.5891 106.141C64.5542 106.782 64.5542 107.822 65.5891 108.463Z" fill="#2B1E37" fill-opacity="0.08"/>
        <path d="M58.0939 113.107C59.1288 113.748 60.8067 113.748 61.8415 113.107C62.8764 112.466 62.8764 111.426 61.8415 110.785C60.8067 110.144 59.1288 110.144 58.0939 110.785C57.0591 111.426 57.0591 112.466 58.0939 113.107Z" fill="#2B1E37" fill-opacity="0.08"/>
        <path d="M50.5988 117.751C51.6336 118.392 53.3115 118.392 54.3464 117.751C55.3812 117.11 55.3812 116.07 54.3464 115.429C53.3115 114.788 51.6337 114.788 50.5988 115.429C49.5639 116.07 49.5639 117.11 50.5988 117.751Z" fill="#2B1E37" fill-opacity="0.08"/>
        <path d="M95.5697 94.5309C96.6046 95.1721 98.2825 95.1721 99.3173 94.5309C100.352 93.8897 100.352 92.8502 99.3173 92.209C98.2825 91.5678 96.6046 91.5678 95.5697 92.209C94.5349 92.8502 94.5349 93.8897 95.5697 94.5309Z" fill="#2B1E37" fill-opacity="0.08"/>
        <path d="M88.0746 99.1749C89.1094 99.8161 90.7873 99.8161 91.8222 99.1749C92.857 98.5337 92.857 97.4941 91.8222 96.8529C90.7873 96.2117 89.1094 96.2117 88.0746 96.8529C87.0397 97.4941 87.0397 98.5337 88.0746 99.1749Z" fill="#2B1E37" fill-opacity="0.08"/>
        <path d="M80.5794 103.819C81.6143 104.46 83.2921 104.46 84.327 103.819C85.3619 103.178 85.3619 102.138 84.327 101.497C83.2921 100.856 81.6143 100.856 80.5794 101.497C79.5446 102.138 79.5446 103.178 80.5794 103.819Z" fill="#2B1E37" fill-opacity="0.08"/>
        <path d="M73.0843 108.463C74.1191 109.104 75.797 109.104 76.8318 108.463C77.8667 107.822 77.8667 106.782 76.8318 106.141C75.797 105.5 74.1191 105.5 73.0843 106.141C72.0494 106.782 72.0494 107.822 73.0843 108.463Z" fill="#2B1E37" fill-opacity="0.08"/>
        <path d="M65.5891 113.107C66.624 113.748 68.3018 113.748 69.3367 113.107C70.3715 112.466 70.3715 111.426 69.3367 110.785C68.3018 110.144 66.624 110.144 65.5891 110.785C64.5542 111.426 64.5542 112.466 65.5891 113.107Z" fill="#2B1E37" fill-opacity="0.08"/>
        <path d="M58.0939 117.751C59.1288 118.392 60.8067 118.392 61.8415 117.751C62.8764 117.11 62.8764 116.07 61.8415 115.429C60.8067 114.788 59.1288 114.788 58.0939 115.429C57.0591 116.07 57.0591 117.11 58.0939 117.751Z" fill="#2B1E37" fill-opacity="0.08"/>
        <path d="M50.5988 122.395C51.6336 123.036 53.3115 123.036 54.3464 122.395C55.3812 121.754 55.3812 120.714 54.3464 120.073C53.3115 119.432 51.6336 119.432 50.5988 120.073C49.5639 120.714 49.5639 121.754 50.5988 122.395Z" fill="#2B1E37" fill-opacity="0.08"/>
        <path d="M103.065 94.5309C104.1 95.1721 105.778 95.1721 106.812 94.5309C107.847 93.8897 107.847 92.8502 106.812 92.209C105.778 91.5678 104.1 91.5678 103.065 92.209C102.03 92.8502 102.03 93.8897 103.065 94.5309Z" fill="#2B1E37" fill-opacity="0.08"/>
        <path d="M95.5697 99.1749C96.6046 99.8161 98.2825 99.8161 99.3173 99.1749C100.352 98.5337 100.352 97.4941 99.3173 96.8529C98.2825 96.2117 96.6046 96.2117 95.5697 96.8529C94.5349 97.4941 94.5349 98.5337 95.5697 99.1749Z" fill="#2B1E37" fill-opacity="0.08"/>
        <path d="M88.0746 103.819C89.1094 104.46 90.7873 104.46 91.8222 103.819C92.857 103.178 92.857 102.138 91.8222 101.497C90.7873 100.856 89.1094 100.856 88.0746 101.497C87.0397 102.138 87.0397 103.178 88.0746 103.819Z" fill="#2B1E37" fill-opacity="0.08"/>
        <path d="M80.5794 108.463C81.6143 109.104 83.2921 109.104 84.327 108.463C85.3619 107.822 85.3619 106.782 84.327 106.141C83.2921 105.5 81.6143 105.5 80.5794 106.141C79.5446 106.782 79.5446 107.822 80.5794 108.463Z" fill="#2B1E37" fill-opacity="0.08"/>
        <path d="M73.0843 113.107C74.1191 113.748 75.797 113.748 76.8318 113.107C77.8667 112.466 77.8667 111.426 76.8318 110.785C75.797 110.144 74.1191 110.144 73.0843 110.785C72.0494 111.426 72.0494 112.466 73.0843 113.107Z" fill="#2B1E37" fill-opacity="0.08"/>
        <path d="M65.5891 117.751C66.624 118.392 68.3018 118.392 69.3367 117.751C70.3715 117.11 70.3715 116.07 69.3367 115.429C68.3018 114.788 66.624 114.788 65.5891 115.429C64.5542 116.07 64.5542 117.11 65.5891 117.751Z" fill="#2B1E37" fill-opacity="0.08"/>
        <path d="M58.0939 122.395C59.1288 123.036 60.8067 123.036 61.8415 122.395C62.8764 121.754 62.8764 120.714 61.8415 120.073C60.8067 119.432 59.1288 119.432 58.0939 120.073C57.0591 120.714 57.0591 121.754 58.0939 122.395Z" fill="#2B1E37" fill-opacity="0.08"/>
        <path d="M103.065 99.1749C104.1 99.8161 105.778 99.8161 106.812 99.1749C107.847 98.5337 107.847 97.4941 106.812 96.8529C105.778 96.2117 104.1 96.2117 103.065 96.8529C102.03 97.4941 102.03 98.5337 103.065 99.1749Z" fill="#2B1E37" fill-opacity="0.08"/>
        <path d="M95.5697 103.819C96.6046 104.46 98.2825 104.46 99.3173 103.819C100.352 103.178 100.352 102.138 99.3173 101.497C98.2825 100.856 96.6046 100.856 95.5697 101.497C94.5349 102.138 94.5349 103.178 95.5697 103.819Z" fill="#2B1E37" fill-opacity="0.08"/>
        <path d="M88.0746 108.463C89.1094 109.104 90.7873 109.104 91.8222 108.463C92.857 107.822 92.857 106.782 91.8222 106.141C90.7873 105.5 89.1094 105.5 88.0746 106.141C87.0397 106.782 87.0397 107.822 88.0746 108.463Z" fill="#2B1E37" fill-opacity="0.08"/>
        <path d="M80.5794 113.107C81.6143 113.748 83.2921 113.748 84.327 113.107C85.3619 112.466 85.3619 111.426 84.327 110.785C83.2921 110.144 81.6143 110.144 80.5794 110.785C79.5446 111.426 79.5446 112.466 80.5794 113.107Z" fill="#2B1E37" fill-opacity="0.08"/>
        <path d="M73.0843 117.751C74.1191 118.392 75.797 118.392 76.8318 117.751C77.8667 117.11 77.8667 116.07 76.8318 115.429C75.797 114.788 74.1191 114.788 73.0843 115.429C72.0494 116.07 72.0494 117.11 73.0843 117.751Z" fill="#2B1E37" fill-opacity="0.08"/>
        <path d="M65.5891 122.395C66.624 123.036 68.3018 123.036 69.3367 122.395C70.3715 121.754 70.3715 120.714 69.3367 120.073C68.3018 119.432 66.624 119.432 65.5891 120.073C64.5542 120.714 64.5542 121.754 65.5891 122.395Z" fill="#2B1E37" fill-opacity="0.08"/>
        <path d="M58.0939 127.039C59.1288 127.68 60.8067 127.68 61.8415 127.039C62.8764 126.398 62.8764 125.358 61.8415 124.717C60.8067 124.076 59.1288 124.076 58.0939 124.717C57.0591 125.358 57.0591 126.398 58.0939 127.039Z" fill="#2B1E37" fill-opacity="0.08"/>
        <path d="M110.56 99.1749C111.595 99.8161 113.273 99.8161 114.308 99.1749C115.343 98.5337 115.343 97.4941 114.308 96.8529C113.273 96.2117 111.595 96.2117 110.56 96.8529C109.525 97.4941 109.525 98.5337 110.56 99.1749Z" fill="#2B1E37" fill-opacity="0.08"/>
        <path d="M103.065 103.819C104.1 104.46 105.778 104.46 106.812 103.819C107.847 103.178 107.847 102.138 106.812 101.497C105.778 100.856 104.1 100.856 103.065 101.497C102.03 102.138 102.03 103.178 103.065 103.819Z" fill="#2B1E37" fill-opacity="0.08"/>
        <path d="M95.5697 108.463C96.6046 109.104 98.2825 109.104 99.3173 108.463C100.352 107.822 100.352 106.782 99.3173 106.141C98.2825 105.5 96.6046 105.5 95.5697 106.141C94.5349 106.782 94.5349 107.822 95.5697 108.463Z" fill="#2B1E37" fill-opacity="0.08"/>
        <path d="M88.0746 113.107C89.1094 113.748 90.7873 113.748 91.8222 113.107C92.857 112.466 92.857 111.426 91.8222 110.785C90.7873 110.144 89.1094 110.144 88.0746 110.785C87.0397 111.426 87.0397 112.466 88.0746 113.107Z" fill="#2B1E37" fill-opacity="0.08"/>
        <path d="M80.5794 117.751C81.6143 118.392 83.2921 118.392 84.327 117.751C85.3619 117.11 85.3619 116.07 84.327 115.429C83.2921 114.788 81.6143 114.788 80.5794 115.429C79.5446 116.07 79.5446 117.11 80.5794 117.751Z" fill="#2B1E37" fill-opacity="0.08"/>
        <path d="M73.0843 122.395C74.1191 123.036 75.797 123.036 76.8318 122.395C77.8667 121.754 77.8667 120.714 76.8318 120.073C75.797 119.432 74.1191 119.432 73.0843 120.073C72.0494 120.714 72.0494 121.754 73.0843 122.395Z" fill="#2B1E37" fill-opacity="0.08"/>
        <path d="M65.5891 127.039C66.624 127.68 68.3018 127.68 69.3367 127.039C70.3715 126.398 70.3715 125.358 69.3367 124.717C68.3018 124.076 66.624 124.076 65.5891 124.717C64.5542 125.358 64.5542 126.398 65.5891 127.039Z" fill="#2B1E37" fill-opacity="0.08"/>
        <path d="M110.56 103.819C111.595 104.46 113.273 104.46 114.308 103.819C115.343 103.178 115.343 102.138 114.308 101.497C113.273 100.856 111.595 100.856 110.56 101.497C109.525 102.138 109.525 103.178 110.56 103.819Z" fill="#2B1E37" fill-opacity="0.08"/>
        <path d="M103.065 108.463C104.1 109.104 105.778 109.104 106.812 108.463C107.847 107.822 107.847 106.782 106.812 106.141C105.778 105.5 104.1 105.5 103.065 106.141C102.03 106.782 102.03 107.822 103.065 108.463Z" fill="#2B1E37" fill-opacity="0.08"/>
        <path d="M95.5697 113.107C96.6046 113.748 98.2825 113.748 99.3173 113.107C100.352 112.466 100.352 111.426 99.3173 110.785C98.2825 110.144 96.6046 110.144 95.5697 110.785C94.5349 111.426 94.5349 112.466 95.5697 113.107Z" fill="#2B1E37" fill-opacity="0.08"/>
        <path d="M88.0746 117.751C89.1094 118.392 90.7873 118.392 91.8222 117.751C92.857 117.11 92.857 116.07 91.8222 115.429C90.7873 114.788 89.1094 114.788 88.0746 115.429C87.0397 116.07 87.0397 117.11 88.0746 117.751Z" fill="#2B1E37" fill-opacity="0.08"/>
        <path d="M80.5794 122.395C81.6143 123.036 83.2921 123.036 84.327 122.395C85.3619 121.754 85.3619 120.714 84.327 120.073C83.2921 119.432 81.6143 119.432 80.5794 120.073C79.5446 120.714 79.5446 121.754 80.5794 122.395Z" fill="#2B1E37" fill-opacity="0.08"/>
        <path d="M73.0843 127.039C74.1191 127.68 75.797 127.68 76.8318 127.039C77.8667 126.398 77.8667 125.358 76.8318 124.717C75.797 124.076 74.1191 124.076 73.0843 124.717C72.0494 125.358 72.0494 126.398 73.0843 127.039Z" fill="#2B1E37" fill-opacity="0.08"/>
        <path d="M65.5891 131.683C66.624 132.324 68.3018 132.324 69.3367 131.683C70.3715 131.041 70.3715 130.002 69.3367 129.361C68.3018 128.72 66.624 128.72 65.5891 129.361C64.5542 130.002 64.5542 131.041 65.5891 131.683Z" fill="#2B1E37" fill-opacity="0.08"/>
        <path d="M105.086 60.5814L126.496 114.042L123.921 112.933L113.126 88.3846L100.922 62.6431L98.2793 60.3633L105.086 60.5814Z" fill="#908E96"/>
        <path d="M57.5933 37.484L57.7626 36.1211L60.4073 37.0575L97.6285 60.2692L101.814 63.0911L121.776 108.362L86.851 86.8195L76.7031 80.6986L57.5933 37.484Z" fill="#E9E8EA"/>
        <path d="M93.6999 41.4926C93.4338 41.5665 93.1582 41.4107 93.0843 41.1446C93.0104 40.8785 93.1662 40.6029 93.4323 40.529L93.6999 41.4926ZM157.06 75.9599L157.32 75.5325L157.06 75.9599ZM156.989 82.8398L157.24 83.2724L156.989 82.8398ZM99.1286 40.7753L98.8691 41.2027L99.1286 40.7753ZM95.982 40.34L95.8482 39.8582L95.982 40.34ZM127.403 99.4031C127.642 99.2646 127.948 99.3461 128.086 99.585C128.224 99.824 128.143 100.13 127.904 100.268L127.403 99.4031ZM130.492 98.7687C130.254 98.9071 129.948 98.8256 129.809 98.5867C129.671 98.3478 129.752 98.0419 129.991 97.9034L130.492 98.7687ZM131.717 96.9037C131.956 96.7652 132.262 96.8467 132.4 97.0856C132.539 97.3246 132.457 97.6305 132.218 97.7689L131.717 96.9037ZM134.807 96.2693C134.568 96.4077 134.262 96.3263 134.123 96.0873C133.985 95.8484 134.066 95.5425 134.305 95.404L134.807 96.2693ZM136.031 94.4043C136.27 94.2658 136.576 94.3473 136.714 94.5863C136.853 94.8252 136.771 95.1311 136.532 95.2695L136.031 94.4043ZM139.121 93.7699C138.882 93.9083 138.576 93.8269 138.437 93.5879C138.299 93.349 138.38 93.0431 138.619 92.9046L139.121 93.7699ZM140.345 91.9049C140.584 91.7664 140.89 91.8479 141.028 92.0869C141.167 92.3258 141.085 92.6317 140.846 92.7701L140.345 91.9049ZM143.435 91.2705C143.196 91.4089 142.89 91.3275 142.751 91.0885C142.613 90.8496 142.694 90.5437 142.933 90.4052L143.435 91.2705ZM144.659 89.4055C144.898 89.267 145.204 89.3485 145.342 89.5875C145.481 89.8264 145.399 90.1323 145.16 90.2708L144.659 89.4055ZM147.749 88.7711C147.51 88.9095 147.204 88.8281 147.065 88.5891C146.927 88.3502 147.008 88.0443 147.247 87.9058L147.749 88.7711ZM148.973 86.9061C149.212 86.7677 149.518 86.8491 149.656 87.0881C149.795 87.327 149.713 87.6329 149.474 87.7714L148.973 86.9061ZM152.063 86.2717C151.824 86.4102 151.518 86.3287 151.379 86.0897C151.241 85.8508 151.322 85.5449 151.561 85.4064L152.063 86.2717ZM153.287 84.4067C153.526 84.2683 153.832 84.3497 153.97 84.5887C154.109 84.8276 154.027 85.1335 153.788 85.272L153.287 84.4067ZM156.377 83.7723C156.138 83.9108 155.832 83.8293 155.693 83.5903C155.555 83.3514 155.636 83.0455 155.875 82.9071L156.377 83.7723ZM157.327 81.9821C157.534 81.7985 157.85 81.8169 158.033 82.0231C158.217 82.2294 158.199 82.5454 157.992 82.729L157.327 81.9821ZM159.379 80.3486C159.321 80.6184 159.054 80.7896 158.785 80.7309C158.515 80.6722 158.344 80.4059 158.402 80.136L159.379 80.3486ZM158.417 78.6923C158.364 78.4213 158.541 78.1586 158.812 78.1055C159.083 78.0524 159.345 78.2291 159.399 78.5001L158.417 78.6923ZM158.061 76.0914C158.263 76.2793 158.275 76.5956 158.087 76.798C157.9 77.0004 157.583 77.0123 157.381 76.8244L158.061 76.0914ZM155.973 75.8846C155.737 75.7413 155.662 75.4337 155.805 75.1977C155.948 74.9617 156.256 74.8866 156.492 75.0299L155.973 75.8846ZM154.009 73.522C154.245 73.6653 154.32 73.9729 154.177 74.2089C154.034 74.4449 153.726 74.52 153.49 74.3767L154.009 73.522ZM151.835 73.3714C151.599 73.2281 151.524 72.9205 151.667 72.6845C151.81 72.4485 152.118 72.3734 152.354 72.5167L151.835 73.3714ZM149.871 71.0088C150.107 71.1522 150.182 71.4597 150.039 71.6957C149.896 71.9317 149.588 72.0069 149.352 71.8635L149.871 71.0088ZM147.697 70.8582C147.461 70.7149 147.386 70.4074 147.529 70.1713C147.673 69.9353 147.98 69.8602 148.216 70.0035L147.697 70.8582ZM145.733 68.4956C145.969 68.639 146.044 68.9465 145.901 69.1825C145.758 69.4186 145.45 69.4937 145.214 69.3503L145.733 68.4956ZM143.559 68.3451C143.323 68.2017 143.248 67.8942 143.391 67.6581C143.535 67.4221 143.842 67.347 144.078 67.4903L143.559 68.3451ZM141.595 65.9824C141.831 66.1258 141.907 66.4333 141.763 66.6693C141.62 66.9054 141.312 66.9805 141.076 66.8371L141.595 65.9824ZM139.421 65.8319C139.185 65.6885 139.11 65.381 139.253 65.145C139.397 64.9089 139.704 64.8338 139.94 64.9772L139.421 65.8319ZM137.457 63.4693C137.693 63.6126 137.769 63.9201 137.625 64.1562C137.482 64.3922 137.174 64.4673 136.938 64.324L137.457 63.4693ZM135.283 63.3187C135.047 63.1753 134.972 62.8678 135.115 62.6318C135.259 62.3958 135.566 62.3206 135.802 62.464L135.283 63.3187ZM133.319 60.9561C133.555 61.0994 133.631 61.407 133.487 61.643C133.344 61.879 133.036 61.9541 132.8 61.8108L133.319 60.9561ZM131.145 60.8055C130.909 60.6622 130.834 60.3546 130.977 60.1186C131.121 59.8826 131.428 59.8074 131.664 59.9508L131.145 60.8055ZM129.181 58.4429C129.418 58.5862 129.493 58.8938 129.349 59.1298C129.206 59.3658 128.898 59.4409 128.662 59.2976L129.181 58.4429ZM127.007 58.2923C126.771 58.149 126.696 57.8414 126.839 57.6054C126.983 57.3694 127.29 57.2943 127.526 57.4376L127.007 58.2923ZM125.044 55.9297C125.28 56.073 125.355 56.3806 125.211 56.6166C125.068 56.8526 124.76 56.9278 124.524 56.7844L125.044 55.9297ZM122.869 55.7791C122.633 55.6358 122.558 55.3282 122.701 55.0922C122.845 54.8562 123.152 54.7811 123.388 54.9244L122.869 55.7791ZM120.906 53.4165C121.142 53.5599 121.217 53.8674 121.073 54.1034C120.93 54.3394 120.622 54.4146 120.386 54.2712L120.906 53.4165ZM118.731 53.2659C118.495 53.1226 118.42 52.8151 118.563 52.579C118.707 52.343 119.014 52.2679 119.25 52.4112L118.731 53.2659ZM116.768 50.9033C117.004 51.0467 117.079 51.3542 116.935 51.5902C116.792 51.8263 116.485 51.9014 116.248 51.758L116.768 50.9033ZM114.593 50.7528C114.357 50.6094 114.282 50.3019 114.426 50.0659C114.569 49.8298 114.876 49.7547 115.112 49.8981L114.593 50.7528ZM112.63 48.3901C112.866 48.5335 112.941 48.841 112.797 49.077C112.654 49.3131 112.347 49.3882 112.111 49.2448L112.63 48.3901ZM110.455 48.2396C110.219 48.0962 110.144 47.7887 110.288 47.5527C110.431 47.3166 110.738 47.2415 110.974 47.3849L110.455 48.2396ZM108.492 45.877C108.728 46.0203 108.803 46.3278 108.659 46.5639C108.516 46.7999 108.209 46.875 107.973 46.7317L108.492 45.877ZM106.317 45.7264C106.081 45.583 106.006 45.2755 106.15 45.0395C106.293 44.8035 106.6 44.7283 106.836 44.8717L106.317 45.7264ZM104.354 43.3638C104.59 43.5071 104.665 43.8147 104.522 44.0507C104.378 44.2867 104.071 44.3618 103.835 44.2185L104.354 43.3638ZM102.179 43.2132C101.943 43.0699 101.868 42.7623 102.012 42.5263C102.155 42.2903 102.463 42.2151 102.699 42.3585L102.179 43.2132ZM100.216 40.8506C100.452 40.9939 100.527 41.3015 100.384 41.5375C100.24 41.7735 99.9327 41.8486 99.6967 41.7053L100.216 40.8506ZM98.3585 40.947C98.1023 40.844 97.9781 40.5527 98.0812 40.2965C98.1842 40.0403 98.4755 39.9162 98.7317 40.0193L98.3585 40.947ZM96.5693 39.7201C96.8438 39.6905 97.0904 39.889 97.1201 40.1636C97.1497 40.4381 96.9512 40.6847 96.6766 40.7143L96.5693 39.7201ZM95.6326 40.9559C95.3665 41.0298 95.0909 40.874 95.017 40.6079C94.9432 40.3418 95.099 40.0663 95.365 39.9924L95.6326 40.9559ZM93.9155 40.3949C94.1816 40.321 94.4571 40.4768 94.531 40.7429C94.6049 41.0089 94.4491 41.2845 94.183 41.3584L93.9155 40.3949ZM126.54 99.9029L127.403 99.4031L127.904 100.268L127.041 100.768L126.54 99.9029ZM129.991 97.9034L131.717 96.9037L132.218 97.7689L130.492 98.7687L129.991 97.9034ZM134.305 95.404L136.031 94.4043L136.532 95.2695L134.807 96.2693L134.305 95.404ZM138.619 92.9046L140.345 91.9049L140.846 92.7701L139.121 93.7699L138.619 92.9046ZM142.933 90.4052L144.659 89.4055L145.16 90.2708L143.435 91.2705L142.933 90.4052ZM147.247 87.9058L148.973 86.9061L149.474 87.7714L147.749 88.7711L147.247 87.9058ZM151.561 85.4064L153.287 84.4067L153.788 85.272L152.063 86.2717L151.561 85.4064ZM155.875 82.9071L156.738 82.4072L157.24 83.2724L156.377 83.7723L155.875 82.9071ZM156.738 82.4072C156.956 82.2812 157.152 82.1384 157.327 81.9821L157.992 82.729C157.766 82.9304 157.515 83.1128 157.24 83.2724L156.738 82.4072ZM158.402 80.136C158.505 79.6617 158.511 79.1687 158.417 78.6923L159.399 78.5001C159.518 79.1102 159.512 79.741 159.379 80.3486L158.402 80.136ZM157.381 76.8244C157.208 76.6645 157.015 76.5177 156.801 76.3872L157.32 75.5325C157.592 75.6978 157.839 75.8854 158.061 76.0914L157.381 76.8244ZM156.801 76.3872L155.973 75.8846L156.492 75.0299L157.32 75.5325L156.801 76.3872ZM153.49 74.3767L151.835 73.3714L152.354 72.5167L154.009 73.522L153.49 74.3767ZM149.352 71.8635L147.697 70.8582L148.216 70.0035L149.871 71.0088L149.352 71.8635ZM145.214 69.3503L143.559 68.3451L144.078 67.4903L145.733 68.4956L145.214 69.3503ZM141.076 66.8371L139.421 65.8319L139.94 64.9772L141.595 65.9824L141.076 66.8371ZM136.938 64.324L135.283 63.3187L135.802 62.464L137.457 63.4693L136.938 64.324ZM132.8 61.8108L131.145 60.8055L131.664 59.9508L133.319 60.9561L132.8 61.8108ZM128.662 59.2976L127.007 58.2923L127.526 57.4376L129.181 58.4429L128.662 59.2976ZM124.524 56.7844L122.869 55.7791L123.388 54.9244L125.044 55.9297L124.524 56.7844ZM120.386 54.2712L118.731 53.2659L119.25 52.4112L120.906 53.4165L120.386 54.2712ZM116.248 51.758L114.593 50.7528L115.112 49.8981L116.768 50.9033L116.248 51.758ZM112.111 49.2448L110.455 48.2396L110.974 47.3849L112.63 48.3901L112.111 49.2448ZM107.973 46.7317L106.317 45.7264L106.836 44.8717L108.492 45.877L107.973 46.7317ZM103.835 44.2185L102.179 43.2132L102.699 42.3585L104.354 43.3638L103.835 44.2185ZM99.6967 41.7053L98.8691 41.2027L99.3882 40.348L100.216 40.8506L99.6967 41.7053ZM98.8691 41.2027C98.705 41.103 98.5341 41.0177 98.3585 40.947L98.7317 40.0193C98.9576 40.1102 99.1772 40.2198 99.3882 40.348L98.8691 41.2027ZM96.6766 40.7143C96.4883 40.7347 96.3008 40.7704 96.1158 40.8217L95.8482 39.8582C96.086 39.7922 96.3272 39.7462 96.5693 39.7201L96.6766 40.7143ZM96.1158 40.8217L95.6326 40.9559L95.365 39.9924L95.8482 39.8582L96.1158 40.8217ZM94.183 41.3584L93.6999 41.4926L93.4323 40.529L93.9155 40.3949L94.183 41.3584Z" fill="#050013" fill-opacity="0.22"/>
        <path d="M148.875 86.8422C148.875 87.5435 149.464 88.112 150.19 88.112C150.916 88.112 151.505 87.5435 151.505 86.8422C151.505 86.1408 150.916 85.5723 150.19 85.5723C149.464 85.5723 148.875 86.1408 148.875 86.8422Z" fill="#4A4A4F"/>
        <path d="M138.079 65.25V117.761C138.079 119.157 137.351 120.453 136.157 121.178L130.241 124.776C128.952 125.56 127.331 125.552 126.05 124.755L94.0531 104.85C92.8795 104.12 92.166 102.836 92.166 101.454V93.7267" stroke="#050013" stroke-opacity="0.22" stroke-linecap="round" stroke-dasharray="2 3"/>
        <path d="M135.851 64.441C135.851 65.6176 136.838 66.5714 138.056 66.5714C139.275 66.5714 140.262 65.6176 140.262 64.441C140.262 63.2644 139.275 62.3105 138.056 62.3105C136.838 62.3105 135.851 63.2644 135.851 64.441Z" fill="#4A4A4F"/>
        <path fill-rule="evenodd" clip-rule="evenodd" d="M80.569 39.5837L84.0419 41.7356L84.0419 37.4319C84.0419 36.6396 84.5602 36.3185 85.1996 36.7146L98.5126 44.9633C99.1519 45.3594 99.6702 46.3228 99.6702 47.1151L99.6702 51.4188L125.139 67.1989C125.778 67.595 126.296 68.5584 126.296 69.3507L126.296 112.425C126.296 113.217 125.778 113.538 125.139 113.142L124.296 112.62L103.406 65.3776C102.531 63.3986 101.163 61.7061 99.7103 60.806L79.4113 48.2289L79.4113 40.301C79.4113 39.5087 79.9296 39.1876 80.569 39.5837ZM127.454 113.142C127.454 114.714 126.434 115.359 125.17 114.596L125.17 114.596L123.72 113.698L81.1683 87.3331L80.569 86.9618C80.2133 86.7414 79.8764 86.4333 79.5753 86.0692C78.3811 84.9056 77.3136 83.3498 76.5481 81.6186L57.232 37.9348C56.3686 35.9821 57.1847 34.4574 58.6181 35.3455L78.2537 47.5116L78.2537 39.5837C78.2537 37.9992 79.2903 37.3569 80.569 38.1492L82.8843 39.5837L82.8843 36.7146C82.8843 35.1301 83.9209 34.4878 85.1996 35.2801L98.5126 43.5287C99.7913 44.321 100.828 46.2478 100.828 47.8324L100.828 50.7015L125.139 65.7643C126.417 66.5566 127.454 68.4834 127.454 70.068L127.454 113.142ZM99.7103 62.2406L58.6181 36.78C58.1403 36.484 57.8682 36.9922 58.156 37.6431L76.8959 80.0236L120.88 107.276L102.482 65.6693C101.826 64.185 100.8 62.9156 99.7103 62.2406ZM121.754 109.252L77.8055 82.0218C78.6748 83.6983 79.8889 85.1058 81.1683 85.8985L122.846 111.722L121.754 109.252Z" fill="#908E96"/>
        <path fill-rule="evenodd" clip-rule="evenodd" d="M81.3938 62.3893C81.3938 64.3165 82.5112 66.5711 83.8896 67.4251C85.268 68.2792 86.3854 67.4093 86.3854 65.4821C86.3854 63.555 85.268 61.3004 83.8896 60.4463C82.5112 59.5923 81.3938 60.4622 81.3938 62.3893ZM78.8979 69.3172C78.8979 66.8395 80.3346 65.721 82.1068 66.8191L85.6723 69.0282C85.7928 69.1029 85.9118 69.1859 86.0289 69.2765C86.0339 70.446 86.3572 71.7072 86.8836 72.8274C85.4719 72.2409 84.3043 72.8569 83.8004 74.3487L79.611 71.753C79.2172 71.509 78.8979 70.8648 78.8979 70.3142L78.8979 69.3172ZM92.0901 69.0167C92.0901 70.9439 93.2075 73.1985 94.5859 74.0525C95.9643 74.9066 97.0817 74.0367 97.0817 72.1095C97.0817 70.1824 95.9643 67.9278 94.5859 67.0737C93.2075 66.2197 92.0901 67.0896 92.0901 69.0167ZM92.4466 73.2529C92.5637 73.3073 92.6826 73.3718 92.8032 73.4465L96.3686 75.6556C98.1409 76.7537 99.5775 79.6524 99.5775 82.1302V83.1272C99.5775 83.6778 99.2583 83.9263 98.8644 83.6823L94.6751 81.0866C94.1712 78.9703 93.0035 76.9074 91.5919 75.7447C92.1183 75.2767 92.4416 74.4162 92.4466 73.2529ZM86.7419 69.6909C86.7419 71.6181 87.8593 73.8727 89.2377 74.7267C90.6161 75.5808 91.7335 74.7109 91.7335 72.7837C91.7335 70.8566 90.6161 68.602 89.2377 67.7479C87.8593 66.8939 86.7419 67.7638 86.7419 69.6909ZM84.2461 76.6188C84.2461 74.1411 85.6828 73.0226 87.455 74.1207L91.0205 76.3298C92.7927 77.4279 94.2294 80.3266 94.2294 82.8044V83.8014C94.2294 84.352 93.9101 84.6005 93.5163 84.3565L84.9592 79.0546C84.5654 78.8106 84.2461 78.1664 84.2461 77.6158V76.6188Z" fill="#86848D"/>
        <path d="M60.9116 35.2207H58.4126L99.3394 60.586L104.381 61.222C104.917 61.2896 105.165 60.5769 104.702 60.2978L65.0443 36.3709C63.7971 35.6184 62.3682 35.2207 60.9116 35.2207Z" fill="#C8C7CB"/>
        <path d="M71.5413 22.7513C71.8173 22.7405 72.0322 22.508 72.0214 22.2321L71.8452 17.7355C71.8344 17.4596 71.6019 17.2447 71.326 17.2555C71.0501 17.2663 70.8351 17.4987 70.8459 17.7747L71.0026 21.7716L67.0056 21.9282C66.7297 21.939 66.5148 22.1715 66.5256 22.4474C66.5364 22.7234 66.7689 22.9383 67.0448 22.9275L71.5413 22.7513ZM25.3329 48.1834C23.175 37.7622 28.7556 25.9183 37.8606 19.4041C42.4013 16.1555 47.7949 14.2517 53.5071 14.5049C59.2145 14.7578 65.2848 17.166 71.1823 22.6188L71.8612 21.8845C65.8135 16.2929 59.5251 13.7706 53.5514 13.5058C47.5824 13.2413 41.9726 15.2326 37.2787 18.5909C27.9144 25.2905 22.101 37.5075 24.3537 48.3862L25.3329 48.1834Z" fill="#908E96"/>
        <path d="M59.4389 26.1367C59.7026 26.0547 59.8499 25.7744 59.7679 25.5108L58.4318 21.2137C58.3498 20.95 58.0696 20.8027 57.8059 20.8847C57.5422 20.9667 57.3949 21.2469 57.4769 21.5106L58.6646 25.3302L54.8449 26.5178C54.5812 26.5998 54.434 26.8801 54.5159 27.1438C54.5979 27.4074 54.8782 27.5547 55.1418 27.4728L59.4389 26.1367ZM60.9752 110.13C43.8506 102.766 33.4899 92.902 27.9853 82.5146C22.4801 72.126 21.8097 61.1725 24.138 51.5868C26.4683 41.993 31.7964 33.7934 38.2531 28.9155C44.7049 24.0414 52.2289 22.5123 59.0578 26.1018L59.5231 25.2166C52.2579 21.3978 44.3171 23.0811 37.6503 28.1176C30.9885 33.1504 25.5445 41.5596 23.1663 51.3507C20.7861 61.1499 21.4708 72.3571 27.1017 82.9828C32.7332 93.6098 43.2895 103.613 60.5801 111.049L60.9752 110.13Z" fill="#908E96"/>
        <path fill-rule="evenodd" clip-rule="evenodd" d="M32.9576 56.3138C25.6788 53.0536 18.966 57.2012 17.9638 65.579C16.9617 73.9568 22.0497 83.3915 29.3285 86.6518C36.6073 89.9129 43.3202 85.7643 44.3223 77.3865C45.3245 69.0087 40.2364 59.5741 32.9576 56.3138Z" fill="#908E96"/>
        <path d="M28.4475 59.037C35.8031 62.3319 40.9464 71.8642 39.9354 80.3279C38.9244 88.7916 32.1419 92.9817 24.7863 89.6868C17.4307 86.3918 12.2874 76.8595 13.2984 68.3958C14.3094 59.9321 21.0919 55.742 28.4475 59.037Z" fill="#E9E8EA"/>
        <path fill-rule="evenodd" clip-rule="evenodd" d="M28.3964 59.4627C35.5477 62.6662 40.5482 71.9342 39.5652 80.1627C38.5823 88.3912 31.9881 92.4647 24.8369 89.2612C17.6857 86.0577 12.6852 76.7907 13.6682 68.5622C14.6511 60.3327 21.2452 56.2592 28.3964 59.4627ZM28.4473 59.0369C35.8028 62.3319 40.9462 71.8645 39.9352 80.3284C38.9241 88.7914 32.1417 92.9821 24.7861 89.6871C17.4305 86.392 12.2872 76.8594 13.2982 68.3964C14.3092 59.9325 21.0917 55.7418 28.4473 59.0369Z" fill="#050013" fill-opacity="0.22"/>
        <path d="M23.0914 70.5384L26.3478 67.2516C26.9507 66.6471 28.1124 67.3917 28.742 68.7324C28.9772 69.2324 29.1052 69.7581 29.1052 70.2179V73.6063L31.8545 75.3061C32.4666 75.6843 32.9806 76.5122 33.2114 77.3575C33.4724 78.3127 33.7568 79.4712 33.683 79.7441L32.4761 84.215C32.2789 84.9449 31.6529 85.1437 30.9407 84.7041L25.3559 81.2497C24.9119 80.9758 24.4874 80.4831 24.1854 79.8924L23.0914 77.7504M22.1537 79.2697L20.4771 78.233C19.9593 77.9134 19.5393 77.1304 19.5393 76.4865V68.324C19.5393 67.6792 19.9593 67.4164 20.4771 67.7369L22.1537 68.7736C22.6714 69.0942 23.0914 69.8763 23.0914 70.5201V78.6827C23.0914 79.3274 22.6714 79.5902 22.1537 79.2697Z" stroke="#86848D" stroke-linecap="round" stroke-linejoin="round"/>
        <path fill-rule="evenodd" clip-rule="evenodd" d="M66.8158 84.4868C60.4242 81.6239 54.5297 85.266 53.6497 92.6226C52.7697 99.9792 57.2375 108.264 63.629 111.127C70.0206 113.99 75.9152 110.347 76.7952 102.991C77.6752 95.6343 73.2073 87.3497 66.8158 84.4868Z" fill="#908E96"/>
        <path d="M62.8553 86.8778C69.3143 89.7711 73.8306 98.1415 72.9429 105.574C72.0551 113.006 66.0993 116.685 59.6403 113.792C53.1814 110.898 48.665 102.528 49.5528 95.0959C50.4406 87.6638 56.3963 83.9845 62.8553 86.8778Z" fill="#E9E8EA"/>
        <path fill-rule="evenodd" clip-rule="evenodd" d="M62.8101 87.2522C69.0897 90.0652 73.4806 98.2034 72.6174 105.429C71.7543 112.654 65.964 116.231 59.6845 113.418C53.4049 110.605 49.014 102.468 49.8772 95.2425C50.7403 88.0162 56.5306 84.4392 62.8101 87.2522ZM62.8547 86.8783C69.3137 89.7717 73.8301 98.1423 72.9423 105.575C72.0545 113.006 66.0988 116.686 59.6398 113.792C53.1809 110.899 48.6645 102.528 49.5522 95.0969C50.4401 87.6647 56.3958 83.9848 62.8547 86.8783Z" fill="#050013" fill-opacity="0.22"/>
        <path d="M58.152 96.9771L61.0114 94.0909C61.5408 93.5601 62.5609 94.2139 63.1138 95.3912C63.3204 95.8303 63.4327 96.2919 63.4327 96.6956V99.6711L65.8469 101.164C66.3844 101.496 66.8358 102.223 67.0384 102.965C67.2676 103.804 67.5173 104.821 67.4525 105.061L66.3927 108.987C66.2196 109.628 65.6699 109.802 65.0445 109.416L60.1404 106.383C59.7506 106.142 59.3778 105.71 59.1126 105.191L58.152 103.31M57.3285 104.644L55.8563 103.734C55.4017 103.453 55.0328 102.766 55.0328 102.2V95.0326C55.0328 94.4664 55.4017 94.2356 55.8563 94.5171L57.3285 95.4274C57.7832 95.7089 58.152 96.3957 58.152 96.961V104.129C58.152 104.695 57.7832 104.926 57.3285 104.644Z" stroke="#86848D" stroke-linecap="round" stroke-linejoin="round"/>
    </g>
    <defs>
        <clipPath id="clip0_6580_143312">
            <rect width="164" height="132" fill="white"/>
        </clipPath>
    </defs>
</svg>
