<svg width="200" height="150" viewBox="0 0 200 150" fill="none" xmlns="http://www.w3.org/2000/svg">
<g clip-path="url(#clip0_626_8773)">
<path d="M103.5 58.0669C103.5 58.3431 103.724 58.5669 104 58.5669C104.276 58.5669 104.5 58.3431 104.5 58.0669H103.5ZM100.995 15.8034L100.871 16.2877L100.995 15.8034ZM6.35274 66.4259L6.59768 66.8618L6.35274 66.4259ZM6.4225 73.4384L6.65872 72.9978L6.4225 73.4384ZM96.4683 15.7866L96.7133 16.2225L96.4683 15.7866ZM99.4232 15.3995L99.2988 15.8838L99.4232 15.3995ZM53.4773 98.0946C53.2339 97.9641 52.9308 98.0556 52.8004 98.299C52.6699 98.5424 52.7614 98.8455 53.0048 98.9759L53.4773 98.0946ZM50.4038 97.5817C50.6472 97.7121 50.9502 97.6206 51.0807 97.3772C51.2111 97.1338 51.1196 96.8308 50.8762 96.7003L50.4038 97.5817ZM49.1422 95.7708C48.8988 95.6403 48.5958 95.7319 48.4653 95.9752C48.3348 96.2186 48.4264 96.5217 48.6698 96.6521L49.1422 95.7708ZM46.0687 95.2579C46.3121 95.3883 46.6152 95.2968 46.7456 95.0534C46.8761 94.81 46.7846 94.507 46.5412 94.3765L46.0687 95.2579ZM44.8072 93.447C44.5638 93.3165 44.2607 93.4081 44.1303 93.6515C43.9998 93.8948 44.0913 94.1979 44.3347 94.3284L44.8072 93.447ZM41.7337 92.9341C41.9771 93.0646 42.2801 92.973 42.4106 92.7296C42.541 92.4863 42.4495 92.1832 42.2061 92.0527L41.7337 92.9341ZM40.4721 91.1232C40.2287 90.9928 39.9257 91.0843 39.7952 91.3277C39.6647 91.5711 39.7563 91.8741 39.9997 92.0046L40.4721 91.1232ZM37.3986 90.6103C37.642 90.7408 37.9451 90.6492 38.0755 90.4059C38.206 90.1625 38.1145 89.8594 37.8711 89.729L37.3986 90.6103ZM36.1371 88.7995C35.8937 88.669 35.5906 88.7605 35.4602 89.0039C35.3297 89.2473 35.4212 89.5503 35.6646 89.6808L36.1371 88.7995ZM33.0636 88.2865C33.307 88.417 33.61 88.3255 33.7405 88.0821C33.8709 87.8387 33.7794 87.5356 33.536 87.4052L33.0636 88.2865ZM31.802 86.4757C31.5586 86.3452 31.2556 86.4367 31.1251 86.6801C30.9946 86.9235 31.0862 87.2266 31.3296 87.357L31.802 86.4757ZM28.7285 85.9628C28.9719 86.0932 29.275 86.0017 29.4054 85.7583C29.5359 85.5149 29.4444 85.2119 29.201 85.0814L28.7285 85.9628ZM27.467 84.1519C27.2236 84.0214 26.9205 84.113 26.7901 84.3563C26.6596 84.5997 26.7511 84.9028 26.9945 85.0332L27.467 84.1519ZM24.3935 83.639C24.6369 83.7694 24.9399 83.6779 25.0704 83.4345C25.2008 83.1911 25.1093 82.8881 24.8659 82.7576L24.3935 83.639ZM23.1319 81.8281C22.8885 81.6977 22.5855 81.7892 22.455 82.0326C22.3245 82.276 22.4161 82.579 22.6595 82.7095L23.1319 81.8281ZM20.0584 81.3152C20.3018 81.4457 20.6049 81.3541 20.7353 81.1108C20.8658 80.8674 20.7743 80.5643 20.5309 80.4339L20.0584 81.3152ZM18.7969 79.5043C18.5535 79.3739 18.2504 79.4654 18.12 79.7088C17.9895 79.9522 18.081 80.2552 18.3244 80.3857L18.7969 79.5043ZM15.7234 78.9914C15.9668 79.1219 16.2698 79.0304 16.4003 78.787C16.5308 78.5436 16.4392 78.2405 16.1958 78.1101L15.7234 78.9914ZM14.4618 77.1806C14.2184 77.0501 13.9154 77.1416 13.7849 77.385C13.6544 77.6284 13.746 77.9315 13.9894 78.0619L14.4618 77.1806ZM11.3883 76.6677C11.6317 76.7981 11.9348 76.7066 12.0652 76.4632C12.1957 76.2198 12.1042 75.9168 11.8608 75.7863L11.3883 76.6677ZM10.1268 74.8568C9.88339 74.7263 9.58033 74.8179 9.44986 75.0612C9.3194 75.3046 9.41094 75.6077 9.65432 75.7381L10.1268 74.8568ZM7.05329 74.3439C7.29667 74.4743 7.59973 74.3828 7.7302 74.1394C7.86066 73.896 7.76912 73.593 7.52574 73.4625L7.05329 74.3439ZM6.03713 72.5774C5.82597 72.3994 5.51053 72.4264 5.33259 72.6375C5.15465 72.8487 5.18159 73.1641 5.39275 73.3421L6.03713 72.5774ZM3.92231 70.9104C3.98255 71.1799 4.24984 71.3495 4.51934 71.2893C4.78883 71.2291 4.95847 70.9618 4.89823 70.6923L3.92231 70.9104ZM4.8834 69.2018C4.93827 68.9312 4.76334 68.6673 4.49271 68.6124C4.22207 68.5576 3.9582 68.7325 3.90334 69.0031L4.8834 69.2018ZM5.32511 66.5427C5.11753 66.7248 5.09687 67.0407 5.27898 67.2483C5.46109 67.4559 5.77699 67.4765 5.98458 67.2944L5.32511 66.5427ZM7.45592 66.3795C7.69666 66.2442 7.78215 65.9394 7.64687 65.6986C7.51159 65.4579 7.20677 65.3724 6.96603 65.5077L7.45592 66.3795ZM9.54077 64.0609C9.30003 64.1961 9.21454 64.501 9.34982 64.7417C9.4851 64.9824 9.78992 65.0679 10.0307 64.9326L9.54077 64.0609ZM11.7471 63.9681C11.9879 63.8328 12.0734 63.528 11.9381 63.2872C11.8028 63.0465 11.498 62.961 11.2573 63.0963L11.7471 63.9681ZM13.832 61.6495C13.5912 61.7847 13.5058 62.0896 13.641 62.3303C13.7763 62.571 14.0811 62.6565 14.3219 62.5212L13.832 61.6495ZM16.0384 61.5567C16.2791 61.4214 16.3646 61.1166 16.2293 60.8759C16.094 60.6351 15.7892 60.5496 15.5485 60.6849L16.0384 61.5567ZM18.1232 59.2381C17.8825 59.3733 17.797 59.6782 17.9323 59.9189C18.0675 60.1596 18.3724 60.2451 18.6131 60.1098L18.1232 59.2381ZM20.3296 59.1453C20.5703 59.01 20.6558 58.7052 20.5205 58.4645C20.3853 58.2237 20.0804 58.1382 19.8397 58.2735L20.3296 59.1453ZM22.4144 56.8267C22.1737 56.9619 22.0882 57.2668 22.2235 57.5075C22.3588 57.7482 22.6636 57.8337 22.9043 57.6985L22.4144 56.8267ZM24.6208 56.7339C24.8615 56.5986 24.947 56.2938 24.8118 56.0531C24.6765 55.8123 24.3717 55.7268 24.1309 55.8621L24.6208 56.7339ZM26.7056 54.4153C26.4649 54.5506 26.3794 54.8554 26.5147 55.0961C26.65 55.3368 26.9548 55.4223 27.1955 55.2871L26.7056 54.4153ZM28.912 54.3225C29.1528 54.1872 29.2382 53.8824 29.103 53.6417C28.9677 53.4009 28.6629 53.3154 28.4221 53.4507L28.912 54.3225ZM30.9969 52.0039C30.7561 52.1392 30.6706 52.444 30.8059 52.6847C30.9412 52.9255 31.246 53.0109 31.4868 52.8757L30.9969 52.0039ZM33.2032 51.9111C33.444 51.7758 33.5295 51.471 33.3942 51.2303C33.2589 50.9895 32.9541 50.904 32.7134 51.0393L33.2032 51.9111ZM35.2881 49.5925C35.0474 49.7278 34.9619 50.0326 35.0971 50.2733C35.2324 50.5141 35.5372 50.5995 35.778 50.4643L35.2881 49.5925ZM37.4945 49.4997C37.7352 49.3644 37.8207 49.0596 37.6854 48.8189C37.5501 48.5781 37.2453 48.4926 37.0046 48.6279L37.4945 49.4997ZM39.5793 47.1811C39.3386 47.3164 39.2531 47.6212 39.3884 47.8619C39.5236 48.1027 39.8285 48.1882 40.0692 48.0529L39.5793 47.1811ZM41.7857 47.0883C42.0264 46.953 42.1119 46.6482 41.9766 46.4075C41.8413 46.1667 41.5365 46.0813 41.2958 46.2165L41.7857 47.0883ZM43.8705 44.7697C43.6298 44.905 43.5443 45.2098 43.6796 45.4505C43.8148 45.6913 44.1197 45.7768 44.3604 45.6415L43.8705 44.7697ZM46.0769 44.6769C46.3176 44.5416 46.4031 44.2368 46.2678 43.9961C46.1326 43.7554 45.8277 43.6699 45.587 43.8051L46.0769 44.6769ZM48.1617 42.3583C47.921 42.4936 47.8355 42.7984 47.9708 43.0391C48.1061 43.2799 48.4109 43.3654 48.6516 43.2301L48.1617 42.3583ZM50.3681 42.2655C50.6088 42.1303 50.6943 41.8254 50.5591 41.5847C50.4238 41.344 50.119 41.2585 49.8782 41.3937L50.3681 42.2655ZM52.453 39.9469C52.2122 40.0822 52.1267 40.387 52.262 40.6278C52.3973 40.8685 52.7021 40.954 52.9428 40.8187L52.453 39.9469ZM54.6593 39.8541C54.9001 39.7189 54.9856 39.414 54.8503 39.1733C54.715 38.9326 54.4102 38.8471 54.1694 38.9824L54.6593 39.8541ZM56.7442 37.5355C56.5034 37.6708 56.4179 37.9756 56.5532 38.2164C56.6885 38.4571 56.9933 38.5426 57.2341 38.4073L56.7442 37.5355ZM58.9506 37.4427C59.1913 37.3075 59.2768 37.0026 59.1415 36.7619C59.0062 36.5212 58.7014 36.4357 58.4607 36.571L58.9506 37.4427ZM61.0354 35.1241C60.7947 35.2594 60.7092 35.5642 60.8444 35.805C60.9797 36.0457 61.2845 36.1312 61.5253 35.9959L61.0354 35.1241ZM63.2418 35.0314C63.4825 34.8961 63.568 34.5913 63.4327 34.3505C63.2974 34.1098 62.9926 34.0243 62.7519 34.1596L63.2418 35.0314ZM65.3266 32.7127C65.0859 32.848 65.0004 33.1528 65.1357 33.3936C65.2709 33.6343 65.5758 33.7198 65.8165 33.5845L65.3266 32.7127ZM67.533 32.62C67.7737 32.4847 67.8592 32.1799 67.7239 31.9391C67.5887 31.6984 67.2838 31.6129 67.0431 31.7482L67.533 32.62ZM69.6178 30.3013C69.3771 30.4366 69.2916 30.7414 69.4269 30.9822C69.5621 31.2229 69.867 31.3084 70.1077 31.1731L69.6178 30.3013ZM71.8242 30.2086C72.0649 30.0733 72.1504 29.7685 72.0151 29.5277C71.8799 29.287 71.575 29.2015 71.3343 29.3368L71.8242 30.2086ZM73.909 27.8899C73.6683 28.0252 73.5828 28.33 73.7181 28.5708C73.8534 28.8115 74.1582 28.897 74.3989 28.7617L73.909 27.8899ZM76.1154 27.7972C76.3562 27.6619 76.4416 27.3571 76.3064 27.1163C76.1711 26.8756 75.8663 26.7901 75.6255 26.9254L76.1154 27.7972ZM78.2003 25.4786C77.9595 25.6138 77.874 25.9187 78.0093 26.1594C78.1446 26.4001 78.4494 26.4856 78.6901 26.3503L78.2003 25.4786ZM80.4066 25.3858C80.6474 25.2505 80.7329 24.9457 80.5976 24.7049C80.4623 24.4642 80.1575 24.3787 79.9167 24.514L80.4066 25.3858ZM82.4915 23.0672C82.2507 23.2024 82.1652 23.5073 82.3005 23.748C82.4358 23.9887 82.7406 24.0742 82.9814 23.9389L82.4915 23.0672ZM84.6978 22.9744C84.9386 22.8391 85.0241 22.5343 84.8888 22.2936C84.7535 22.0528 84.4487 21.9673 84.208 22.1026L84.6978 22.9744ZM86.7827 20.6558C86.542 20.791 86.4565 21.0959 86.5917 21.3366C86.727 21.5773 87.0318 21.6628 87.2726 21.5276L86.7827 20.6558ZM88.9891 20.563C89.2298 20.4277 89.3153 20.1229 89.18 19.8822C89.0447 19.6414 88.7399 19.5559 88.4992 19.6912L88.9891 20.563ZM91.0739 18.2444C90.8332 18.3797 90.7477 18.6845 90.883 18.9252C91.0182 19.166 91.3231 19.2514 91.5638 19.1162L91.0739 18.2444ZM93.2803 18.1516C93.521 18.0163 93.6065 17.7115 93.4712 17.4708C93.336 17.23 93.0311 17.1445 92.7904 17.2798L93.2803 18.1516ZM95.3651 15.833C95.1244 15.9683 95.0389 16.2731 95.1742 16.5138C95.3095 16.7546 95.6143 16.84 95.855 16.7048L95.3651 15.833ZM97.1973 15.9972C97.4558 15.9001 97.5867 15.6118 97.4896 15.3533C97.3925 15.0948 97.1042 14.9639 96.8457 15.061L97.1973 15.9972ZM98.8717 14.7956C98.5969 14.7684 98.3521 14.9691 98.3248 15.2439C98.2976 15.5187 98.4983 15.7635 98.7731 15.7908L98.8717 14.7956ZM99.6132 15.9646C99.8807 16.0333 100.153 15.8722 100.222 15.6047C100.291 15.3373 100.13 15.0648 99.8621 14.996L99.6132 15.9646ZM100.805 15.2384C100.538 15.1697 100.265 15.3308 100.197 15.5982C100.128 15.8657 100.289 16.1382 100.556 16.2069L100.805 15.2384ZM101.725 16.6319C101.965 16.768 102.271 16.6835 102.407 16.4432C102.543 16.2029 102.458 15.8978 102.218 15.7617L101.725 16.6319ZM104.345 18.5038C104.273 18.2372 103.998 18.0795 103.732 18.1515C103.465 18.2235 103.307 18.498 103.379 18.7646L104.345 18.5038ZM103.5 20.6373C103.5 20.9135 103.724 21.1373 104 21.1373C104.276 21.1373 104.5 20.9135 104.5 20.6373H103.5ZM104.5 23.5165C104.5 23.2404 104.276 23.0165 104 23.0165C103.724 23.0165 103.5 23.2404 103.5 23.5165H104.5ZM103.5 25.436C103.5 25.7122 103.724 25.936 104 25.936C104.276 25.936 104.5 25.7122 104.5 25.436H103.5ZM104.5 28.3152C104.5 28.0391 104.276 27.8152 104 27.8152C103.724 27.8152 103.5 28.0391 103.5 28.3152H104.5ZM103.5 30.2347C103.5 30.5108 103.724 30.7347 104 30.7347C104.276 30.7347 104.5 30.5108 104.5 30.2347H103.5ZM104.5 33.1139C104.5 32.8377 104.276 32.6139 104 32.6139C103.724 32.6139 103.5 32.8377 103.5 33.1139H104.5ZM103.5 35.0333C103.5 35.3095 103.724 35.5333 104 35.5333C104.276 35.5333 104.5 35.3095 104.5 35.0333H103.5ZM104.5 37.9125C104.5 37.6364 104.276 37.4125 104 37.4125C103.724 37.4125 103.5 37.6364 103.5 37.9125H104.5ZM103.5 39.832C103.5 40.1081 103.724 40.332 104 40.332C104.276 40.332 104.5 40.1081 104.5 39.832H103.5ZM104.5 42.7112C104.5 42.4351 104.276 42.2112 104 42.2112C103.724 42.2112 103.5 42.4351 103.5 42.7112H104.5ZM103.5 44.6307C103.5 44.9068 103.724 45.1307 104 45.1307C104.276 45.1307 104.5 44.9068 104.5 44.6307H103.5ZM104.5 47.5099C104.5 47.2337 104.276 47.0099 104 47.0099C103.724 47.0099 103.5 47.2337 103.5 47.5099H104.5ZM103.5 49.4293C103.5 49.7055 103.724 49.9293 104 49.9293C104.276 49.9293 104.5 49.7055 104.5 49.4293H103.5ZM104.5 52.3085C104.5 52.0324 104.276 51.8085 104 51.8085C103.724 51.8085 103.5 52.0324 103.5 52.3085H104.5ZM103.5 54.228C103.5 54.5041 103.724 54.728 104 54.728C104.276 54.728 104.5 54.5041 104.5 54.228H103.5ZM104.5 57.1072C104.5 56.831 104.276 56.6072 104 56.6072C103.724 56.6072 103.5 56.831 103.5 57.1072H104.5ZM54.3443 98.5593L53.4773 98.0946L53.0048 98.9759L53.8718 99.4407L54.3443 98.5593ZM50.8762 96.7003L49.1422 95.7708L48.6698 96.6521L50.4038 97.5817L50.8762 96.7003ZM46.5412 94.3765L44.8072 93.447L44.3347 94.3284L46.0687 95.2579L46.5412 94.3765ZM42.2061 92.0527L40.4721 91.1232L39.9997 92.0046L41.7337 92.9341L42.2061 92.0527ZM37.8711 89.729L36.1371 88.7995L35.6646 89.6808L37.3986 90.6103L37.8711 89.729ZM33.536 87.4052L31.802 86.4757L31.3296 87.357L33.0636 88.2865L33.536 87.4052ZM29.201 85.0814L27.467 84.1519L26.9945 85.0332L28.7285 85.9628L29.201 85.0814ZM24.8659 82.7576L23.1319 81.8281L22.6595 82.7095L24.3935 83.639L24.8659 82.7576ZM20.5309 80.4339L18.7969 79.5043L18.3244 80.3857L20.0584 81.3152L20.5309 80.4339ZM16.1958 78.1101L14.4618 77.1806L13.9894 78.0619L15.7234 78.9914L16.1958 78.1101ZM11.8608 75.7863L10.1268 74.8568L9.65432 75.7381L11.3883 76.6677L11.8608 75.7863ZM7.52574 73.4625L6.65872 72.9978L6.18627 73.8791L7.05329 74.3439L7.52574 73.4625ZM6.65872 72.9978C6.42935 72.8748 6.22232 72.7334 6.03713 72.5774L5.39275 73.3421C5.63139 73.5431 5.89609 73.7236 6.18627 73.8791L6.65872 72.9978ZM4.89823 70.6923C4.78888 70.203 4.78381 69.6931 4.8834 69.2018L3.90334 69.0031C3.77583 69.6321 3.78231 70.2841 3.92231 70.9104L4.89823 70.6923ZM5.98458 67.2944C6.16663 67.1347 6.3708 66.9892 6.59768 66.8618L6.10779 65.99C5.82076 66.1513 5.5597 66.3369 5.32511 66.5427L5.98458 67.2944ZM6.59768 66.8618L7.45592 66.3795L6.96603 65.5077L6.10779 65.99L6.59768 66.8618ZM10.0307 64.9326L11.7471 63.9681L11.2573 63.0963L9.54077 64.0609L10.0307 64.9326ZM14.3219 62.5212L16.0384 61.5567L15.5485 60.6849L13.832 61.6495L14.3219 62.5212ZM18.6131 60.1098L20.3296 59.1453L19.8397 58.2735L18.1232 59.2381L18.6131 60.1098ZM22.9043 57.6985L24.6208 56.7339L24.1309 55.8621L22.4144 56.8267L22.9043 57.6985ZM27.1955 55.2871L28.912 54.3225L28.4221 53.4507L26.7056 54.4153L27.1955 55.2871ZM31.4868 52.8757L33.2032 51.9111L32.7134 51.0393L30.9969 52.0039L31.4868 52.8757ZM35.778 50.4643L37.4945 49.4997L37.0046 48.6279L35.2881 49.5925L35.778 50.4643ZM40.0692 48.0529L41.7857 47.0883L41.2958 46.2165L39.5793 47.1811L40.0692 48.0529ZM44.3604 45.6415L46.0769 44.6769L45.587 43.8051L43.8705 44.7697L44.3604 45.6415ZM48.6516 43.2301L50.3681 42.2655L49.8782 41.3937L48.1617 42.3583L48.6516 43.2301ZM52.9428 40.8187L54.6593 39.8541L54.1694 38.9824L52.453 39.9469L52.9428 40.8187ZM57.2341 38.4073L58.9506 37.4427L58.4607 36.571L56.7442 37.5355L57.2341 38.4073ZM61.5253 35.9959L63.2418 35.0314L62.7519 34.1596L61.0354 35.1241L61.5253 35.9959ZM65.8165 33.5845L67.533 32.62L67.0431 31.7482L65.3266 32.7127L65.8165 33.5845ZM70.1077 31.1731L71.8242 30.2086L71.3343 29.3368L69.6178 30.3013L70.1077 31.1731ZM74.3989 28.7617L76.1154 27.7972L75.6255 26.9254L73.909 27.8899L74.3989 28.7617ZM78.6901 26.3503L80.4066 25.3858L79.9167 24.514L78.2003 25.4786L78.6901 26.3503ZM82.9814 23.9389L84.6978 22.9744L84.208 22.1026L82.4915 23.0672L82.9814 23.9389ZM87.2726 21.5276L88.9891 20.563L88.4992 19.6912L86.7827 20.6558L87.2726 21.5276ZM91.5638 19.1162L93.2803 18.1516L92.7904 17.2798L91.0739 18.2444L91.5638 19.1162ZM95.855 16.7048L96.7133 16.2225L96.2234 15.3507L95.3651 15.833L95.855 16.7048ZM96.7133 16.2225C96.8696 16.1346 97.0315 16.0595 97.1973 15.9972L96.8457 15.061C96.6324 15.1411 96.4243 15.2378 96.2234 15.3507L96.7133 16.2225ZM98.7731 15.7908C98.9494 15.8082 99.1251 15.8392 99.2988 15.8838L99.5477 14.9153C99.3244 14.8579 99.0984 14.8181 98.8717 14.7956L98.7731 15.7908ZM99.2988 15.8838L99.6132 15.9646L99.8621 14.996L99.5477 14.9153L99.2988 15.8838ZM100.556 16.2069L100.871 16.2877L101.12 15.3192L100.805 15.2384L100.556 16.2069ZM100.871 16.2877C101.176 16.366 101.462 16.4827 101.725 16.6319L102.218 15.7617C101.879 15.5697 101.511 15.4196 101.12 15.3192L100.871 16.2877ZM103.379 18.7646C103.458 19.0568 103.5 19.3631 103.5 19.6776H104.5C104.5 19.274 104.446 18.8801 104.345 18.5038L103.379 18.7646ZM103.5 19.6776V20.6373H104.5V19.6776H103.5ZM103.5 23.5165V25.436H104.5V23.5165H103.5ZM103.5 28.3152V30.2347H104.5V28.3152H103.5ZM103.5 33.1139V35.0333H104.5V33.1139H103.5ZM103.5 37.9125V39.832H104.5V37.9125H103.5ZM103.5 42.7112V44.6307H104.5V42.7112H103.5ZM103.5 47.5099V49.4293H104.5V47.5099H103.5ZM103.5 52.3085V54.228H104.5V52.3085H103.5ZM103.5 57.1072V58.0669H104.5V57.1072H103.5Z" fill="#050013" fill-opacity="0.22"/>
<path d="M21 80C21 81.1046 20.1046 82 19 82C17.8954 82 17 81.1046 17 80C17 78.8954 17.8954 78 19 78C20.1046 78 21 78.8954 21 80Z" fill="#4A4A4F"/>
<path d="M37 50V116.529C37 117.753 37.5609 118.911 38.5222 119.669L45.6594 125.301C46.9569 126.325 48.7505 126.445 50.1732 125.604L97 97.9135" stroke="#050013" stroke-opacity="0.22" stroke-linecap="round" stroke-dasharray="2 3"/>
<path d="M41 48.5951C41 50.8042 39.2091 52.5951 37 52.5951C34.7909 52.5951 33 50.8042 33 48.5951C33 46.386 34.7909 44.5951 37 44.5951C39.2091 44.5951 41 46.386 41 48.5951Z" fill="#4A4A4F"/>
<path d="M117.538 75.7249C118.878 76.4989 121.052 76.4989 122.392 75.7249C123.733 74.9509 123.733 73.696 122.392 72.922C121.052 72.1481 118.878 72.1481 117.538 72.922C116.197 73.696 116.197 74.9509 117.538 75.7249Z" fill="#2B1E37" fill-opacity="0.08"/>
<path d="M107.828 81.3306C109.169 82.1045 111.343 82.1045 112.683 81.3306C114.024 80.5566 114.024 79.3017 112.683 78.5277C111.343 77.7537 109.169 77.7537 107.828 78.5277C106.488 79.3017 106.488 80.5566 107.828 81.3306Z" fill="#2B1E37" fill-opacity="0.08"/>
<path d="M98.1192 86.9362C99.4597 87.7102 101.633 87.7102 102.974 86.9362C104.314 86.1622 104.314 84.9074 102.974 84.1334C101.633 83.3594 99.4597 83.3594 98.1192 84.1334C96.7786 84.9074 96.7786 86.1622 98.1192 86.9362Z" fill="#2B1E37" fill-opacity="0.08"/>
<path d="M88.4099 92.5419C89.7504 93.3159 91.9239 93.3159 93.2645 92.5419C94.6051 91.7679 94.6051 90.513 93.2645 89.7391C91.9239 88.9651 89.7504 88.9651 88.4099 89.7391C87.0693 90.513 87.0693 91.7679 88.4099 92.5419Z" fill="#2B1E37" fill-opacity="0.08"/>
<path d="M78.7006 98.1476C80.0411 98.9215 82.2146 98.9215 83.5552 98.1476C84.8958 97.3736 84.8958 96.1187 83.5552 95.3447C82.2146 94.5707 80.0411 94.5707 78.7006 95.3447C77.36 96.1187 77.36 97.3736 78.7006 98.1476Z" fill="#2B1E37" fill-opacity="0.08"/>
<path d="M68.9913 103.753C70.3318 104.527 72.5053 104.527 73.8459 103.753C75.1865 102.979 75.1865 101.724 73.8459 100.95C72.5053 100.176 70.3318 100.176 68.9913 100.95C67.6507 101.724 67.6507 102.979 68.9913 103.753Z" fill="#2B1E37" fill-opacity="0.08"/>
<path d="M59.282 109.359C60.6225 110.133 62.796 110.133 64.1366 109.359C65.4772 108.585 65.4772 107.33 64.1366 106.556C62.796 105.782 60.6225 105.782 59.282 106.556C57.9414 107.33 57.9414 108.585 59.282 109.359Z" fill="#2B1E37" fill-opacity="0.08"/>
<path d="M117.538 81.3306C118.878 82.1045 121.052 82.1045 122.392 81.3306C123.733 80.5566 123.733 79.3017 122.392 78.5277C121.052 77.7537 118.878 77.7537 117.538 78.5277C116.197 79.3017 116.197 80.5566 117.538 81.3306Z" fill="#2B1E37" fill-opacity="0.08"/>
<path d="M107.828 86.9362C109.169 87.7102 111.343 87.7102 112.683 86.9362C114.024 86.1622 114.024 84.9074 112.683 84.1334C111.343 83.3594 109.169 83.3594 107.828 84.1334C106.488 84.9074 106.488 86.1622 107.828 86.9362Z" fill="#2B1E37" fill-opacity="0.08"/>
<path d="M98.1192 92.5419C99.4597 93.3159 101.633 93.3159 102.974 92.5419C104.314 91.7679 104.314 90.513 102.974 89.7391C101.633 88.9651 99.4597 88.9651 98.1192 89.7391C96.7786 90.513 96.7786 91.7679 98.1192 92.5419Z" fill="#2B1E37" fill-opacity="0.08"/>
<path d="M88.4099 98.1476C89.7504 98.9215 91.9239 98.9215 93.2645 98.1476C94.6051 97.3736 94.6051 96.1187 93.2645 95.3447C91.9239 94.5707 89.7504 94.5707 88.4099 95.3447C87.0693 96.1187 87.0693 97.3736 88.4099 98.1476Z" fill="#2B1E37" fill-opacity="0.08"/>
<path d="M78.7006 103.753C80.0411 104.527 82.2146 104.527 83.5552 103.753C84.8958 102.979 84.8958 101.724 83.5552 100.95C82.2146 100.176 80.0411 100.176 78.7006 100.95C77.36 101.724 77.36 102.979 78.7006 103.753Z" fill="#2B1E37" fill-opacity="0.08"/>
<path d="M68.9913 109.359C70.3318 110.133 72.5053 110.133 73.8459 109.359C75.1865 108.585 75.1865 107.33 73.8459 106.556C72.5053 105.782 70.3318 105.782 68.9913 106.556C67.6507 107.33 67.6507 108.585 68.9913 109.359Z" fill="#2B1E37" fill-opacity="0.08"/>
<path d="M59.282 114.965C60.6225 115.739 62.796 115.739 64.1366 114.965C65.4772 114.191 65.4772 112.936 64.1366 112.162C62.796 111.388 60.6225 111.388 59.282 112.162C57.9414 112.936 57.9414 114.191 59.282 114.965Z" fill="#2B1E37" fill-opacity="0.08"/>
<path d="M127.247 81.3306C128.588 82.1045 130.761 82.1045 132.102 81.3306C133.442 80.5566 133.442 79.3017 132.102 78.5277C130.761 77.7537 128.588 77.7537 127.247 78.5277C125.906 79.3017 125.906 80.5566 127.247 81.3306Z" fill="#2B1E37" fill-opacity="0.08"/>
<path d="M117.538 86.9362C118.878 87.7102 121.052 87.7102 122.392 86.9362C123.733 86.1622 123.733 84.9074 122.392 84.1334C121.052 83.3594 118.878 83.3594 117.538 84.1334C116.197 84.9074 116.197 86.1622 117.538 86.9362Z" fill="#2B1E37" fill-opacity="0.08"/>
<path d="M107.828 92.5419C109.169 93.3159 111.343 93.3159 112.683 92.5419C114.024 91.7679 114.024 90.513 112.683 89.7391C111.343 88.9651 109.169 88.9651 107.828 89.7391C106.488 90.513 106.488 91.7679 107.828 92.5419Z" fill="#2B1E37" fill-opacity="0.08"/>
<path d="M98.1192 98.1476C99.4597 98.9215 101.633 98.9215 102.974 98.1476C104.314 97.3736 104.314 96.1187 102.974 95.3447C101.633 94.5707 99.4597 94.5707 98.1192 95.3447C96.7786 96.1187 96.7786 97.3736 98.1192 98.1476Z" fill="#2B1E37" fill-opacity="0.08"/>
<path d="M88.4099 103.753C89.7504 104.527 91.9239 104.527 93.2645 103.753C94.6051 102.979 94.6051 101.724 93.2645 100.95C91.9239 100.176 89.7504 100.176 88.4099 100.95C87.0693 101.724 87.0693 102.979 88.4099 103.753Z" fill="#2B1E37" fill-opacity="0.08"/>
<path d="M78.7006 109.359C80.0411 110.133 82.2146 110.133 83.5552 109.359C84.8958 108.585 84.8958 107.33 83.5552 106.556C82.2146 105.782 80.0411 105.782 78.7006 106.556C77.36 107.33 77.36 108.585 78.7006 109.359Z" fill="#2B1E37" fill-opacity="0.08"/>
<path d="M68.9913 114.965C70.3318 115.739 72.5053 115.739 73.8459 114.965C75.1865 114.191 75.1865 112.936 73.8459 112.162C72.5053 111.388 70.3318 111.388 68.9913 112.162C67.6507 112.936 67.6507 114.191 68.9913 114.965Z" fill="#2B1E37" fill-opacity="0.08"/>
<path d="M127.247 86.9362C128.588 87.7102 130.761 87.7102 132.102 86.9362C133.442 86.1622 133.442 84.9074 132.102 84.1334C130.761 83.3594 128.588 83.3594 127.247 84.1334C125.906 84.9074 125.906 86.1622 127.247 86.9362Z" fill="#2B1E37" fill-opacity="0.08"/>
<path d="M117.538 92.5419C118.878 93.3159 121.052 93.3159 122.392 92.5419C123.733 91.7679 123.733 90.513 122.392 89.7391C121.052 88.9651 118.878 88.9651 117.538 89.7391C116.197 90.513 116.197 91.7679 117.538 92.5419Z" fill="#2B1E37" fill-opacity="0.08"/>
<path d="M107.828 98.1476C109.169 98.9215 111.343 98.9215 112.683 98.1476C114.024 97.3736 114.024 96.1187 112.683 95.3447C111.343 94.5707 109.169 94.5707 107.828 95.3447C106.488 96.1187 106.488 97.3736 107.828 98.1476Z" fill="#2B1E37" fill-opacity="0.08"/>
<path d="M98.1192 103.753C99.4597 104.527 101.633 104.527 102.974 103.753C104.314 102.979 104.314 101.724 102.974 100.95C101.633 100.176 99.4597 100.176 98.1192 100.95C96.7786 101.724 96.7786 102.979 98.1192 103.753Z" fill="#2B1E37" fill-opacity="0.08"/>
<path d="M88.4099 109.359C89.7504 110.133 91.9239 110.133 93.2645 109.359C94.6051 108.585 94.6051 107.33 93.2645 106.556C91.9239 105.782 89.7504 105.782 88.4099 106.556C87.0693 107.33 87.0693 108.585 88.4099 109.359Z" fill="#2B1E37" fill-opacity="0.08"/>
<path d="M78.7006 114.965C80.0411 115.739 82.2146 115.739 83.5552 114.965C84.8958 114.191 84.8958 112.936 83.5552 112.162C82.2146 111.388 80.0411 111.388 78.7006 112.162C77.36 112.936 77.36 114.191 78.7006 114.965Z" fill="#2B1E37" fill-opacity="0.08"/>
<path d="M68.9913 120.57C70.3318 121.344 72.5053 121.344 73.8459 120.57C75.1865 119.796 75.1865 118.541 73.8459 117.767C72.5053 116.993 70.3318 116.993 68.9913 117.767C67.6507 118.541 67.6507 119.796 68.9913 120.57Z" fill="#2B1E37" fill-opacity="0.08"/>
<path d="M136.956 86.9362C138.297 87.7102 140.47 87.7102 141.811 86.9362C143.152 86.1622 143.152 84.9074 141.811 84.1334C140.47 83.3594 138.297 83.3594 136.956 84.1334C135.616 84.9074 135.616 86.1622 136.956 86.9362Z" fill="#2B1E37" fill-opacity="0.08"/>
<path d="M127.247 92.5419C128.588 93.3159 130.761 93.3159 132.102 92.5419C133.442 91.7679 133.442 90.513 132.102 89.7391C130.761 88.9651 128.588 88.9651 127.247 89.7391C125.906 90.513 125.906 91.7679 127.247 92.5419Z" fill="#2B1E37" fill-opacity="0.08"/>
<path d="M117.538 98.1476C118.878 98.9215 121.052 98.9215 122.392 98.1476C123.733 97.3736 123.733 96.1187 122.392 95.3447C121.052 94.5707 118.878 94.5707 117.538 95.3447C116.197 96.1187 116.197 97.3736 117.538 98.1476Z" fill="#2B1E37" fill-opacity="0.08"/>
<path d="M107.828 103.753C109.169 104.527 111.343 104.527 112.683 103.753C114.024 102.979 114.024 101.724 112.683 100.95C111.343 100.176 109.169 100.176 107.828 100.95C106.488 101.724 106.488 102.979 107.828 103.753Z" fill="#2B1E37" fill-opacity="0.08"/>
<path d="M98.1192 109.359C99.4597 110.133 101.633 110.133 102.974 109.359C104.314 108.585 104.314 107.33 102.974 106.556C101.633 105.782 99.4597 105.782 98.1192 106.556C96.7786 107.33 96.7786 108.585 98.1192 109.359Z" fill="#2B1E37" fill-opacity="0.08"/>
<path d="M88.4099 114.965C89.7504 115.739 91.9239 115.739 93.2645 114.965C94.6051 114.191 94.6051 112.936 93.2645 112.162C91.9239 111.388 89.7504 111.388 88.4099 112.162C87.0693 112.936 87.0693 114.191 88.4099 114.965Z" fill="#2B1E37" fill-opacity="0.08"/>
<path d="M78.7006 120.57C80.0411 121.344 82.2146 121.344 83.5552 120.57C84.8958 119.796 84.8958 118.541 83.5552 117.767C82.2146 116.993 80.0411 116.993 78.7006 117.767C77.36 118.541 77.36 119.796 78.7006 120.57Z" fill="#2B1E37" fill-opacity="0.08"/>
<path d="M136.956 92.5419C138.297 93.3159 140.47 93.3159 141.811 92.5419C143.152 91.7679 143.152 90.513 141.811 89.7391C140.47 88.9651 138.297 88.9651 136.956 89.7391C135.616 90.513 135.616 91.7679 136.956 92.5419Z" fill="#2B1E37" fill-opacity="0.08"/>
<path d="M127.247 98.1476C128.588 98.9215 130.761 98.9215 132.102 98.1476C133.442 97.3736 133.442 96.1187 132.102 95.3447C130.761 94.5707 128.588 94.5707 127.247 95.3447C125.906 96.1187 125.906 97.3736 127.247 98.1476Z" fill="#2B1E37" fill-opacity="0.08"/>
<path d="M117.538 103.753C118.878 104.527 121.052 104.527 122.392 103.753C123.733 102.979 123.733 101.724 122.392 100.95C121.052 100.176 118.878 100.176 117.538 100.95C116.197 101.724 116.197 102.979 117.538 103.753Z" fill="#2B1E37" fill-opacity="0.08"/>
<path d="M107.828 109.359C109.169 110.133 111.343 110.133 112.683 109.359C114.024 108.585 114.024 107.33 112.683 106.556C111.343 105.782 109.169 105.782 107.828 106.556C106.488 107.33 106.488 108.585 107.828 109.359Z" fill="#2B1E37" fill-opacity="0.08"/>
<path d="M98.1192 114.965C99.4597 115.739 101.633 115.739 102.974 114.965C104.314 114.191 104.314 112.936 102.974 112.162C101.633 111.388 99.4597 111.388 98.1192 112.162C96.7786 112.936 96.7786 114.191 98.1192 114.965Z" fill="#2B1E37" fill-opacity="0.08"/>
<path d="M88.4099 120.57C89.7504 121.344 91.9239 121.344 93.2645 120.57C94.6051 119.796 94.6051 118.541 93.2645 117.767C91.9239 116.993 89.7504 116.993 88.4099 117.767C87.0693 118.541 87.0693 119.796 88.4099 120.57Z" fill="#2B1E37" fill-opacity="0.08"/>
<path d="M78.7006 126.176C80.0411 126.95 82.2146 126.95 83.5552 126.176C84.8958 125.402 84.8958 124.147 83.5552 123.373C82.2146 122.599 80.0411 122.599 78.7006 123.373C77.36 124.147 77.36 125.402 78.7006 126.176Z" fill="#2B1E37" fill-opacity="0.08"/>
<path d="M146.666 92.5419C148.006 93.3159 150.18 93.3159 151.52 92.5419C152.861 91.7679 152.861 90.513 151.52 89.7391C150.18 88.9651 148.006 88.9651 146.666 89.7391C145.325 90.513 145.325 91.7679 146.666 92.5419Z" fill="#2B1E37" fill-opacity="0.08"/>
<path d="M136.956 98.1476C138.297 98.9215 140.47 98.9215 141.811 98.1476C143.152 97.3736 143.152 96.1187 141.811 95.3447C140.47 94.5707 138.297 94.5707 136.956 95.3447C135.616 96.1187 135.616 97.3736 136.956 98.1476Z" fill="#2B1E37" fill-opacity="0.08"/>
<path d="M127.247 103.753C128.588 104.527 130.761 104.527 132.102 103.753C133.442 102.979 133.442 101.724 132.102 100.95C130.761 100.176 128.588 100.176 127.247 100.95C125.906 101.724 125.906 102.979 127.247 103.753Z" fill="#2B1E37" fill-opacity="0.08"/>
<path d="M117.538 109.359C118.878 110.133 121.052 110.133 122.392 109.359C123.733 108.585 123.733 107.33 122.392 106.556C121.052 105.782 118.878 105.782 117.538 106.556C116.197 107.33 116.197 108.585 117.538 109.359Z" fill="#2B1E37" fill-opacity="0.08"/>
<path d="M107.828 114.965C109.169 115.739 111.343 115.739 112.683 114.965C114.024 114.191 114.024 112.936 112.683 112.162C111.343 111.388 109.169 111.388 107.828 112.162C106.488 112.936 106.488 114.191 107.828 114.965Z" fill="#2B1E37" fill-opacity="0.08"/>
<path d="M98.1192 120.57C99.4597 121.344 101.633 121.344 102.974 120.57C104.314 119.796 104.314 118.541 102.974 117.767C101.633 116.993 99.4597 116.993 98.1192 117.767C96.7786 118.541 96.7786 119.796 98.1192 120.57Z" fill="#2B1E37" fill-opacity="0.08"/>
<path d="M88.4099 126.176C89.7504 126.95 91.9239 126.95 93.2645 126.176C94.6051 125.402 94.6051 124.147 93.2645 123.373C91.9239 122.599 89.7504 122.599 88.4099 123.373C87.0693 124.147 87.0693 125.402 88.4099 126.176Z" fill="#2B1E37" fill-opacity="0.08"/>
<path d="M146.666 98.1476C148.006 98.9215 150.18 98.9215 151.52 98.1476C152.861 97.3736 152.861 96.1187 151.52 95.3447C150.18 94.5707 148.006 94.5707 146.666 95.3447C145.325 96.1187 145.325 97.3736 146.666 98.1476Z" fill="#2B1E37" fill-opacity="0.08"/>
<path d="M136.956 103.753C138.297 104.527 140.47 104.527 141.811 103.753C143.152 102.979 143.152 101.724 141.811 100.95C140.47 100.176 138.297 100.176 136.956 100.95C135.616 101.724 135.616 102.979 136.956 103.753Z" fill="#2B1E37" fill-opacity="0.08"/>
<path d="M127.247 109.359C128.588 110.133 130.761 110.133 132.102 109.359C133.442 108.585 133.442 107.33 132.102 106.556C130.761 105.782 128.588 105.782 127.247 106.556C125.906 107.33 125.906 108.585 127.247 109.359Z" fill="#2B1E37" fill-opacity="0.08"/>
<path d="M117.538 114.965C118.878 115.739 121.052 115.739 122.392 114.965C123.733 114.191 123.733 112.936 122.392 112.162C121.052 111.388 118.878 111.388 117.538 112.162C116.197 112.936 116.197 114.191 117.538 114.965Z" fill="#2B1E37" fill-opacity="0.08"/>
<path d="M107.828 120.57C109.169 121.344 111.343 121.344 112.683 120.57C114.024 119.796 114.024 118.541 112.683 117.767C111.343 116.993 109.169 116.993 107.828 117.767C106.488 118.541 106.488 119.796 107.828 120.57Z" fill="#2B1E37" fill-opacity="0.08"/>
<path d="M98.1192 126.176C99.4597 126.95 101.633 126.95 102.974 126.176C104.314 125.402 104.314 124.147 102.974 123.373C101.633 122.599 99.4597 122.599 98.1192 123.373C96.7786 124.147 96.7786 125.402 98.1192 126.176Z" fill="#2B1E37" fill-opacity="0.08"/>
<path d="M88.4099 131.782C89.7504 132.556 91.9239 132.556 93.2645 131.782C94.6051 131.008 94.6051 129.753 93.2645 128.979C91.9239 128.205 89.7504 128.205 88.4099 128.979C87.0693 129.753 87.0693 131.008 88.4099 131.782Z" fill="#2B1E37" fill-opacity="0.08"/>
<path d="M156.375 98.1476C157.716 98.9215 159.889 98.9215 161.23 98.1476C162.57 97.3736 162.57 96.1187 161.23 95.3447C159.889 94.5707 157.716 94.5707 156.375 95.3447C155.034 96.1187 155.034 97.3736 156.375 98.1476Z" fill="#2B1E37" fill-opacity="0.08"/>
<path d="M146.666 103.753C148.006 104.527 150.18 104.527 151.52 103.753C152.861 102.979 152.861 101.724 151.52 100.95C150.18 100.176 148.006 100.176 146.666 100.95C145.325 101.724 145.325 102.979 146.666 103.753Z" fill="#2B1E37" fill-opacity="0.08"/>
<path d="M136.956 109.359C138.297 110.133 140.47 110.133 141.811 109.359C143.152 108.585 143.152 107.33 141.811 106.556C140.47 105.782 138.297 105.782 136.956 106.556C135.616 107.33 135.616 108.585 136.956 109.359Z" fill="#2B1E37" fill-opacity="0.08"/>
<path d="M127.247 114.965C128.588 115.739 130.761 115.739 132.102 114.965C133.442 114.191 133.442 112.936 132.102 112.162C130.761 111.388 128.588 111.388 127.247 112.162C125.906 112.936 125.906 114.191 127.247 114.965Z" fill="#2B1E37" fill-opacity="0.08"/>
<path d="M117.538 120.57C118.878 121.344 121.052 121.344 122.392 120.57C123.733 119.796 123.733 118.541 122.392 117.767C121.052 116.993 118.878 116.993 117.538 117.767C116.197 118.541 116.197 119.796 117.538 120.57Z" fill="#2B1E37" fill-opacity="0.08"/>
<path d="M107.828 126.176C109.169 126.95 111.343 126.95 112.683 126.176C114.024 125.402 114.024 124.147 112.683 123.373C111.343 122.599 109.169 122.599 107.828 123.373C106.488 124.147 106.488 125.402 107.828 126.176Z" fill="#2B1E37" fill-opacity="0.08"/>
<path d="M98.1192 131.782C99.4597 132.556 101.633 132.556 102.974 131.782C104.314 131.008 104.314 129.753 102.974 128.979C101.633 128.205 99.4597 128.205 98.1192 128.979C96.7786 129.753 96.7786 131.008 98.1192 131.782Z" fill="#2B1E37" fill-opacity="0.08"/>
<path d="M156.375 103.753C157.716 104.527 159.889 104.527 161.23 103.753C162.57 102.979 162.57 101.724 161.23 100.95C159.889 100.176 157.716 100.176 156.375 100.95C155.034 101.724 155.034 102.979 156.375 103.753Z" fill="#2B1E37" fill-opacity="0.08"/>
<path d="M146.666 109.359C148.006 110.133 150.18 110.133 151.52 109.359C152.861 108.585 152.861 107.33 151.52 106.556C150.18 105.782 148.006 105.782 146.666 106.556C145.325 107.33 145.325 108.585 146.666 109.359Z" fill="#2B1E37" fill-opacity="0.08"/>
<path d="M136.956 114.965C138.297 115.739 140.47 115.739 141.811 114.965C143.152 114.191 143.152 112.936 141.811 112.162C140.47 111.388 138.297 111.388 136.956 112.162C135.616 112.936 135.616 114.191 136.956 114.965Z" fill="#2B1E37" fill-opacity="0.08"/>
<path d="M127.247 120.57C128.588 121.344 130.761 121.344 132.102 120.57C133.442 119.796 133.442 118.541 132.102 117.767C130.761 116.993 128.588 116.993 127.247 117.767C125.906 118.541 125.906 119.796 127.247 120.57Z" fill="#2B1E37" fill-opacity="0.08"/>
<path d="M117.538 126.176C118.878 126.95 121.052 126.95 122.392 126.176C123.733 125.402 123.733 124.147 122.392 123.373C121.052 122.599 118.878 122.599 117.538 123.373C116.197 124.147 116.197 125.402 117.538 126.176Z" fill="#2B1E37" fill-opacity="0.08"/>
<path d="M107.828 131.782C109.169 132.556 111.343 132.556 112.683 131.782C114.024 131.008 114.024 129.753 112.683 128.979C111.343 128.205 109.169 128.205 107.828 128.979C106.488 129.753 106.488 131.008 107.828 131.782Z" fill="#2B1E37" fill-opacity="0.08"/>
<path d="M98.1192 137.387C99.4597 138.161 101.633 138.161 102.974 137.387C104.314 136.613 104.314 135.358 102.974 134.584C101.633 133.81 99.4597 133.81 98.1192 134.584C96.7786 135.358 96.7786 136.613 98.1192 137.387Z" fill="#2B1E37" fill-opacity="0.08"/>
<path d="M166.084 103.753C167.425 104.527 169.598 104.527 170.939 103.753C172.279 102.979 172.279 101.724 170.939 100.95C169.598 100.176 167.425 100.176 166.084 100.95C164.744 101.724 164.744 102.979 166.084 103.753Z" fill="#2B1E37" fill-opacity="0.08"/>
<path d="M156.375 109.359C157.716 110.133 159.889 110.133 161.23 109.359C162.57 108.585 162.57 107.33 161.23 106.556C159.889 105.782 157.716 105.782 156.375 106.556C155.034 107.33 155.034 108.585 156.375 109.359Z" fill="#2B1E37" fill-opacity="0.08"/>
<path d="M146.666 114.965C148.006 115.739 150.18 115.739 151.52 114.965C152.861 114.191 152.861 112.936 151.52 112.162C150.18 111.388 148.006 111.388 146.666 112.162C145.325 112.936 145.325 114.191 146.666 114.965Z" fill="#2B1E37" fill-opacity="0.08"/>
<path d="M136.956 120.57C138.297 121.344 140.47 121.344 141.811 120.57C143.152 119.796 143.152 118.541 141.811 117.767C140.47 116.993 138.297 116.993 136.956 117.767C135.616 118.541 135.616 119.796 136.956 120.57Z" fill="#2B1E37" fill-opacity="0.08"/>
<path d="M127.247 126.176C128.588 126.95 130.761 126.95 132.102 126.176C133.442 125.402 133.442 124.147 132.102 123.373C130.761 122.599 128.588 122.599 127.247 123.373C125.906 124.147 125.906 125.402 127.247 126.176Z" fill="#2B1E37" fill-opacity="0.08"/>
<path d="M117.538 131.782C118.878 132.556 121.052 132.556 122.392 131.782C123.733 131.008 123.733 129.753 122.392 128.979C121.052 128.205 118.878 128.205 117.538 128.979C116.197 129.753 116.197 131.008 117.538 131.782Z" fill="#2B1E37" fill-opacity="0.08"/>
<path d="M107.828 137.387C109.169 138.161 111.343 138.161 112.683 137.387C114.024 136.613 114.024 135.358 112.683 134.584C111.343 133.81 109.169 133.81 107.828 134.584C106.488 135.358 106.488 136.613 107.828 137.387Z" fill="#2B1E37" fill-opacity="0.08"/>
<path d="M166.084 109.359C167.425 110.133 169.598 110.133 170.939 109.359C172.279 108.585 172.279 107.33 170.939 106.556C169.598 105.782 167.425 105.782 166.084 106.556C164.744 107.33 164.744 108.585 166.084 109.359Z" fill="#2B1E37" fill-opacity="0.08"/>
<path d="M156.375 114.965C157.716 115.739 159.889 115.739 161.23 114.965C162.57 114.191 162.57 112.936 161.23 112.162C159.889 111.388 157.716 111.388 156.375 112.162C155.034 112.936 155.034 114.191 156.375 114.965Z" fill="#2B1E37" fill-opacity="0.08"/>
<path d="M146.666 120.57C148.006 121.344 150.18 121.344 151.52 120.57C152.861 119.796 152.861 118.541 151.52 117.767C150.18 116.993 148.006 116.993 146.666 117.767C145.325 118.541 145.325 119.796 146.666 120.57Z" fill="#2B1E37" fill-opacity="0.08"/>
<path d="M136.956 126.176C138.297 126.95 140.47 126.95 141.811 126.176C143.152 125.402 143.152 124.147 141.811 123.373C140.47 122.599 138.297 122.599 136.956 123.373C135.616 124.147 135.616 125.402 136.956 126.176Z" fill="#2B1E37" fill-opacity="0.08"/>
<path d="M127.247 131.782C128.588 132.556 130.761 132.556 132.102 131.782C133.442 131.008 133.442 129.753 132.102 128.979C130.761 128.205 128.588 128.205 127.247 128.979C125.906 129.753 125.906 131.008 127.247 131.782Z" fill="#2B1E37" fill-opacity="0.08"/>
<path d="M117.538 137.387C118.878 138.161 121.052 138.161 122.392 137.387C123.733 136.613 123.733 135.358 122.392 134.584C121.052 133.81 118.878 133.81 117.538 134.584C116.197 135.358 116.197 136.613 117.538 137.387Z" fill="#2B1E37" fill-opacity="0.08"/>
<path d="M107.828 142.993C109.169 143.767 111.343 143.767 112.683 142.993C114.024 142.219 114.024 140.964 112.683 140.19C111.343 139.416 109.169 139.416 107.828 140.19C106.488 140.964 106.488 142.219 107.828 142.993Z" fill="#2B1E37" fill-opacity="0.08"/>
<path d="M175.794 109.359C177.134 110.133 179.308 110.133 180.648 109.359C181.989 108.585 181.989 107.33 180.648 106.556C179.308 105.782 177.134 105.782 175.794 106.556C174.453 107.33 174.453 108.585 175.794 109.359Z" fill="#2B1E37" fill-opacity="0.08"/>
<path d="M166.084 114.965C167.425 115.739 169.598 115.739 170.939 114.965C172.279 114.191 172.279 112.936 170.939 112.162C169.598 111.388 167.425 111.388 166.084 112.162C164.744 112.936 164.744 114.191 166.084 114.965Z" fill="#2B1E37" fill-opacity="0.08"/>
<path d="M156.375 120.57C157.716 121.344 159.889 121.344 161.23 120.57C162.57 119.796 162.57 118.541 161.23 117.767C159.889 116.993 157.716 116.993 156.375 117.767C155.034 118.541 155.034 119.796 156.375 120.57Z" fill="#2B1E37" fill-opacity="0.08"/>
<path d="M146.666 126.176C148.006 126.95 150.18 126.95 151.52 126.176C152.861 125.402 152.861 124.147 151.52 123.373C150.18 122.599 148.006 122.599 146.666 123.373C145.325 124.147 145.325 125.402 146.666 126.176Z" fill="#2B1E37" fill-opacity="0.08"/>
<path d="M136.956 131.782C138.297 132.556 140.47 132.556 141.811 131.782C143.152 131.008 143.152 129.753 141.811 128.979C140.47 128.205 138.297 128.205 136.956 128.979C135.616 129.753 135.616 131.008 136.956 131.782Z" fill="#2B1E37" fill-opacity="0.08"/>
<path d="M127.247 137.387C128.588 138.161 130.761 138.161 132.102 137.387C133.442 136.613 133.442 135.358 132.102 134.584C130.761 133.81 128.588 133.81 127.247 134.584C125.906 135.358 125.906 136.613 127.247 137.387Z" fill="#2B1E37" fill-opacity="0.08"/>
<path d="M117.538 142.993C118.878 143.767 121.052 143.767 122.392 142.993C123.733 142.219 123.733 140.964 122.392 140.19C121.052 139.416 118.878 139.416 117.538 140.19C116.197 140.964 116.197 142.219 117.538 142.993Z" fill="#2B1E37" fill-opacity="0.08"/>
<path d="M175.794 114.965C177.134 115.739 179.308 115.739 180.648 114.965C181.989 114.191 181.989 112.936 180.648 112.162C179.308 111.388 177.134 111.388 175.794 112.162C174.453 112.936 174.453 114.191 175.794 114.965Z" fill="#2B1E37" fill-opacity="0.08"/>
<path d="M166.084 120.57C167.425 121.344 169.598 121.344 170.939 120.57C172.279 119.796 172.279 118.541 170.939 117.767C169.598 116.993 167.425 116.993 166.084 117.767C164.744 118.541 164.744 119.796 166.084 120.57Z" fill="#2B1E37" fill-opacity="0.08"/>
<path d="M156.375 126.176C157.716 126.95 159.889 126.95 161.23 126.176C162.57 125.402 162.57 124.147 161.23 123.373C159.889 122.599 157.716 122.599 156.375 123.373C155.034 124.147 155.034 125.402 156.375 126.176Z" fill="#2B1E37" fill-opacity="0.08"/>
<path d="M146.666 131.782C148.006 132.556 150.18 132.556 151.52 131.782C152.861 131.008 152.861 129.753 151.52 128.979C150.18 128.205 148.006 128.205 146.666 128.979C145.325 129.753 145.325 131.008 146.666 131.782Z" fill="#2B1E37" fill-opacity="0.08"/>
<path d="M136.956 137.387C138.297 138.161 140.47 138.161 141.811 137.387C143.152 136.613 143.152 135.358 141.811 134.584C140.47 133.81 138.297 133.81 136.956 134.584C135.616 135.358 135.616 136.613 136.956 137.387Z" fill="#2B1E37" fill-opacity="0.08"/>
<path d="M127.247 142.993C128.588 143.767 130.761 143.767 132.102 142.993C133.442 142.219 133.442 140.964 132.102 140.19C130.761 139.416 128.588 139.416 127.247 140.19C125.906 140.964 125.906 142.219 127.247 142.993Z" fill="#2B1E37" fill-opacity="0.08"/>
<path d="M117.538 148.599C118.878 149.373 121.052 149.373 122.392 148.599C123.733 147.825 123.733 146.57 122.392 145.796C121.052 145.022 118.878 145.022 117.538 145.796C116.197 146.57 116.197 147.825 117.538 148.599Z" fill="#2B1E37" fill-opacity="0.08"/>
<path fill-rule="evenodd" clip-rule="evenodd" d="M127.226 61.3195C124.546 59.7721 120.2 59.7721 117.52 61.3195L86.5489 79.2006C78.5599 80.4671 71.0142 82.9124 64.737 86.5365C58.4598 90.1606 54.2245 94.5171 52.0309 99.1295L28.3361 112.81C25.9064 114.212 27.3456 116.615 30.7573 116.851L54.6721 118.508C57.0583 121.544 60.4131 124.387 64.7365 126.883C67.8863 128.702 71.3554 130.223 75.0398 131.448L77.6306 143.914C78.04 145.883 82.2013 146.714 84.631 145.312L102.137 135.204C113.952 134.867 125.597 132.093 134.62 126.884C143.644 121.674 148.448 114.951 149.033 108.129L173.815 93.8213C176.495 92.2739 176.495 89.765 173.815 88.2176L127.226 61.3195Z" fill="#23192D" fill-opacity="0.1"/>
<path fill-rule="evenodd" clip-rule="evenodd" d="M118.747 53.0009C121.427 51.4534 125.773 51.4534 128.453 53.0009L175.042 79.8989C177.722 81.4464 177.722 83.9552 175.042 85.5027L85.8581 136.993C83.4284 138.396 79.2671 137.565 78.8577 135.595L73.8355 111.432L31.9843 108.533C27.6027 108.253 28.4351 101.208 28.4351 98.468L118.747 53.0009Z" fill="#C8C7CB"/>
<path fill-rule="evenodd" clip-rule="evenodd" d="M118.747 45.1556C121.427 43.6082 125.773 43.6082 128.453 45.1556L175.042 72.0537C177.722 73.6011 177.722 76.11 175.042 77.6574L85.8582 129.148C83.4285 130.55 79.2672 129.719 78.8578 127.75L73.8356 103.587L31.9844 100.687C28.5728 100.451 27.1335 98.0486 29.5632 96.6458L118.747 45.1556Z" fill="#EEEDEF"/>
<mask id="mask0_626_8773" style="mask-type:alpha" maskUnits="userSpaceOnUse" x="28" y="43" width="150" height="87">
<path fill-rule="evenodd" clip-rule="evenodd" d="M118.747 45.1556C121.427 43.6082 125.773 43.6082 128.453 45.1556L175.042 72.0537C177.722 73.6011 177.722 76.11 175.042 77.6574L85.8582 129.148C83.4285 130.55 79.2672 129.719 78.8578 127.75L73.8356 103.587L31.9844 100.687C28.5728 100.451 27.1335 98.0486 29.5632 96.6458L118.747 45.1556Z" fill="white"/>
</mask>
<g mask="url(#mask0_626_8773)">
<path opacity="0.2" fill-rule="evenodd" clip-rule="evenodd" d="M65.9645 70.3726C46.6666 81.5142 46.6663 99.5779 65.964 110.719C85.2617 121.861 116.55 121.861 135.848 110.72C155.146 99.578 155.145 81.5138 135.847 70.3723C116.55 59.2308 85.2624 59.231 65.9645 70.3726Z" fill="#86848D"/>
</g>
<path fill-rule="evenodd" clip-rule="evenodd" d="M118.747 45.1556C121.427 43.6082 125.773 43.6082 128.453 45.1556L175.042 72.0537C177.722 73.6011 177.722 76.11 175.042 77.6574L85.8582 129.148C83.4285 130.55 79.2672 129.719 78.8578 127.75L73.8356 103.587L31.9844 100.687C28.5728 100.451 27.1335 98.0486 29.5632 96.6458L118.747 45.1556ZM121.214 46.0194L173.546 76.2333C174.692 75.3048 174.544 74.0074 173.101 73.1744L126.512 46.2764C125.069 45.4434 122.822 45.3577 121.214 46.0194ZM173.109 76.5322L171.645 77.3772L119.232 47.1169L39.2133 93.3159L86.0102 96.5581L91.6258 123.576L173.101 76.5367C173.103 76.5352 173.106 76.5337 173.109 76.5322ZM31.5044 97.7666L36.7445 94.7412L83.5415 97.9834L89.1571 125.001L83.917 128.027C83.1071 128.494 81.72 128.218 81.5835 127.561L76.3044 102.162L32.3115 99.1138C31.1743 99.035 30.6945 98.2342 31.5044 97.7666Z" fill="#908E96"/>
<path d="M81.9194 137.633L81.9194 129.239L83.5286 129.785L99.3721 120.991L144.13 95.2458L164.868 82.8227L177.035 75.0977C177.035 77.4993 177.071 82.5897 177.071 83.0083C177.071 84.0523 176.292 84.6948 175.679 85.1496C148.8 100.683 89.0633 135.295 86.5135 136.716C83.9638 138.138 82.3884 137.92 81.9194 137.633Z" fill="#908E96"/>
<path fill-rule="evenodd" clip-rule="evenodd" d="M65.965 64.7686C46.6671 75.9102 46.6668 93.9739 65.9645 105.115C85.2621 116.257 116.55 116.257 135.848 105.116C155.146 93.974 155.146 75.9098 135.848 64.7683C116.55 53.6268 85.2629 53.627 65.965 64.7686Z" fill="#86848D"/>
<path fill-rule="evenodd" clip-rule="evenodd" d="M65.965 61.4067C46.6671 72.5483 46.6668 90.612 65.9645 101.753C85.2621 112.895 116.55 112.895 135.848 101.754C155.146 90.6121 155.146 72.5478 135.848 61.4064C116.55 50.2649 85.2629 50.265 65.965 61.4067Z" fill="#EEEDEF"/>
<path fill-rule="evenodd" clip-rule="evenodd" d="M71.6956 64.7152C55.5626 74.0296 55.5624 89.1307 71.6952 98.445C87.8279 107.759 113.985 107.76 130.118 98.4452C146.251 89.1308 146.25 74.0292 130.117 64.715C113.985 55.4007 87.8286 55.4009 71.6956 64.7152Z" fill="#E9E8EA"/>
<path fill-rule="evenodd" clip-rule="evenodd" d="M72.8724 97.7653C57.3897 88.8264 57.3899 74.3339 72.8728 65.3948C88.3556 56.4558 113.458 56.4557 128.94 65.3946C144.423 74.3335 144.424 88.8265 128.941 97.7656C113.458 106.705 88.355 106.704 72.8724 97.7653ZM71.6952 98.445C55.5624 89.1307 55.5626 74.0296 71.6956 64.7152C87.8286 55.4009 113.985 55.4007 130.117 64.715C146.25 74.0292 146.251 89.1308 130.118 98.4452C113.985 107.76 87.8279 107.759 71.6952 98.445Z" fill="#908E96"/>
<path fill-rule="evenodd" clip-rule="evenodd" d="M65.9651 61.4068C46.6671 72.5484 46.6669 90.6121 65.9646 101.754C85.2622 112.895 116.55 112.896 135.848 101.754C155.146 90.6122 155.146 72.548 135.848 61.4065C116.55 50.265 85.263 50.2652 65.9651 61.4068ZM67.9058 100.633C49.6802 90.1103 49.6804 73.0502 67.9063 62.5276C86.1321 52.0049 115.681 52.0048 133.907 62.5273C152.132 73.0498 152.133 90.1105 133.907 100.633C115.681 111.156 86.1313 111.155 67.9058 100.633ZM70.818 64.2087C54.2003 73.8029 54.2001 89.3577 70.8175 98.9518C87.4349 108.546 114.378 108.546 130.995 98.952C147.613 89.3578 147.612 73.8025 130.995 64.2084C114.377 54.6144 87.4356 54.6145 70.818 64.2087ZM71.7881 98.3914C55.7067 89.1068 55.7069 74.0538 71.7886 64.7691C87.8702 55.4844 113.943 55.4843 130.024 64.7688C146.106 74.0534 146.106 89.1069 130.025 98.3916C113.943 107.676 87.8695 107.676 71.7881 98.3914ZM103.819 69.8122C98.9943 72.5976 98.9943 77.1136 103.819 79.899C108.643 82.6844 116.465 82.6844 121.29 79.899C126.114 77.1136 126.114 72.5976 121.29 69.8122C116.465 67.0269 108.643 67.0269 103.819 69.8122ZM73.8687 77.0168C80.0715 73.4356 90.1283 73.4356 96.3312 77.0168L108.81 84.2216C115.013 87.8028 115.013 93.6091 108.81 97.1903L106.315 98.6313C104.936 99.4271 102.701 99.4271 101.323 98.6313L71.3729 81.3397C69.9944 80.5439 69.9944 79.2536 71.3729 78.4577L73.8687 77.0168Z" fill="#908E96"/>
<path fill-rule="evenodd" clip-rule="evenodd" d="M183.91 50.0765V45.7421L185.918 46.9016C186.411 47.1862 186.811 46.9555 186.811 46.3863V27.8337C186.811 27.2645 186.411 26.5723 185.918 26.2876L160.925 11.8579C160.432 11.5732 160.032 11.804 160.032 12.3732V15.4653L159.14 14.95V11.8579C159.14 10.7194 159.939 10.2579 160.925 10.8272L185.918 25.2569C186.904 25.8262 187.703 27.2106 187.703 28.349V46.9016C187.703 48.0401 186.904 48.5015 185.918 47.9323L184.802 47.2881V52.6993L179.67 45.1265V43.8208L183.91 50.0765ZM156.908 14.6923L142.627 6.4467C141.641 5.87746 140.841 6.33892 140.841 7.4774V26.03C140.841 27.1684 141.641 28.5528 142.627 29.1221L143.742 29.7662V35.1774L149.321 33.388V32.1486C149.2 32.1437 149.085 32.1581 148.978 32.1924L144.635 33.5854V29.2509L142.627 28.0914C142.134 27.8067 141.734 27.1146 141.734 26.5453V7.99275C141.734 7.42351 142.134 7.19278 142.627 7.4774L156.908 15.723L159.14 17.0114L160.032 17.5267L161.371 18.2997L167.62 21.9072C168.113 22.1918 168.512 22.884 168.512 23.4532V28.0914L169.405 28.6067V23.9686C169.405 22.8301 168.606 21.4457 167.62 20.8765L161.371 17.269L160.032 16.496L159.14 15.9807L156.908 14.6923ZM159.14 18.0421L160.032 18.5574V21.1342V24.2262V25.2569V28.8644V30.9258C160.032 31.495 160.432 32.1872 160.925 32.4718L167.62 36.337V37.3676L160.925 33.5025C159.939 32.9333 159.14 31.5489 159.14 30.4104V28.349V24.7416V23.7109V20.6188V18.0421ZM158.247 23.1955L151.999 19.5881C151.013 19.0189 150.214 19.4803 150.214 20.6188V29.3797V32.4718V33.5025V37.11V39.1714C150.214 40.3098 151.013 41.6942 151.999 42.2635L153.115 42.9076V48.3188L158.898 46.4638C159.055 46.4135 159.248 46.4485 159.446 46.5631L176.992 56.6932C177.978 57.2625 178.777 56.801 178.777 55.6625V47.417V43.8721V42.8094V39.6867V37.11C178.777 35.9715 177.978 34.5871 176.992 34.0179L172.083 31.1835L169.405 29.6374L168.512 29.1221L167.62 28.6067L160.925 24.7416V25.7723L167.62 29.6374L168.512 30.1528L169.405 30.6681L172.083 32.2142L176.992 35.0486C177.485 35.3332 177.885 36.0254 177.885 36.5946V39.1714V42.2635V43.2942V46.9016V55.1472C177.885 55.7164 177.485 55.9472 176.992 55.6625L159.446 45.5324C159.049 45.3032 158.663 45.2333 158.35 45.3338L154.007 46.7268V42.3923L151.999 41.2328C151.506 40.9481 151.106 40.256 151.106 39.6867V37.6253V34.0179V32.9872V29.8951V21.1341C151.106 20.5649 151.506 20.3342 151.999 20.6188L158.247 24.2262V23.1955ZM169.405 31.6988V34.2756V37.3676V38.3983V42.0058V42.5211C169.405 43.6596 168.606 44.1211 167.62 43.5518L151.999 34.5332V33.5025L167.62 42.5211C168.113 42.8058 168.512 42.575 168.512 42.0058V41.4904V37.883V36.8523V33.7602V31.1835L169.405 31.6988ZM176.992 42.7788V41.7481L170.297 37.883V38.9137L176.992 42.7788Z" fill="#908E96"/>
</g>
<defs>
<clipPath id="clip0_626_8773">
<rect width="200" height="150" fill="white"/>
</clipPath>
</defs>
</svg>
