<svg width="224" height="185" viewBox="0 0 224 185" fill="none" xmlns="http://www.w3.org/2000/svg">
    <g clip-path="url(#clip0_3793_19941)">
        <path d="M90.691 52.8339L7.19467 104.588C4.66251 106.158 4.67323 109.845 7.21446 111.4L53.1141 139.482" stroke="#050013" stroke-opacity="0.22" stroke-dasharray="2 3"/>
        <path d="M142.28 122.484C141.335 123.081 139.802 123.081 138.857 122.484C137.911 121.886 137.911 120.916 138.857 120.319C139.802 119.721 141.335 119.721 142.28 120.319C143.226 120.916 143.226 121.886 142.28 122.484Z" fill="#EEEDEF"/>
        <path d="M149.128 126.813C148.182 127.411 146.649 127.411 145.704 126.813C144.758 126.216 144.758 125.246 145.704 124.649C146.649 124.051 148.182 124.051 149.128 124.649C150.073 125.246 150.073 126.216 149.128 126.813Z" fill="#EEEDEF"/>
        <path d="M155.975 131.143C155.03 131.741 153.497 131.741 152.551 131.143C151.606 130.545 151.606 129.576 152.551 128.978C153.497 128.381 155.03 128.381 155.975 128.978C156.92 129.576 156.92 130.545 155.975 131.143Z" fill="#EEEDEF"/>
        <path d="M162.822 135.473C161.877 136.071 160.344 136.071 159.399 135.473C158.453 134.875 158.453 133.906 159.399 133.308C160.344 132.71 161.877 132.71 162.822 133.308C163.768 133.906 163.768 134.875 162.822 135.473Z" fill="#EEEDEF"/>
        <path d="M169.67 139.803C168.724 140.401 167.191 140.401 166.246 139.803C165.301 139.205 165.301 138.236 166.246 137.638C167.191 137.04 168.724 137.04 169.67 137.638C170.615 138.236 170.615 139.205 169.67 139.803Z" fill="#EEEDEF"/>
        <path d="M176.517 144.133C175.572 144.731 174.039 144.731 173.093 144.133C172.148 143.535 172.148 142.566 173.093 141.968C174.039 141.37 175.572 141.37 176.517 141.968C177.462 142.566 177.462 143.535 176.517 144.133Z" fill="#EEEDEF"/>
        <path d="M183.364 148.463C182.419 149.06 180.886 149.06 179.941 148.463C178.995 147.865 178.995 146.896 179.941 146.298C180.886 145.7 182.419 145.7 183.364 146.298C184.31 146.896 184.31 147.865 183.364 148.463Z" fill="#EEEDEF"/>
        <path d="M142.28 126.813C141.335 127.411 139.802 127.411 138.857 126.813C137.911 126.216 137.911 125.246 138.857 124.649C139.802 124.051 141.335 124.051 142.28 124.649C143.226 125.246 143.226 126.216 142.28 126.813Z" fill="#EEEDEF"/>
        <path d="M149.128 131.143C148.182 131.741 146.649 131.741 145.704 131.143C144.758 130.545 144.758 129.576 145.704 128.978C146.649 128.381 148.182 128.381 149.128 128.978C150.073 129.576 150.073 130.545 149.128 131.143Z" fill="#EEEDEF"/>
        <path d="M155.975 135.473C155.03 136.071 153.497 136.071 152.551 135.473C151.606 134.875 151.606 133.906 152.551 133.308C153.497 132.71 155.03 132.71 155.975 133.308C156.92 133.906 156.92 134.875 155.975 135.473Z" fill="#EEEDEF"/>
        <path d="M162.822 139.803C161.877 140.401 160.344 140.401 159.399 139.803C158.453 139.205 158.453 138.236 159.399 137.638C160.344 137.04 161.877 137.04 162.822 137.638C163.768 138.236 163.768 139.205 162.822 139.803Z" fill="#EEEDEF"/>
        <path d="M169.67 144.133C168.724 144.731 167.191 144.731 166.246 144.133C165.301 143.535 165.301 142.566 166.246 141.968C167.191 141.37 168.724 141.37 169.67 141.968C170.615 142.566 170.615 143.535 169.67 144.133Z" fill="#EEEDEF"/>
        <path d="M176.517 148.463C175.572 149.06 174.039 149.06 173.093 148.463C172.148 147.865 172.148 146.896 173.093 146.298C174.039 145.7 175.572 145.7 176.517 146.298C177.462 146.896 177.462 147.865 176.517 148.463Z" fill="#EEEDEF"/>
        <path d="M183.364 152.792C182.419 153.39 180.886 153.39 179.941 152.792C178.995 152.195 178.995 151.225 179.941 150.628C180.886 150.03 182.419 150.03 183.364 150.628C184.31 151.225 184.31 152.195 183.364 152.792Z" fill="#EEEDEF"/>
        <path d="M135.433 126.813C134.487 127.411 132.955 127.411 132.009 126.813C131.064 126.216 131.064 125.246 132.009 124.649C132.955 124.051 134.487 124.051 135.433 124.649C136.378 125.246 136.378 126.216 135.433 126.813Z" fill="#EEEDEF"/>
        <path d="M142.28 131.143C141.335 131.741 139.802 131.741 138.857 131.143C137.911 130.545 137.911 129.576 138.857 128.978C139.802 128.381 141.335 128.381 142.28 128.978C143.226 129.576 143.226 130.545 142.28 131.143Z" fill="#EEEDEF"/>
        <path d="M149.128 135.473C148.182 136.071 146.649 136.071 145.704 135.473C144.758 134.875 144.758 133.906 145.704 133.308C146.649 132.71 148.182 132.71 149.128 133.308C150.073 133.906 150.073 134.875 149.128 135.473Z" fill="#EEEDEF"/>
        <path d="M155.975 139.803C155.03 140.401 153.497 140.401 152.551 139.803C151.606 139.205 151.606 138.236 152.551 137.638C153.497 137.04 155.03 137.04 155.975 137.638C156.92 138.236 156.92 139.205 155.975 139.803Z" fill="#EEEDEF"/>
        <path d="M162.822 144.133C161.877 144.731 160.344 144.731 159.399 144.133C158.453 143.535 158.453 142.566 159.399 141.968C160.344 141.37 161.877 141.37 162.822 141.968C163.768 142.566 163.768 143.535 162.822 144.133Z" fill="#EEEDEF"/>
        <path d="M169.67 148.463C168.724 149.06 167.191 149.06 166.246 148.463C165.301 147.865 165.301 146.896 166.246 146.298C167.191 145.7 168.724 145.7 169.67 146.298C170.615 146.896 170.615 147.865 169.67 148.463Z" fill="#EEEDEF"/>
        <path d="M176.517 152.792C175.572 153.39 174.039 153.39 173.093 152.792C172.148 152.195 172.148 151.225 173.093 150.628C174.039 150.03 175.572 150.03 176.517 150.628C177.462 151.225 177.462 152.195 176.517 152.792Z" fill="#EEEDEF"/>
        <path d="M135.433 131.143C134.487 131.741 132.955 131.741 132.009 131.143C131.064 130.545 131.064 129.576 132.009 128.978C132.955 128.381 134.487 128.381 135.433 128.978C136.378 129.576 136.378 130.545 135.433 131.143Z" fill="#EEEDEF"/>
        <path d="M142.28 135.473C141.335 136.071 139.802 136.071 138.857 135.473C137.911 134.875 137.911 133.906 138.857 133.308C139.802 132.71 141.335 132.71 142.28 133.308C143.226 133.906 143.226 134.875 142.28 135.473Z" fill="#EEEDEF"/>
        <path d="M149.128 139.803C148.182 140.401 146.649 140.401 145.704 139.803C144.758 139.205 144.758 138.236 145.704 137.638C146.649 137.04 148.182 137.04 149.128 137.638C150.073 138.236 150.073 139.205 149.128 139.803Z" fill="#EEEDEF"/>
        <path d="M155.975 144.133C155.03 144.731 153.497 144.731 152.551 144.133C151.606 143.535 151.606 142.566 152.551 141.968C153.497 141.37 155.03 141.37 155.975 141.968C156.92 142.566 156.92 143.535 155.975 144.133Z" fill="#EEEDEF"/>
        <path d="M162.822 148.463C161.877 149.06 160.344 149.06 159.399 148.463C158.453 147.865 158.453 146.896 159.399 146.298C160.344 145.7 161.877 145.7 162.822 146.298C163.768 146.896 163.768 147.865 162.822 148.463Z" fill="#EEEDEF"/>
        <path d="M169.67 152.792C168.724 153.39 167.191 153.39 166.246 152.792C165.301 152.195 165.301 151.225 166.246 150.628C167.191 150.03 168.724 150.03 169.67 150.628C170.615 151.225 170.615 152.195 169.67 152.792Z" fill="#EEEDEF"/>
        <path d="M176.517 157.122C175.572 157.72 174.039 157.72 173.093 157.122C172.148 156.524 172.148 155.555 173.093 154.957C174.039 154.36 175.572 154.36 176.517 154.957C177.462 155.555 177.462 156.524 176.517 157.122Z" fill="#EEEDEF"/>
        <path d="M128.585 131.143C127.64 131.741 126.107 131.741 125.162 131.143C124.216 130.545 124.216 129.576 125.162 128.978C126.107 128.381 127.64 128.381 128.585 128.978C129.531 129.576 129.531 130.545 128.585 131.143Z" fill="#EEEDEF"/>
        <path d="M135.433 135.473C134.487 136.071 132.955 136.071 132.009 135.473C131.064 134.875 131.064 133.906 132.009 133.308C132.955 132.71 134.487 132.71 135.433 133.308C136.378 133.906 136.378 134.875 135.433 135.473Z" fill="#EEEDEF"/>
        <path d="M142.28 139.803C141.335 140.401 139.802 140.401 138.857 139.803C137.911 139.205 137.911 138.236 138.857 137.638C139.802 137.04 141.335 137.04 142.28 137.638C143.226 138.236 143.226 139.205 142.28 139.803Z" fill="#EEEDEF"/>
        <path d="M149.128 144.133C148.182 144.731 146.649 144.731 145.704 144.133C144.758 143.535 144.758 142.566 145.704 141.968C146.649 141.37 148.182 141.37 149.128 141.968C150.073 142.566 150.073 143.535 149.128 144.133Z" fill="#EEEDEF"/>
        <path d="M155.975 148.463C155.03 149.06 153.497 149.06 152.551 148.463C151.606 147.865 151.606 146.896 152.551 146.298C153.497 145.7 155.03 145.7 155.975 146.298C156.92 146.896 156.92 147.865 155.975 148.463Z" fill="#EEEDEF"/>
        <path d="M162.822 152.792C161.877 153.39 160.344 153.39 159.399 152.792C158.453 152.195 158.453 151.225 159.399 150.628C160.344 150.03 161.877 150.03 162.822 150.628C163.768 151.225 163.768 152.195 162.822 152.792Z" fill="#EEEDEF"/>
        <path d="M169.67 157.122C168.724 157.72 167.191 157.72 166.246 157.122C165.301 156.524 165.301 155.555 166.246 154.957C167.191 154.36 168.724 154.36 169.67 154.957C170.615 155.555 170.615 156.524 169.67 157.122Z" fill="#EEEDEF"/>
        <path d="M128.585 135.473C127.64 136.071 126.107 136.071 125.162 135.473C124.216 134.875 124.216 133.906 125.162 133.308C126.107 132.71 127.64 132.71 128.585 133.308C129.531 133.906 129.531 134.875 128.585 135.473Z" fill="#EEEDEF"/>
        <path d="M135.433 139.803C134.487 140.401 132.955 140.401 132.009 139.803C131.064 139.205 131.064 138.236 132.009 137.638C132.955 137.04 134.487 137.04 135.433 137.638C136.378 138.236 136.378 139.205 135.433 139.803Z" fill="#EEEDEF"/>
        <path d="M142.28 144.133C141.335 144.731 139.802 144.731 138.857 144.133C137.911 143.535 137.911 142.566 138.857 141.968C139.802 141.37 141.335 141.37 142.28 141.968C143.226 142.566 143.226 143.535 142.28 144.133Z" fill="#EEEDEF"/>
        <path d="M149.128 148.463C148.182 149.06 146.649 149.06 145.704 148.463C144.758 147.865 144.758 146.896 145.704 146.298C146.649 145.7 148.182 145.7 149.128 146.298C150.073 146.896 150.073 147.865 149.128 148.463Z" fill="#EEEDEF"/>
        <path d="M155.975 152.792C155.029 153.39 153.497 153.39 152.551 152.792C151.606 152.195 151.606 151.225 152.551 150.628C153.497 150.03 155.03 150.03 155.975 150.628C156.92 151.225 156.92 152.195 155.975 152.792Z" fill="#EEEDEF"/>
        <path d="M162.822 157.122C161.877 157.72 160.344 157.72 159.399 157.122C158.453 156.524 158.453 155.555 159.399 154.957C160.344 154.36 161.877 154.36 162.822 154.957C163.768 155.555 163.768 156.524 162.822 157.122Z" fill="#EEEDEF"/>
        <path d="M169.67 161.452C168.724 162.05 167.191 162.05 166.246 161.452C165.301 160.854 165.301 159.885 166.246 159.287C167.191 158.689 168.724 158.689 169.67 159.287C170.615 159.885 170.615 160.854 169.67 161.452Z" fill="#EEEDEF"/>
        <path d="M121.738 135.473C120.793 136.071 119.26 136.071 118.314 135.473C117.369 134.875 117.369 133.906 118.314 133.308C119.26 132.71 120.793 132.71 121.738 133.308C122.684 133.906 122.684 134.875 121.738 135.473Z" fill="#EEEDEF"/>
        <path d="M128.585 139.803C127.64 140.401 126.107 140.401 125.162 139.803C124.216 139.205 124.216 138.236 125.162 137.638C126.107 137.04 127.64 137.04 128.585 137.638C129.531 138.236 129.531 139.205 128.585 139.803Z" fill="#EEEDEF"/>
        <path d="M135.433 144.133C134.487 144.731 132.955 144.731 132.009 144.133C131.064 143.535 131.064 142.566 132.009 141.968C132.955 141.37 134.487 141.37 135.433 141.968C136.378 142.566 136.378 143.535 135.433 144.133Z" fill="#EEEDEF"/>
        <path d="M142.28 148.463C141.335 149.06 139.802 149.06 138.857 148.463C137.911 147.865 137.911 146.896 138.857 146.298C139.802 145.7 141.335 145.7 142.28 146.298C143.226 146.896 143.226 147.865 142.28 148.463Z" fill="#EEEDEF"/>
        <path d="M149.128 152.792C148.182 153.39 146.649 153.39 145.704 152.792C144.758 152.195 144.758 151.225 145.704 150.628C146.649 150.03 148.182 150.03 149.128 150.628C150.073 151.225 150.073 152.195 149.128 152.792Z" fill="#EEEDEF"/>
        <path d="M155.975 157.122C155.03 157.72 153.497 157.72 152.551 157.122C151.606 156.524 151.606 155.555 152.551 154.957C153.497 154.36 155.03 154.36 155.975 154.957C156.92 155.555 156.92 156.524 155.975 157.122Z" fill="#EEEDEF"/>
        <path d="M162.822 161.452C161.877 162.05 160.344 162.05 159.399 161.452C158.453 160.854 158.453 159.885 159.399 159.287C160.344 158.689 161.877 158.689 162.822 159.287C163.768 159.885 163.768 160.854 162.822 161.452Z" fill="#EEEDEF"/>
        <path d="M121.738 139.803C120.793 140.401 119.26 140.401 118.314 139.803C117.369 139.205 117.369 138.236 118.314 137.638C119.26 137.04 120.793 137.04 121.738 137.638C122.684 138.236 122.684 139.205 121.738 139.803Z" fill="#EEEDEF"/>
        <path d="M128.585 144.133C127.64 144.731 126.107 144.731 125.162 144.133C124.216 143.535 124.216 142.566 125.162 141.968C126.107 141.37 127.64 141.37 128.585 141.968C129.531 142.566 129.531 143.535 128.585 144.133Z" fill="#EEEDEF"/>
        <path d="M135.433 148.463C134.487 149.06 132.955 149.06 132.009 148.463C131.064 147.865 131.064 146.896 132.009 146.298C132.955 145.7 134.487 145.7 135.433 146.298C136.378 146.896 136.378 147.865 135.433 148.463Z" fill="#EEEDEF"/>
        <path d="M142.28 152.792C141.335 153.39 139.802 153.39 138.857 152.792C137.911 152.195 137.911 151.225 138.857 150.628C139.802 150.03 141.335 150.03 142.28 150.628C143.226 151.225 143.226 152.195 142.28 152.792Z" fill="#EEEDEF"/>
        <path d="M149.128 157.122C148.182 157.72 146.649 157.72 145.704 157.122C144.758 156.524 144.758 155.555 145.704 154.957C146.649 154.36 148.182 154.36 149.128 154.957C150.073 155.555 150.073 156.524 149.128 157.122Z" fill="#EEEDEF"/>
        <path d="M155.975 161.452C155.03 162.05 153.497 162.05 152.551 161.452C151.606 160.854 151.606 159.885 152.551 159.287C153.497 158.689 155.03 158.689 155.975 159.287C156.92 159.885 156.92 160.854 155.975 161.452Z" fill="#EEEDEF"/>
        <path d="M162.822 165.782C161.877 166.38 160.344 166.38 159.399 165.782C158.453 165.184 158.453 164.215 159.399 163.617C160.344 163.019 161.877 163.019 162.822 163.617C163.768 164.215 163.768 165.184 162.822 165.782Z" fill="#EEEDEF"/>
        <path d="M114.891 139.803C113.945 140.401 112.412 140.401 111.467 139.803C110.522 139.205 110.522 138.236 111.467 137.638C112.412 137.04 113.945 137.04 114.891 137.638C115.836 138.236 115.836 139.205 114.891 139.803Z" fill="#EEEDEF"/>
        <path d="M121.738 144.133C120.793 144.731 119.26 144.731 118.314 144.133C117.369 143.535 117.369 142.566 118.314 141.968C119.26 141.37 120.793 141.37 121.738 141.968C122.684 142.566 122.684 143.535 121.738 144.133Z" fill="#EEEDEF"/>
        <path d="M128.585 148.463C127.64 149.06 126.107 149.06 125.162 148.463C124.216 147.865 124.216 146.896 125.162 146.298C126.107 145.7 127.64 145.7 128.585 146.298C129.531 146.896 129.531 147.865 128.585 148.463Z" fill="#EEEDEF"/>
        <path d="M135.433 152.792C134.487 153.39 132.955 153.39 132.009 152.792C131.064 152.195 131.064 151.225 132.009 150.628C132.955 150.03 134.487 150.03 135.433 150.628C136.378 151.225 136.378 152.195 135.433 152.792Z" fill="#EEEDEF"/>
        <path d="M142.28 157.122C141.335 157.72 139.802 157.72 138.857 157.122C137.911 156.524 137.911 155.555 138.857 154.957C139.802 154.36 141.335 154.36 142.28 154.957C143.226 155.555 143.226 156.524 142.28 157.122Z" fill="#EEEDEF"/>
        <path d="M149.128 161.452C148.182 162.05 146.649 162.05 145.704 161.452C144.758 160.854 144.758 159.885 145.704 159.287C146.649 158.689 148.182 158.689 149.128 159.287C150.073 159.885 150.073 160.854 149.128 161.452Z" fill="#EEEDEF"/>
        <path d="M155.975 165.782C155.03 166.38 153.497 166.38 152.551 165.782C151.606 165.184 151.606 164.215 152.551 163.617C153.497 163.019 155.029 163.019 155.975 163.617C156.92 164.215 156.92 165.184 155.975 165.782Z" fill="#EEEDEF"/>
        <path d="M114.891 144.133C113.945 144.731 112.412 144.731 111.467 144.133C110.522 143.535 110.522 142.566 111.467 141.968C112.412 141.37 113.945 141.37 114.891 141.968C115.836 142.566 115.836 143.535 114.891 144.133Z" fill="#EEEDEF"/>
        <path d="M121.738 148.463C120.793 149.06 119.26 149.06 118.314 148.463C117.369 147.865 117.369 146.896 118.314 146.298C119.26 145.7 120.793 145.7 121.738 146.298C122.684 146.896 122.684 147.865 121.738 148.463Z" fill="#EEEDEF"/>
        <path d="M128.585 152.792C127.64 153.39 126.107 153.39 125.162 152.792C124.216 152.195 124.216 151.225 125.162 150.628C126.107 150.03 127.64 150.03 128.585 150.628C129.531 151.225 129.531 152.195 128.585 152.792Z" fill="#EEEDEF"/>
        <path d="M135.433 157.122C134.487 157.72 132.955 157.72 132.009 157.122C131.064 156.524 131.064 155.555 132.009 154.957C132.955 154.36 134.487 154.36 135.433 154.957C136.378 155.555 136.378 156.524 135.433 157.122Z" fill="#EEEDEF"/>
        <path d="M142.28 161.452C141.335 162.05 139.802 162.05 138.857 161.452C137.911 160.854 137.911 159.885 138.857 159.287C139.802 158.689 141.335 158.689 142.28 159.287C143.226 159.885 143.226 160.854 142.28 161.452Z" fill="#EEEDEF"/>
        <path d="M149.128 165.782C148.182 166.38 146.649 166.38 145.704 165.782C144.758 165.184 144.758 164.215 145.704 163.617C146.649 163.019 148.182 163.019 149.128 163.617C150.073 164.215 150.073 165.184 149.128 165.782Z" fill="#EEEDEF"/>
        <path d="M155.975 170.112C155.029 170.71 153.497 170.71 152.551 170.112C151.606 169.514 151.606 168.545 152.551 167.947C153.497 167.349 155.029 167.349 155.975 167.947C156.92 168.545 156.92 169.514 155.975 170.112Z" fill="#EEEDEF"/>
        <path d="M108.043 144.133C107.098 144.731 105.565 144.731 104.62 144.133C103.674 143.535 103.674 142.566 104.62 141.968C105.565 141.37 107.098 141.37 108.043 141.968C108.989 142.566 108.989 143.535 108.043 144.133Z" fill="#EEEDEF"/>
        <path d="M114.891 148.463C113.945 149.06 112.412 149.06 111.467 148.463C110.522 147.865 110.522 146.896 111.467 146.298C112.412 145.7 113.945 145.7 114.891 146.298C115.836 146.896 115.836 147.865 114.891 148.463Z" fill="#EEEDEF"/>
        <path d="M121.738 152.792C120.793 153.39 119.26 153.39 118.314 152.792C117.369 152.195 117.369 151.225 118.314 150.628C119.26 150.03 120.793 150.03 121.738 150.628C122.684 151.225 122.684 152.195 121.738 152.792Z" fill="#EEEDEF"/>
        <path d="M128.585 157.122C127.64 157.72 126.107 157.72 125.162 157.122C124.216 156.524 124.216 155.555 125.162 154.957C126.107 154.36 127.64 154.36 128.585 154.957C129.531 155.555 129.531 156.524 128.585 157.122Z" fill="#EEEDEF"/>
        <path d="M135.433 161.452C134.487 162.05 132.955 162.05 132.009 161.452C131.064 160.854 131.064 159.885 132.009 159.287C132.955 158.689 134.487 158.689 135.433 159.287C136.378 159.885 136.378 160.854 135.433 161.452Z" fill="#EEEDEF"/>
        <path d="M142.28 165.782C141.335 166.38 139.802 166.38 138.857 165.782C137.911 165.184 137.911 164.215 138.857 163.617C139.802 163.019 141.335 163.019 142.28 163.617C143.226 164.215 143.226 165.184 142.28 165.782Z" fill="#EEEDEF"/>
        <path d="M149.128 170.112C148.182 170.71 146.649 170.71 145.704 170.112C144.758 169.514 144.758 168.545 145.704 167.947C146.649 167.349 148.182 167.349 149.128 167.947C150.073 168.545 150.073 169.514 149.128 170.112Z" fill="#EEEDEF"/>
        <path d="M108.043 148.463C107.098 149.06 105.565 149.06 104.62 148.463C103.674 147.865 103.674 146.896 104.62 146.298C105.565 145.7 107.098 145.7 108.043 146.298C108.989 146.896 108.989 147.865 108.043 148.463Z" fill="#EEEDEF"/>
        <path d="M114.891 152.792C113.945 153.39 112.412 153.39 111.467 152.792C110.522 152.195 110.522 151.225 111.467 150.628C112.412 150.03 113.945 150.03 114.891 150.628C115.836 151.225 115.836 152.195 114.891 152.792Z" fill="#EEEDEF"/>
        <path d="M121.738 157.122C120.793 157.72 119.26 157.72 118.314 157.122C117.369 156.524 117.369 155.555 118.314 154.957C119.26 154.36 120.793 154.36 121.738 154.957C122.684 155.555 122.684 156.524 121.738 157.122Z" fill="#EEEDEF"/>
        <path d="M128.585 161.452C127.64 162.05 126.107 162.05 125.162 161.452C124.216 160.854 124.216 159.885 125.162 159.287C126.107 158.689 127.64 158.689 128.585 159.287C129.531 159.885 129.531 160.854 128.585 161.452Z" fill="#EEEDEF"/>
        <path d="M135.433 165.782C134.487 166.38 132.955 166.38 132.009 165.782C131.064 165.184 131.064 164.215 132.009 163.617C132.955 163.019 134.487 163.019 135.433 163.617C136.378 164.215 136.378 165.184 135.433 165.782Z" fill="#EEEDEF"/>
        <path d="M142.28 170.112C141.335 170.71 139.802 170.71 138.857 170.112C137.911 169.514 137.911 168.545 138.857 167.947C139.802 167.349 141.335 167.349 142.28 167.947C143.226 168.545 143.226 169.514 142.28 170.112Z" fill="#EEEDEF"/>
        <path d="M149.128 174.442C148.182 175.039 146.649 175.039 145.704 174.442C144.758 173.844 144.758 172.875 145.704 172.277C146.649 171.679 148.182 171.679 149.128 172.277C150.073 172.875 150.073 173.844 149.128 174.442Z" fill="#EEEDEF"/>
        <path d="M101.196 148.463C100.251 149.06 98.7178 149.06 97.7723 148.463C96.8269 147.865 96.8269 146.896 97.7723 146.298C98.7178 145.7 100.251 145.7 101.196 146.298C102.141 146.896 102.141 147.865 101.196 148.463Z" fill="#EEEDEF"/>
        <path d="M108.043 152.792C107.098 153.39 105.565 153.39 104.62 152.792C103.674 152.195 103.674 151.225 104.62 150.628C105.565 150.03 107.098 150.03 108.043 150.628C108.989 151.225 108.989 152.195 108.043 152.792Z" fill="#EEEDEF"/>
        <path d="M114.891 157.122C113.945 157.72 112.412 157.72 111.467 157.122C110.522 156.524 110.522 155.555 111.467 154.957C112.412 154.36 113.945 154.36 114.891 154.957C115.836 155.555 115.836 156.524 114.891 157.122Z" fill="#EEEDEF"/>
        <path d="M121.738 161.452C120.793 162.05 119.26 162.05 118.314 161.452C117.369 160.854 117.369 159.885 118.314 159.287C119.26 158.689 120.793 158.689 121.738 159.287C122.684 159.885 122.684 160.854 121.738 161.452Z" fill="#EEEDEF"/>
        <path d="M128.585 165.782C127.64 166.38 126.107 166.38 125.162 165.782C124.216 165.184 124.216 164.215 125.162 163.617C126.107 163.019 127.64 163.019 128.585 163.617C129.531 164.215 129.531 165.184 128.585 165.782Z" fill="#EEEDEF"/>
        <path d="M135.433 170.112C134.487 170.71 132.955 170.71 132.009 170.112C131.064 169.514 131.064 168.545 132.009 167.947C132.955 167.349 134.487 167.349 135.433 167.947C136.378 168.545 136.378 169.514 135.433 170.112Z" fill="#EEEDEF"/>
        <path d="M142.28 174.442C141.335 175.039 139.802 175.039 138.857 174.442C137.911 173.844 137.911 172.875 138.857 172.277C139.802 171.679 141.335 171.679 142.28 172.277C143.226 172.875 143.226 173.844 142.28 174.442Z" fill="#EEEDEF"/>
        <path d="M101.196 152.792C100.251 153.39 98.7178 153.39 97.7723 152.792C96.8269 152.195 96.8269 151.225 97.7723 150.628C98.7178 150.03 100.251 150.03 101.196 150.628C102.141 151.225 102.141 152.195 101.196 152.792Z" fill="#EEEDEF"/>
        <path d="M108.043 157.122C107.098 157.72 105.565 157.72 104.62 157.122C103.674 156.524 103.674 155.555 104.62 154.957C105.565 154.36 107.098 154.36 108.043 154.957C108.989 155.555 108.989 156.524 108.043 157.122Z" fill="#EEEDEF"/>
        <path d="M114.891 161.452C113.945 162.05 112.412 162.05 111.467 161.452C110.522 160.854 110.522 159.885 111.467 159.287C112.412 158.689 113.945 158.689 114.891 159.287C115.836 159.885 115.836 160.854 114.891 161.452Z" fill="#EEEDEF"/>
        <path d="M121.738 165.782C120.793 166.38 119.26 166.38 118.314 165.782C117.369 165.184 117.369 164.215 118.314 163.617C119.26 163.019 120.793 163.019 121.738 163.617C122.684 164.215 122.684 165.184 121.738 165.782Z" fill="#EEEDEF"/>
        <path d="M128.585 170.112C127.64 170.71 126.107 170.71 125.162 170.112C124.216 169.514 124.216 168.545 125.162 167.947C126.107 167.349 127.64 167.349 128.585 167.947C129.531 168.545 129.531 169.514 128.585 170.112Z" fill="#EEEDEF"/>
        <path d="M135.433 174.442C134.487 175.039 132.955 175.039 132.009 174.442C131.064 173.844 131.064 172.875 132.009 172.277C132.955 171.679 134.487 171.679 135.433 172.277C136.378 172.875 136.378 173.844 135.433 174.442Z" fill="#EEEDEF"/>
        <path d="M142.28 178.771C141.335 179.369 139.802 179.369 138.857 178.771C137.911 178.174 137.911 177.204 138.857 176.607C139.802 176.009 141.335 176.009 142.28 176.607C143.226 177.204 143.226 178.174 142.28 178.771Z" fill="#EEEDEF"/>
        <path d="M129.511 51.8063C127.952 50.8046 125.425 50.8046 123.866 51.8063L54.4806 95.8568C52.9216 96.8585 53.0872 97.7985 53.0871 99.3878L53.087 139.549L123.866 94.7905C125.425 93.7888 127.952 93.7888 129.511 94.7905L181.579 127.223L183.114 130.008L183.192 89.1543C183.192 87.4625 183.293 86.3628 181.734 85.361L129.511 51.8063Z" fill="#23192D" fill-opacity="0.1"/>
        <path d="M123.253 93.9383C124.813 92.9517 127.343 92.9517 128.903 93.9383L181.168 126.987C182.728 127.974 182.728 129.573 181.168 130.56L112.659 173.881C111.099 174.867 108.569 174.867 107.009 173.881L54.7439 140.832C53.1836 139.845 53.1836 138.246 54.7439 137.259L123.253 93.9383Z" fill="#DCDBDD"/>
        <path fill-rule="evenodd" clip-rule="evenodd" d="M129.284 93.6975L181.548 126.746C183.319 127.866 183.319 129.681 181.548 130.8L113.039 174.121C111.269 175.241 108.399 175.241 106.628 174.121L54.3635 141.072C52.5931 139.953 52.5931 138.138 54.3635 137.018L122.873 93.6975C124.643 92.578 127.513 92.578 129.284 93.6975ZM128.903 93.938C127.343 92.9514 124.813 92.9514 123.253 93.938L54.7439 137.259C53.1836 138.245 53.1836 139.845 54.7439 140.832L107.009 173.881C108.569 174.867 111.099 174.867 112.659 173.881L181.168 130.56C182.728 129.573 182.728 127.973 181.168 126.987L128.903 93.938Z" fill="#908E96"/>
        <path fill-rule="evenodd" clip-rule="evenodd" d="M130.001 93.655C128.321 92.5912 125.597 92.5912 123.917 93.655L50.1562 140.364C49.2205 140.956 48.806 141.754 48.9127 142.528L48.8938 142.539C48.8938 143.054 48.8804 143.527 48.868 143.964C48.8114 145.966 48.7766 147.195 50.1558 148.069L106.427 183.702C108.107 184.766 110.831 184.766 112.511 183.702L186.272 136.993C187.636 136.129 187.608 135.08 187.549 132.91C187.537 132.462 187.524 131.965 187.521 131.413C187.608 130.651 187.192 129.871 186.272 129.289L130.001 93.655ZM95.3347 150.268C95.4972 150.427 95.6884 150.577 95.9085 150.717C97.5884 151.781 100.312 151.781 101.992 150.717L140.013 126.64C140.232 126.502 140.422 126.352 140.583 126.194C138.473 124.981 135.207 125.019 133.169 126.309L95.3347 150.268Z" fill="#2B1E37" fill-opacity="0.08"/>
        <path fill-rule="evenodd" clip-rule="evenodd" d="M126.374 50.2512C127.597 50.2512 128.844 50.5415 129.817 51.1495L182.345 83.9877C183.394 84.6438 183.993 85.602 183.888 86.645V128.253C183.993 129.296 183.394 130.254 182.345 130.91L113.49 173.955C112.518 174.563 111.271 174.853 110.048 174.853C108.825 174.853 107.578 174.563 106.605 173.955L54.0774 141.117C53.0134 140.452 52.4131 139.475 52.538 138.418L52.5176 96.1323L52.574 96.1322C52.7369 95.3708 53.2756 94.6954 54.0773 94.1942L122.932 51.1495C123.904 50.5415 125.151 50.2512 126.374 50.2512ZM53.401 97.0876L53.421 138.484L53.4165 138.519C53.3441 139.06 53.6213 139.728 54.5188 140.289L107.047 173.127C107.854 173.631 108.939 173.897 110.048 173.897C111.157 173.897 112.242 173.631 113.049 173.127L181.903 130.082C182.787 129.53 183.069 128.873 183.009 128.338L183.006 128.309V127.987V86.5886L183.009 86.5597C183.069 86.0252 182.787 85.3683 181.903 84.8157L129.375 51.9775C128.614 51.5018 127.606 51.2383 126.563 51.2099L126.555 51.548C126.521 51.547 126.488 51.5463 126.455 51.5458C126.437 51.5456 126.419 51.5454 126.401 51.5454M53.401 97.0876L53.4051 96.6135C53.4085 96.1177 53.7142 95.5252 54.5188 95.0222L123.373 51.9775C124.18 51.4731 125.265 51.2073 126.374 51.2073C126.383 51.2073 126.393 51.2073 126.402 51.2073" fill="#908E96"/>
        <path fill-rule="evenodd" clip-rule="evenodd" d="M129.664 51.1209L181.929 84.1697C183.909 85.422 183.909 87.4525 181.929 88.7048L113.42 132.026C111.439 133.278 108.228 133.278 106.248 132.026L53.9831 98.9767C52.0026 97.7244 52.0026 95.694 53.9831 94.4417L122.492 51.1209C124.473 49.8686 127.684 49.8686 129.664 51.1209ZM128.903 51.602C127.343 50.6154 124.813 50.6154 123.253 51.602L54.7439 94.9228C53.1836 95.9094 53.1836 97.509 54.7439 98.4956L107.009 131.544C108.569 132.531 111.099 132.531 112.659 131.544L181.168 88.2237C182.728 87.2371 182.728 85.6374 181.168 84.6508L128.903 51.602Z" fill="#908E96"/>
        <path fill-rule="evenodd" clip-rule="evenodd" d="M109.768 174.853V132.247H110.502V174.853H109.768Z" fill="#908E96"/>
        <path fill-rule="evenodd" clip-rule="evenodd" d="M130 51.8587C128.321 50.7872 125.597 50.7872 123.917 51.8587L48.8938 97.2174C48.8938 97.7356 48.8804 98.2124 48.868 98.6521C48.8114 100.669 48.7766 101.907 50.1558 102.787L106.427 138.679C108.107 139.75 110.831 139.75 112.511 138.679L186.272 91.631C187.636 90.7606 187.608 89.7039 187.549 87.5183C187.536 87.0132 187.52 86.4477 187.52 85.8103L130 51.8587ZM102.752 105.939C100.652 107.278 97.2479 107.278 95.148 105.939L94.5992 105.53C94.7627 105.387 94.9456 105.25 95.1481 105.121L133.169 80.8693C135.269 79.5299 138.674 79.5299 140.774 80.8693C140.976 80.9984 141.159 81.1353 141.322 81.2784C141.159 81.4215 140.976 81.5584 140.774 81.6876L102.752 105.939Z" fill="#908E96"/>
        <path fill-rule="evenodd" clip-rule="evenodd" d="M49.0359 96.791L123.905 52.0026C125.581 50.9446 128.299 50.9446 129.976 52.0026L187.377 85.5274C187.377 86.1567 187.393 86.7151 187.406 87.2139C187.465 89.372 187.493 90.4154 186.131 91.2748L112.522 137.731C110.845 138.789 108.127 138.789 106.451 137.731L50.2953 102.29C48.919 101.422 48.9537 100.199 49.0102 98.2077C49.0226 97.7735 49.0359 97.3027 49.0359 96.791ZM130.401 51.1649C129.4 50.5377 128.147 50.2512 126.94 50.2512C125.732 50.2512 124.477 50.5385 123.476 51.1674L48.1597 96.2233L48.1597 96.791C48.1597 97.2858 48.1468 97.7425 48.1344 98.178C48.1335 98.209 48.1326 98.2401 48.1317 98.2712C48.1055 99.1888 48.079 100.112 48.2669 100.909C48.4845 101.832 48.9745 102.563 49.8572 103.12L106.013 138.56C107.016 139.193 108.275 139.482 109.486 139.482C110.698 139.482 111.957 139.193 112.96 138.56L186.57 92.1043C187.419 91.5683 187.923 90.8997 188.148 89.9784C188.337 89.2028 188.312 88.2785 188.285 87.2957L188.282 87.1855C188.268 86.686 188.254 86.1408 188.254 85.5274V84.9531L130.401 51.1649ZM98.9893 105.437C100.25 105.437 101.462 105.131 102.346 104.573L139.543 81.0973C138.776 80.7828 137.867 80.6144 136.932 80.6144C135.672 80.6144 134.46 80.9206 133.576 81.478L96.3785 104.954C97.146 105.269 98.0546 105.437 98.9893 105.437ZM94.6474 104.999L95.195 105.403C95.2763 105.454 95.3596 105.504 95.4447 105.551C97.5523 106.723 100.769 106.674 102.784 105.403L140.727 81.4565C140.929 81.3289 141.111 81.1938 141.274 81.0524C141.111 80.9111 140.929 80.776 140.727 80.6484C140.645 80.5971 140.562 80.5478 140.477 80.5005C138.369 79.3279 135.152 79.3772 133.138 80.6484L95.1951 104.595C94.993 104.722 94.8105 104.858 94.6474 104.999Z" fill="#908E96"/>
        <path fill-rule="evenodd" clip-rule="evenodd" d="M130.003 48.6286C128.322 47.5766 125.597 47.5766 123.916 48.6286L50.1084 94.8209C48.4274 95.8729 48.4274 97.5786 50.1084 98.6306L106.415 133.87C108.096 134.922 110.821 134.922 112.502 133.87L186.309 87.6778C187.99 86.6257 187.99 84.9201 186.309 83.8681L130.003 48.6286ZM102.737 105.536C100.636 106.851 97.2294 106.851 95.1282 105.536L94.5791 105.134C94.7426 104.993 94.9257 104.859 95.1283 104.732L133.173 80.9217C135.274 79.6067 138.681 79.6067 140.782 80.9217C140.985 81.0485 141.168 81.1829 141.331 81.3234C141.168 81.4639 140.985 81.5983 140.782 81.7251L102.737 105.536Z" fill="#FBFBFB"/>
        <path fill-rule="evenodd" clip-rule="evenodd" d="M126.941 46.2318C128.153 46.2318 129.413 46.5208 130.417 47.1537L186.607 82.5944C187.606 83.2242 188.304 84.1835 188.304 85.3397C188.304 86.4959 187.606 87.4552 186.607 88.0849L112.952 134.541C111.948 135.174 110.689 135.463 109.476 135.463C108.264 135.463 107.004 135.174 106 134.541L49.8098 99.1003C48.8113 98.4706 48.1133 97.5112 48.1133 96.3551C48.1133 95.1989 48.8113 94.2396 49.8098 93.6098L85.9392 70.8221L123.465 47.1537C124.114 46.7443 124.871 46.4788 125.652 46.3423C126.079 46.2678 126.513 46.2318 126.941 46.2318ZM98.972 105.249C100.233 105.249 101.446 104.943 102.33 104.386L139.551 80.9096C138.783 80.5952 137.874 80.4267 136.939 80.4267C135.678 80.4267 134.464 80.7329 133.58 81.2903L96.3596 104.766C97.1275 105.081 98.0367 105.249 98.972 105.249ZM94.6273 104.811L95.1753 105.215C95.2567 105.267 95.34 105.316 95.4252 105.363C97.5341 106.536 100.753 106.486 102.769 105.215L140.735 81.2688C140.937 81.1413 141.12 81.0061 141.283 80.8647C141.12 80.7234 140.938 80.5883 140.735 80.4608C140.654 80.4094 140.571 80.3601 140.486 80.3128C138.377 79.1402 135.158 79.1896 133.142 80.4608L95.1754 104.407C94.9732 104.535 94.7905 104.67 94.6273 104.811ZM123.903 47.9832C124.41 47.6635 125.012 47.4404 125.652 47.3139C127.129 47.0218 128.808 47.2449 129.978 47.9832L186.169 83.424C187.846 84.482 187.846 86.1974 186.169 87.2554L112.513 133.712C110.836 134.77 108.116 134.77 106.439 133.712L50.2482 98.2708C48.5707 97.2128 48.5707 95.4974 50.2482 94.4393L85.9392 71.9282L104.921 59.9557L123.903 47.9832Z" fill="#908E96"/>
        <path fill-rule="evenodd" clip-rule="evenodd" d="M129.358 50.9731C127.807 49.9988 125.272 50.0125 123.695 51.0037L54.4491 94.526C52.8721 95.5172 52.8503 97.1106 54.4005 98.0849L106.327 130.722C107.877 131.696 110.412 131.682 111.989 130.691L181.235 87.1687C182.812 86.1775 182.834 84.5841 181.284 83.6098L129.358 50.9731ZM102.404 105.163C100.308 106.481 96.9086 106.481 94.812 105.163L94.2641 104.761C94.4272 104.62 94.6099 104.485 94.8121 104.358L132.774 80.4982C134.871 79.1805 138.27 79.1805 140.367 80.4982C140.569 80.6253 140.751 80.76 140.914 80.9008C140.751 81.0416 140.569 81.1763 140.366 81.3033L102.404 105.163Z" fill="#DCDBDD"/>
        <path fill-rule="evenodd" clip-rule="evenodd" d="M181.067 84.0872L129.033 51.1839C127.742 50.3675 125.615 50.3718 124.282 51.2148L54.8916 95.0926C53.5586 95.9355 53.5517 97.2806 54.8428 98.097L106.877 131C108.168 131.817 110.296 131.812 111.629 130.969L181.019 87.0917C182.352 86.2488 182.359 84.9036 181.067 84.0872ZM129.494 50.8922C127.941 49.9099 125.401 49.9237 123.82 50.923L54.4302 94.8008C52.8499 95.8001 52.8281 97.4065 54.3815 98.3888L106.416 131.292C107.969 132.274 110.51 132.26 112.09 131.261L181.48 87.3834C183.06 86.3841 183.082 84.7777 181.529 83.7955L129.494 50.8922Z" fill="#908E96"/>
        <path fill-rule="evenodd" clip-rule="evenodd" d="M143.601 70.3812L85.5536 107.087C82.9889 108.709 82.9889 111.338 85.5536 112.96C88.1183 114.581 92.2765 114.581 94.8412 112.96L152.889 76.254C155.454 74.6323 155.454 72.0029 152.889 70.3812C150.324 68.7594 146.166 68.7594 143.601 70.3812ZM84.3927 106.353C81.1868 108.38 81.1868 111.667 84.3927 113.694C87.5985 115.721 92.7963 115.721 96.0022 113.694L154.05 76.9882C157.256 74.961 157.256 71.6742 154.05 69.647C150.844 67.6198 145.646 67.6198 142.44 69.647L84.3927 106.353Z" fill="#908E96"/>
        <path fill-rule="evenodd" clip-rule="evenodd" d="M102.128 119.236C104.339 120.634 107.924 120.634 110.135 119.236C112.346 117.838 112.346 115.571 110.135 114.173C107.924 112.775 104.339 112.775 102.128 114.173C99.9171 115.571 99.9171 117.838 102.128 119.236ZM107.848 127.916C105.005 126.118 105.005 123.204 107.848 121.406L113.567 117.79C116.41 115.992 121.019 115.992 123.862 117.79L125.006 118.513C125.637 118.912 125.637 119.56 125.006 119.96L111.279 128.639C110.647 129.039 109.623 129.039 108.991 128.639L107.848 127.916Z" fill="#86848D"/>
        <path fill-rule="evenodd" clip-rule="evenodd" d="M128.261 102.983C130.472 104.382 134.057 104.382 136.268 102.983C138.479 101.585 138.479 99.3184 136.268 97.9202C134.057 96.5221 130.472 96.5221 128.261 97.9202C126.05 99.3184 126.05 101.585 128.261 102.983ZM133.98 111.663C131.137 109.865 131.137 106.951 133.98 105.153L139.7 101.537C142.542 99.7392 147.152 99.7392 149.994 101.537L151.138 102.26C151.77 102.66 151.77 103.307 151.138 103.707L137.412 112.386C136.78 112.786 135.756 112.786 135.124 112.386L133.98 111.663Z" fill="#86848D"/>
        <path fill-rule="evenodd" clip-rule="evenodd" d="M154.222 86.3519C156.433 87.7501 160.018 87.7501 162.229 86.3519C164.44 84.9538 164.44 82.6869 162.229 81.2888C160.018 79.8906 156.433 79.8906 154.222 81.2888C152.011 82.6869 152.011 84.9538 154.222 86.3519ZM159.941 95.0316C157.098 93.234 157.098 90.3195 159.941 88.5219L165.661 84.9053C168.503 83.1077 173.113 83.1077 175.955 84.9053L177.099 85.6286C177.731 86.0281 177.731 86.6758 177.099 87.0752L163.373 95.7549C162.741 96.1544 161.717 96.1544 161.085 95.7549L159.941 95.0316Z" fill="#86848D"/>
        <path fill-rule="evenodd" clip-rule="evenodd" d="M109.521 89.2009C108.424 88.5072 109.201 85.6436 110.752 84.6626L118.281 79.9017C119.833 78.9206 120.61 80.8016 119.513 82.8827L115.748 90.024C115.068 91.3141 113.966 92.0113 113.286 91.5813L109.521 89.2009Z" fill="#482648" fill-opacity="0.06"/>
        <path fill-rule="evenodd" clip-rule="evenodd" d="M109.11 89.9794C107.647 89.0544 108.683 85.2364 110.752 83.9283L118.281 79.1674C120.35 77.8594 121.385 80.3673 119.923 83.1421L116.158 90.2834C115.251 92.0036 113.781 92.9332 112.875 92.3598L109.11 89.9794ZM110.752 85.3966C109.718 86.0506 109.2 87.9596 109.931 88.4221L113.695 90.8025C114.149 91.0892 114.884 90.6244 115.337 89.7643L119.102 82.623C119.833 81.2356 119.315 79.9816 118.281 80.6356L110.752 85.3966Z" fill="#C8C7CB"/>
        <path fill-rule="evenodd" clip-rule="evenodd" d="M111.533 90.6688C110.436 89.9751 111.213 87.1115 112.764 86.1305L120.293 81.3696C121.845 80.3885 122.622 82.2695 121.525 84.3505L117.76 91.4919C117.08 92.782 115.977 93.4792 115.297 93.0492L111.533 90.6688Z" fill="#E9E8EA"/>
        <path fill-rule="evenodd" clip-rule="evenodd" d="M72.9653 75.3713C65.3895 70.5809 70.755 50.8063 81.4688 44.0316L133.462 11.1542C144.176 4.37948 149.542 17.3686 141.966 31.7399L116.34 83.6458C111.644 92.5548 104.03 97.3696 99.3332 94.3999L72.9653 75.3713Z" fill="#EEEDEF"/>
        <path fill-rule="evenodd" clip-rule="evenodd" d="M111.122 91.4474C109.659 90.5224 110.695 86.7044 112.764 85.3964L120.293 80.6354C122.361 79.3274 123.397 81.8353 121.934 84.6101L118.17 91.7515C117.263 93.4716 115.793 94.4012 114.886 93.8278L111.122 91.4474ZM112.764 86.8646C111.729 87.5186 111.211 89.4276 111.943 89.8901L115.707 92.2706C116.161 92.5572 116.896 92.0924 117.349 91.2324L121.114 84.091C121.845 82.7036 121.327 81.4496 120.293 82.1037L112.764 86.8646Z" fill="#86848D"/>
        <path fill-rule="evenodd" clip-rule="evenodd" d="M124.782 52.0503L128.388 49.7705C128.885 49.4557 129.289 48.6902 129.289 48.0607L129.289 20.9879L125.82 23.1812C125.906 23.7756 125.951 24.4137 125.951 25.0933C125.951 27.1841 125.527 29.4178 124.782 31.5993L124.782 31.3364C124.782 30.4295 124.497 29.7398 123.99 29.4191L120.116 26.9696L120.305 26.6191C120.111 26.6955 119.925 26.7348 119.752 26.7391L114.23 23.2475C113.723 22.9268 113.035 23.0014 112.318 23.4549L111.609 23.9029C113.034 21.9168 114.703 20.2371 116.487 19.1088C117.168 18.6781 117.832 18.3491 118.473 18.1171L118.473 13.8635L104.502 22.6978C104.004 23.0125 103.601 23.7781 103.601 24.4076L103.601 28.9672L102.699 29.5372L102.699 24.9776C102.699 23.7185 103.506 22.1874 104.502 21.5578L118.627 12.6258C119.105 12.3235 119.564 12.2737 119.902 12.4875L129.662 18.6592C130 18.873 130.19 19.3327 130.19 19.9374L130.19 47.4907C130.19 48.7498 129.383 50.2809 128.388 50.9104L124.782 53.1902L124.782 52.0503ZM129.025 19.8682C129.061 19.8911 129.094 19.9195 129.123 19.953L120.726 25.2625C119.979 25.7347 119.374 25.3519 119.374 24.4076L119.374 13.7657L129.025 19.8682Z" fill="#86848D"/>
        <path fill-rule="evenodd" clip-rule="evenodd" d="M118.472 64.0191L122.077 61.7393C122.575 61.4245 122.978 60.659 122.978 60.0294L122.978 32.9566L119.51 35.15C119.596 35.7443 119.641 36.3824 119.641 37.0621C119.641 39.1529 119.217 41.3865 118.472 43.568L118.472 43.3052C118.472 42.3982 118.187 41.7086 117.68 41.3879L113.806 38.9383L113.994 38.5879C113.8 38.6643 113.615 38.7035 113.441 38.7079L107.919 35.2162C107.412 34.8955 106.725 34.9702 106.007 35.4236L105.299 35.8717C106.723 33.8855 108.392 32.2058 110.176 31.0776C110.858 30.6469 111.522 30.3178 112.162 30.0858L112.162 25.8322L98.1914 34.6665C97.6936 34.9813 97.29 35.7468 97.29 36.3764L97.29 40.936L96.3887 41.5059L96.3887 36.9463C96.3887 35.6872 97.1958 34.1562 98.1914 33.5266L112.317 24.5945C112.795 24.2922 113.253 24.2425 113.592 24.4562L123.352 30.6279C123.69 30.8417 123.88 31.3015 123.88 31.9061L123.88 59.4595C123.88 60.7186 123.073 62.2496 122.077 62.8792L118.472 65.159L118.472 64.0191ZM122.714 31.837C122.75 31.8598 122.783 31.8882 122.812 31.9218L114.416 37.2313C113.669 37.7035 113.064 37.3207 113.064 36.3764L113.064 25.7344L122.714 31.837Z" fill="#86848D"/>
        <path fill-rule="evenodd" clip-rule="evenodd" d="M115.768 73.7087L91.8828 88.8125C91.385 89.1273 90.9814 88.8721 90.9814 88.2425L90.9814 48.3458C90.9814 47.7163 91.385 46.9508 91.8828 46.636L105.854 37.8017L105.854 42.0553C105.213 42.2873 104.549 42.6164 103.868 43.0471C98.6409 46.3522 94.4037 54.3903 94.4037 61.0006C94.4037 67.6109 98.6409 70.2902 103.868 66.9851C109.095 63.6799 113.332 55.6419 113.332 49.0316C113.332 48.3519 113.287 47.7138 113.201 47.1195L116.67 44.9261L116.67 71.9989C116.67 72.6284 116.266 73.394 115.768 73.7087ZM102.434 58.05L106.493 50.5004C106.809 50.7106 107.222 50.7395 107.686 50.5574L102.434 60.3245L99.5468 58.6062L100.446 56.8667L102.434 58.05ZM116.504 43.8912C116.475 43.8577 116.442 43.8293 116.406 43.8065L106.755 37.7039L106.755 48.3458C106.755 49.2902 107.36 49.6729 108.107 49.2008L116.504 43.8912ZM90.0801 48.9158C90.0801 47.6567 90.8872 46.1256 91.8828 45.4961L106.008 36.564C106.486 36.2617 106.945 36.212 107.283 36.4257L117.043 42.5974C117.381 42.8112 117.571 43.271 117.571 43.8756L117.571 71.4289C117.571 72.688 116.764 74.2191 115.768 74.8486L91.8828 89.9524C90.8872 90.5819 90.0801 90.0716 90.0801 88.8125L90.0801 48.9158ZM96.3895 73.9937C96.1406 74.1511 95.9388 74.5339 95.9388 74.8486C95.9388 75.1634 96.1406 75.291 96.3895 75.1336L109.91 66.5843C110.159 66.4269 110.36 66.0442 110.36 65.7294C110.36 65.4146 110.159 65.287 109.91 65.4444L96.3895 73.9937ZM96.3895 77.4134C96.1406 77.5708 95.9388 77.9536 95.9388 78.2684C95.9388 78.5831 96.1406 78.7107 96.3895 78.5533L106.304 72.2839C106.553 72.1265 106.755 71.7437 106.755 71.4289C106.755 71.1142 106.553 70.9866 106.304 71.144L96.3895 77.4134ZM95.9388 81.6881C95.9388 81.3733 96.1406 80.9905 96.3895 80.8332L108.558 73.1388C108.807 72.9814 109.008 73.109 109.008 73.4238C109.008 73.7385 108.807 74.1213 108.558 74.2787L96.3895 81.9731C96.1406 82.1304 95.9388 82.0029 95.9388 81.6881Z" fill="#86848D"/>
        <path d="M20.7244 118.3C20.7244 119.278 19.9204 120.07 18.9286 120.07C17.9368 120.07 17.1328 119.278 17.1328 118.3C17.1328 117.323 17.9368 116.53 18.9286 116.53C19.9204 116.53 20.7244 117.323 20.7244 118.3Z" fill="#4A4A4F"/>
        <path d="M89.1953 53.7477L69.4414 66.0635" stroke="#050013" stroke-opacity="0.22" stroke-linecap="round" stroke-dasharray="2 3"/>
        <path d="M35.4688 88.2034V162.31C35.4688 163.694 36.1838 164.979 37.3594 165.709L46.9016 171.631C48.2115 172.444 49.872 172.432 51.1698 171.6L76.8781 155.118" stroke="#050013" stroke-opacity="0.22" stroke-linecap="round" stroke-dasharray="2 3"/>
        <path d="M165.951 104.434L196.43 124.332C198.936 125.968 198.824 129.675 196.224 131.157L176.709 142.276" stroke="#050013" stroke-opacity="0.22" stroke-linecap="round" stroke-dasharray="1 2"/>
        <path d="M199.209 127.592C199.209 128.57 198.405 129.362 197.413 129.362C196.421 129.362 195.617 128.57 195.617 127.592C195.617 126.615 196.421 125.822 197.413 125.822C198.405 125.822 199.209 126.615 199.209 127.592Z" fill="#4A4A4F"/>
        <path d="M38.5138 87.0742C38.5138 88.7143 37.1649 90.0439 35.501 90.0439C33.8371 90.0439 32.4883 88.7143 32.4883 87.0742C32.4883 85.4341 33.8371 84.1045 35.501 84.1045C37.1649 84.1045 38.5138 85.4341 38.5138 87.0742Z" fill="#4A4A4F"/>
    </g>
    <defs>
        <clipPath id="clip0_3793_19941">
            <rect width="224" height="184" fill="white" transform="translate(0 0.5)"/>
        </clipPath>
    </defs>
</svg>
