<svg width="200" height="150" viewBox="0 0 200 150" fill="none" xmlns="http://www.w3.org/2000/svg">
<g clip-path="url(#clip0_623_8765)">
<path d="M79.9869 81.0346C81.2489 81.7632 83.2951 81.7632 84.5571 81.0346C85.8191 80.306 85.8191 79.1246 84.5571 78.396C83.2951 77.6673 81.2489 77.6673 79.9869 78.396C78.7248 79.1246 78.7248 80.306 79.9869 81.0346Z" fill="#2B1E37" fill-opacity="0.08"/>
<path d="M70.8464 86.3118C72.1085 87.0405 74.1546 87.0405 75.4166 86.3118C76.6787 85.5832 76.6787 84.4018 75.4166 83.6732C74.1546 82.9446 72.1085 82.9446 70.8464 83.6732C69.5844 84.4018 69.5844 85.5832 70.8464 86.3118Z" fill="#2B1E37" fill-opacity="0.08"/>
<path d="M61.706 91.5891C62.968 92.3177 65.0142 92.3177 66.2762 91.5891C67.5382 90.8604 67.5382 89.6791 66.2762 88.9504C65.0142 88.2218 62.968 88.2218 61.706 88.9504C60.444 89.6791 60.444 90.8604 61.706 91.5891Z" fill="#2B1E37" fill-opacity="0.08"/>
<path d="M52.5655 96.8663C53.8276 97.5949 55.8737 97.5949 57.1358 96.8663C58.3978 96.1377 58.3978 94.9563 57.1358 94.2277C55.8737 93.499 53.8276 93.499 52.5655 94.2277C51.3035 94.9563 51.3035 96.1377 52.5655 96.8663Z" fill="#2B1E37" fill-opacity="0.08"/>
<path d="M43.4251 102.144C44.6871 102.872 46.7333 102.872 47.9953 102.144C49.2574 101.415 49.2574 100.234 47.9953 99.5049C46.7333 98.7763 44.6871 98.7763 43.4251 99.5049C42.1631 100.234 42.1631 101.415 43.4251 102.144Z" fill="#2B1E37" fill-opacity="0.08"/>
<path d="M34.2847 107.421C35.5467 108.149 37.5929 108.149 38.8549 107.421C40.1169 106.692 40.1169 105.511 38.8549 104.782C37.5929 104.054 35.5467 104.054 34.2847 104.782C33.0226 105.511 33.0226 106.692 34.2847 107.421Z" fill="#2B1E37" fill-opacity="0.08"/>
<path d="M25.1442 112.698C26.4063 113.427 28.4524 113.427 29.7145 112.698C30.9765 111.969 30.9765 110.788 29.7145 110.059C28.4524 109.331 26.4063 109.331 25.1442 110.059C23.8822 110.788 23.8822 111.969 25.1442 112.698Z" fill="#2B1E37" fill-opacity="0.08"/>
<path d="M79.9869 86.3118C81.2489 87.0405 83.2951 87.0405 84.5571 86.3118C85.8191 85.5832 85.8191 84.4018 84.5571 83.6732C83.2951 82.9446 81.2489 82.9446 79.9869 83.6732C78.7248 84.4018 78.7248 85.5832 79.9869 86.3118Z" fill="#2B1E37" fill-opacity="0.08"/>
<path d="M70.8464 91.5891C72.1085 92.3177 74.1546 92.3177 75.4166 91.5891C76.6787 90.8604 76.6787 89.6791 75.4166 88.9504C74.1546 88.2218 72.1085 88.2218 70.8464 88.9504C69.5844 89.6791 69.5844 90.8604 70.8464 91.5891Z" fill="#2B1E37" fill-opacity="0.08"/>
<path d="M61.706 96.8663C62.968 97.5949 65.0142 97.5949 66.2762 96.8663C67.5382 96.1377 67.5382 94.9563 66.2762 94.2277C65.0142 93.499 62.968 93.499 61.706 94.2277C60.444 94.9563 60.444 96.1377 61.706 96.8663Z" fill="#2B1E37" fill-opacity="0.08"/>
<path d="M52.5655 102.144C53.8276 102.872 55.8737 102.872 57.1358 102.144C58.3978 101.415 58.3978 100.234 57.1358 99.5049C55.8737 98.7763 53.8276 98.7763 52.5655 99.5049C51.3035 100.234 51.3035 101.415 52.5655 102.144Z" fill="#2B1E37" fill-opacity="0.08"/>
<path d="M43.4251 107.421C44.6871 108.149 46.7333 108.149 47.9953 107.421C49.2574 106.692 49.2574 105.511 47.9953 104.782C46.7333 104.054 44.6871 104.054 43.4251 104.782C42.1631 105.511 42.1631 106.692 43.4251 107.421Z" fill="#2B1E37" fill-opacity="0.08"/>
<path d="M34.2847 112.698C35.5467 113.427 37.5929 113.427 38.8549 112.698C40.1169 111.969 40.1169 110.788 38.8549 110.059C37.5929 109.331 35.5467 109.331 34.2847 110.059C33.0226 110.788 33.0226 111.969 34.2847 112.698Z" fill="#2B1E37" fill-opacity="0.08"/>
<path d="M25.1442 117.975C26.4063 118.704 28.4524 118.704 29.7145 117.975C30.9765 117.247 30.9765 116.065 29.7145 115.337C28.4524 114.608 26.4063 114.608 25.1442 115.337C23.8822 116.065 23.8822 117.247 25.1442 117.975Z" fill="#2B1E37" fill-opacity="0.08"/>
<path d="M89.1273 86.3118C90.3893 87.0405 92.4355 87.0405 93.6975 86.3118C94.9596 85.5832 94.9596 84.4018 93.6975 83.6732C92.4355 82.9446 90.3893 82.9446 89.1273 83.6732C87.8653 84.4018 87.8653 85.5832 89.1273 86.3118Z" fill="#2B1E37" fill-opacity="0.08"/>
<path d="M79.9869 91.5891C81.2489 92.3177 83.2951 92.3177 84.5571 91.5891C85.8191 90.8604 85.8191 89.6791 84.5571 88.9504C83.2951 88.2218 81.2489 88.2218 79.9869 88.9504C78.7248 89.6791 78.7248 90.8604 79.9869 91.5891Z" fill="#2B1E37" fill-opacity="0.08"/>
<path d="M70.8464 96.8663C72.1085 97.5949 74.1546 97.5949 75.4166 96.8663C76.6787 96.1377 76.6787 94.9563 75.4166 94.2277C74.1546 93.499 72.1085 93.499 70.8464 94.2277C69.5844 94.9563 69.5844 96.1377 70.8464 96.8663Z" fill="#2B1E37" fill-opacity="0.08"/>
<path d="M61.706 102.144C62.968 102.872 65.0142 102.872 66.2762 102.144C67.5382 101.415 67.5382 100.234 66.2762 99.5049C65.0142 98.7763 62.968 98.7763 61.706 99.5049C60.444 100.234 60.444 101.415 61.706 102.144Z" fill="#2B1E37" fill-opacity="0.08"/>
<path d="M52.5655 107.421C53.8276 108.149 55.8737 108.149 57.1358 107.421C58.3978 106.692 58.3978 105.511 57.1358 104.782C55.8737 104.054 53.8276 104.054 52.5656 104.782C51.3035 105.511 51.3035 106.692 52.5655 107.421Z" fill="#2B1E37" fill-opacity="0.08"/>
<path d="M43.4251 112.698C44.6871 113.427 46.7333 113.427 47.9953 112.698C49.2574 111.969 49.2574 110.788 47.9953 110.059C46.7333 109.331 44.6871 109.331 43.4251 110.059C42.1631 110.788 42.1631 111.969 43.4251 112.698Z" fill="#2B1E37" fill-opacity="0.08"/>
<path d="M34.2847 117.975C35.5467 118.704 37.5929 118.704 38.8549 117.975C40.1169 117.247 40.1169 116.065 38.8549 115.337C37.5929 114.608 35.5467 114.608 34.2847 115.337C33.0226 116.065 33.0226 117.247 34.2847 117.975Z" fill="#2B1E37" fill-opacity="0.08"/>
<path d="M89.1273 91.5891C90.3893 92.3177 92.4355 92.3177 93.6975 91.5891C94.9596 90.8604 94.9596 89.6791 93.6975 88.9504C92.4355 88.2218 90.3893 88.2218 89.1273 88.9504C87.8653 89.6791 87.8653 90.8604 89.1273 91.5891Z" fill="#2B1E37" fill-opacity="0.08"/>
<path d="M79.9869 96.8663C81.2489 97.5949 83.2951 97.5949 84.5571 96.8663C85.8191 96.1377 85.8191 94.9563 84.5571 94.2277C83.2951 93.499 81.2489 93.499 79.9869 94.2277C78.7248 94.9563 78.7248 96.1377 79.9869 96.8663Z" fill="#2B1E37" fill-opacity="0.08"/>
<path d="M70.8464 102.144C72.1085 102.872 74.1546 102.872 75.4166 102.144C76.6787 101.415 76.6787 100.234 75.4166 99.5049C74.1546 98.7763 72.1085 98.7763 70.8464 99.5049C69.5844 100.234 69.5844 101.415 70.8464 102.144Z" fill="#2B1E37" fill-opacity="0.08"/>
<path d="M61.706 107.421C62.968 108.149 65.0142 108.149 66.2762 107.421C67.5382 106.692 67.5382 105.511 66.2762 104.782C65.0142 104.054 62.968 104.054 61.706 104.782C60.444 105.511 60.444 106.692 61.706 107.421Z" fill="#2B1E37" fill-opacity="0.08"/>
<path d="M52.5656 112.698C53.8276 113.427 55.8737 113.427 57.1358 112.698C58.3978 111.969 58.3978 110.788 57.1358 110.059C55.8737 109.331 53.8276 109.331 52.5655 110.059C51.3035 110.788 51.3035 111.969 52.5656 112.698Z" fill="#2B1E37" fill-opacity="0.08"/>
<path d="M43.4251 117.975C44.6871 118.704 46.7333 118.704 47.9953 117.975C49.2574 117.247 49.2574 116.065 47.9953 115.337C46.7333 114.608 44.6871 114.608 43.4251 115.337C42.1631 116.065 42.1631 117.247 43.4251 117.975Z" fill="#2B1E37" fill-opacity="0.08"/>
<path d="M34.2847 123.252C35.5467 123.981 37.5929 123.981 38.8549 123.252C40.1169 122.524 40.1169 121.343 38.8549 120.614C37.5929 119.885 35.5467 119.885 34.2847 120.614C33.0226 121.343 33.0226 122.524 34.2847 123.252Z" fill="#2B1E37" fill-opacity="0.08"/>
<path d="M98.2677 91.5891C99.5298 92.3177 101.576 92.3177 102.838 91.5891C104.1 90.8604 104.1 89.6791 102.838 88.9504C101.576 88.2218 99.5298 88.2218 98.2677 88.9504C97.0057 89.6791 97.0057 90.8604 98.2677 91.5891Z" fill="#2B1E37" fill-opacity="0.08"/>
<path d="M89.1273 96.8663C90.3893 97.5949 92.4355 97.5949 93.6975 96.8663C94.9596 96.1377 94.9596 94.9563 93.6975 94.2277C92.4355 93.499 90.3893 93.499 89.1273 94.2277C87.8653 94.9563 87.8653 96.1377 89.1273 96.8663Z" fill="#2B1E37" fill-opacity="0.08"/>
<path d="M79.9869 102.144C81.2489 102.872 83.2951 102.872 84.5571 102.144C85.8191 101.415 85.8191 100.234 84.5571 99.5049C83.2951 98.7763 81.2489 98.7763 79.9869 99.5049C78.7248 100.234 78.7248 101.415 79.9869 102.144Z" fill="#2B1E37" fill-opacity="0.08"/>
<path d="M70.8464 107.421C72.1085 108.149 74.1546 108.149 75.4166 107.421C76.6787 106.692 76.6787 105.511 75.4166 104.782C74.1546 104.054 72.1085 104.054 70.8464 104.782C69.5844 105.511 69.5844 106.692 70.8464 107.421Z" fill="#2B1E37" fill-opacity="0.08"/>
<path d="M61.706 112.698C62.968 113.427 65.0142 113.427 66.2762 112.698C67.5382 111.969 67.5382 110.788 66.2762 110.059C65.0142 109.331 62.968 109.331 61.706 110.059C60.444 110.788 60.444 111.969 61.706 112.698Z" fill="#2B1E37" fill-opacity="0.08"/>
<path d="M52.5656 117.975C53.8276 118.704 55.8737 118.704 57.1358 117.975C58.3978 117.247 58.3978 116.065 57.1358 115.337C55.8737 114.608 53.8276 114.608 52.5656 115.337C51.3035 116.065 51.3035 117.247 52.5656 117.975Z" fill="#2B1E37" fill-opacity="0.08"/>
<path d="M43.4251 123.252C44.6871 123.981 46.7333 123.981 47.9953 123.252C49.2574 122.524 49.2574 121.343 47.9953 120.614C46.7333 119.885 44.6871 119.885 43.4251 120.614C42.1631 121.343 42.1631 122.524 43.4251 123.252Z" fill="#2B1E37" fill-opacity="0.08"/>
<path d="M98.2677 96.8663C99.5298 97.5949 101.576 97.5949 102.838 96.8663C104.1 96.1377 104.1 94.9563 102.838 94.2277C101.576 93.499 99.5298 93.499 98.2677 94.2277C97.0057 94.9563 97.0057 96.1377 98.2677 96.8663Z" fill="#2B1E37" fill-opacity="0.08"/>
<path d="M89.1273 102.144C90.3893 102.872 92.4355 102.872 93.6975 102.144C94.9596 101.415 94.9596 100.234 93.6975 99.5049C92.4355 98.7763 90.3893 98.7763 89.1273 99.5049C87.8653 100.234 87.8653 101.415 89.1273 102.144Z" fill="#2B1E37" fill-opacity="0.08"/>
<path d="M79.9869 107.421C81.2489 108.149 83.2951 108.149 84.5571 107.421C85.8191 106.692 85.8191 105.511 84.5571 104.782C83.2951 104.054 81.2489 104.054 79.9869 104.782C78.7248 105.511 78.7248 106.692 79.9869 107.421Z" fill="#2B1E37" fill-opacity="0.08"/>
<path d="M70.8464 112.698C72.1085 113.427 74.1546 113.427 75.4166 112.698C76.6787 111.969 76.6787 110.788 75.4166 110.059C74.1546 109.331 72.1085 109.331 70.8464 110.059C69.5844 110.788 69.5844 111.969 70.8464 112.698Z" fill="#2B1E37" fill-opacity="0.08"/>
<path d="M61.706 117.975C62.968 118.704 65.0142 118.704 66.2762 117.975C67.5382 117.247 67.5382 116.065 66.2762 115.337C65.0142 114.608 62.968 114.608 61.706 115.337C60.444 116.065 60.444 117.247 61.706 117.975Z" fill="#2B1E37" fill-opacity="0.08"/>
<path d="M52.5656 123.252C53.8276 123.981 55.8737 123.981 57.1358 123.252C58.3978 122.524 58.3978 121.343 57.1358 120.614C55.8737 119.885 53.8276 119.885 52.5655 120.614C51.3035 121.342 51.3035 122.524 52.5656 123.252Z" fill="#2B1E37" fill-opacity="0.08"/>
<path d="M43.4251 128.53C44.6871 129.258 46.7333 129.258 47.9953 128.53C49.2574 127.801 49.2574 126.62 47.9953 125.891C46.7333 125.162 44.6871 125.162 43.4251 125.891C42.1631 126.62 42.1631 127.801 43.4251 128.53Z" fill="#2B1E37" fill-opacity="0.08"/>
<path d="M107.408 96.8663C108.67 97.5949 110.716 97.5949 111.978 96.8663C113.24 96.1377 113.24 94.9563 111.978 94.2277C110.716 93.499 108.67 93.499 107.408 94.2277C106.146 94.9563 106.146 96.1377 107.408 96.8663Z" fill="#2B1E37" fill-opacity="0.08"/>
<path d="M98.2677 102.144C99.5298 102.872 101.576 102.872 102.838 102.144C104.1 101.415 104.1 100.234 102.838 99.5049C101.576 98.7763 99.5298 98.7763 98.2677 99.5049C97.0057 100.234 97.0057 101.415 98.2677 102.144Z" fill="#2B1E37" fill-opacity="0.08"/>
<path d="M89.1273 107.421C90.3893 108.149 92.4355 108.149 93.6975 107.421C94.9596 106.692 94.9596 105.511 93.6975 104.782C92.4355 104.054 90.3893 104.054 89.1273 104.782C87.8653 105.511 87.8653 106.692 89.1273 107.421Z" fill="#2B1E37" fill-opacity="0.08"/>
<path d="M79.9869 112.698C81.2489 113.427 83.2951 113.427 84.5571 112.698C85.8191 111.969 85.8191 110.788 84.5571 110.059C83.2951 109.331 81.2489 109.331 79.9869 110.059C78.7248 110.788 78.7248 111.969 79.9869 112.698Z" fill="#2B1E37" fill-opacity="0.08"/>
<path d="M70.8464 117.975C72.1085 118.704 74.1546 118.704 75.4166 117.975C76.6787 117.247 76.6787 116.065 75.4166 115.337C74.1546 114.608 72.1085 114.608 70.8464 115.337C69.5844 116.065 69.5844 117.247 70.8464 117.975Z" fill="#2B1E37" fill-opacity="0.08"/>
<path d="M61.706 123.252C62.968 123.981 65.0142 123.981 66.2762 123.252C67.5382 122.524 67.5382 121.343 66.2762 120.614C65.0142 119.885 62.968 119.885 61.706 120.614C60.444 121.343 60.444 122.524 61.706 123.252Z" fill="#2B1E37" fill-opacity="0.08"/>
<path d="M52.5656 128.53C53.8276 129.258 55.8737 129.258 57.1358 128.53C58.3978 127.801 58.3978 126.62 57.1358 125.891C55.8737 125.162 53.8276 125.162 52.5656 125.891C51.3035 126.62 51.3035 127.801 52.5656 128.53Z" fill="#2B1E37" fill-opacity="0.08"/>
<path d="M107.408 102.144C108.67 102.872 110.716 102.872 111.978 102.144C113.24 101.415 113.24 100.234 111.978 99.5049C110.716 98.7763 108.67 98.7763 107.408 99.5049C106.146 100.234 106.146 101.415 107.408 102.144Z" fill="#2B1E37" fill-opacity="0.08"/>
<path d="M98.2677 107.421C99.5298 108.149 101.576 108.149 102.838 107.421C104.1 106.692 104.1 105.511 102.838 104.782C101.576 104.054 99.5298 104.054 98.2677 104.782C97.0057 105.511 97.0057 106.692 98.2677 107.421Z" fill="#2B1E37" fill-opacity="0.08"/>
<path d="M89.1273 112.698C90.3893 113.427 92.4355 113.427 93.6975 112.698C94.9596 111.969 94.9596 110.788 93.6975 110.059C92.4355 109.331 90.3893 109.331 89.1273 110.059C87.8653 110.788 87.8653 111.969 89.1273 112.698Z" fill="#2B1E37" fill-opacity="0.08"/>
<path d="M79.9869 117.975C81.2489 118.704 83.2951 118.704 84.5571 117.975C85.8191 117.247 85.8191 116.065 84.5571 115.337C83.2951 114.608 81.2489 114.608 79.9869 115.337C78.7248 116.065 78.7248 117.247 79.9869 117.975Z" fill="#2B1E37" fill-opacity="0.08"/>
<path d="M70.8464 123.252C72.1085 123.981 74.1546 123.981 75.4166 123.252C76.6787 122.524 76.6787 121.343 75.4166 120.614C74.1546 119.885 72.1085 119.885 70.8464 120.614C69.5844 121.343 69.5844 122.524 70.8464 123.252Z" fill="#2B1E37" fill-opacity="0.08"/>
<path d="M61.706 128.53C62.968 129.258 65.0142 129.258 66.2762 128.53C67.5382 127.801 67.5382 126.62 66.2762 125.891C65.0142 125.162 62.968 125.162 61.706 125.891C60.444 126.62 60.444 127.801 61.706 128.53Z" fill="#2B1E37" fill-opacity="0.08"/>
<path d="M52.5656 133.807C53.8276 134.536 55.8737 134.536 57.1358 133.807C58.3978 133.078 58.3978 131.897 57.1358 131.168C55.8737 130.44 53.8276 130.44 52.5656 131.168C51.3035 131.897 51.3035 133.078 52.5656 133.807Z" fill="#2B1E37" fill-opacity="0.08"/>
<path d="M116.549 102.144C117.811 102.872 119.857 102.872 121.119 102.144C122.381 101.415 122.381 100.234 121.119 99.5049C119.857 98.7763 117.811 98.7763 116.549 99.5049C115.287 100.234 115.287 101.415 116.549 102.144Z" fill="#2B1E37" fill-opacity="0.08"/>
<path d="M107.408 107.421C108.67 108.149 110.716 108.149 111.978 107.421C113.24 106.692 113.24 105.511 111.978 104.782C110.716 104.054 108.67 104.054 107.408 104.782C106.146 105.511 106.146 106.692 107.408 107.421Z" fill="#2B1E37" fill-opacity="0.08"/>
<path d="M98.2677 112.698C99.5298 113.427 101.576 113.427 102.838 112.698C104.1 111.969 104.1 110.788 102.838 110.059C101.576 109.331 99.5298 109.331 98.2677 110.059C97.0057 110.788 97.0057 111.969 98.2677 112.698Z" fill="#2B1E37" fill-opacity="0.08"/>
<path d="M89.1273 117.975C90.3893 118.704 92.4355 118.704 93.6975 117.975C94.9596 117.247 94.9596 116.065 93.6975 115.337C92.4355 114.608 90.3893 114.608 89.1273 115.337C87.8653 116.065 87.8653 117.247 89.1273 117.975Z" fill="#2B1E37" fill-opacity="0.08"/>
<path d="M79.9869 123.252C81.2489 123.981 83.2951 123.981 84.5571 123.252C85.8191 122.524 85.8191 121.343 84.5571 120.614C83.2951 119.885 81.2489 119.885 79.9869 120.614C78.7248 121.343 78.7248 122.524 79.9869 123.252Z" fill="#2B1E37" fill-opacity="0.08"/>
<path d="M70.8464 128.53C72.1085 129.258 74.1546 129.258 75.4166 128.53C76.6787 127.801 76.6787 126.62 75.4166 125.891C74.1546 125.162 72.1085 125.162 70.8464 125.891C69.5844 126.62 69.5844 127.801 70.8464 128.53Z" fill="#2B1E37" fill-opacity="0.08"/>
<path d="M61.706 133.807C62.968 134.536 65.0142 134.536 66.2762 133.807C67.5382 133.078 67.5382 131.897 66.2762 131.168C65.0142 130.44 62.968 130.44 61.706 131.168C60.444 131.897 60.444 133.078 61.706 133.807Z" fill="#2B1E37" fill-opacity="0.08"/>
<path d="M116.549 107.421C117.811 108.149 119.857 108.149 121.119 107.421C122.381 106.692 122.381 105.511 121.119 104.782C119.857 104.054 117.811 104.054 116.549 104.782C115.287 105.511 115.287 106.692 116.549 107.421Z" fill="#2B1E37" fill-opacity="0.08"/>
<path d="M107.408 112.698C108.67 113.427 110.716 113.427 111.978 112.698C113.24 111.969 113.24 110.788 111.978 110.059C110.716 109.331 108.67 109.331 107.408 110.059C106.146 110.788 106.146 111.969 107.408 112.698Z" fill="#2B1E37" fill-opacity="0.08"/>
<path d="M98.2677 117.975C99.5298 118.704 101.576 118.704 102.838 117.975C104.1 117.247 104.1 116.065 102.838 115.337C101.576 114.608 99.5298 114.608 98.2677 115.337C97.0057 116.065 97.0057 117.247 98.2677 117.975Z" fill="#2B1E37" fill-opacity="0.08"/>
<path d="M89.1273 123.252C90.3893 123.981 92.4355 123.981 93.6975 123.252C94.9596 122.524 94.9596 121.343 93.6975 120.614C92.4355 119.885 90.3893 119.885 89.1273 120.614C87.8653 121.343 87.8653 122.524 89.1273 123.252Z" fill="#2B1E37" fill-opacity="0.08"/>
<path d="M79.9869 128.53C81.2489 129.258 83.2951 129.258 84.5571 128.53C85.8191 127.801 85.8191 126.62 84.5571 125.891C83.2951 125.162 81.2489 125.162 79.9869 125.891C78.7248 126.62 78.7248 127.801 79.9869 128.53Z" fill="#2B1E37" fill-opacity="0.08"/>
<path d="M70.8464 133.807C72.1085 134.536 74.1546 134.536 75.4166 133.807C76.6787 133.078 76.6787 131.897 75.4166 131.168C74.1546 130.44 72.1085 130.44 70.8464 131.168C69.5844 131.897 69.5844 133.078 70.8464 133.807Z" fill="#2B1E37" fill-opacity="0.08"/>
<path d="M61.706 139.084C62.968 139.813 65.0142 139.813 66.2762 139.084C67.5382 138.356 67.5382 137.174 66.2762 136.446C65.0142 135.717 62.968 135.717 61.706 136.446C60.444 137.174 60.444 138.356 61.706 139.084Z" fill="#2B1E37" fill-opacity="0.08"/>
<path d="M125.689 107.421C126.951 108.149 128.997 108.149 130.259 107.421C131.521 106.692 131.521 105.511 130.259 104.782C128.997 104.054 126.951 104.054 125.689 104.782C124.427 105.511 124.427 106.692 125.689 107.421Z" fill="#2B1E37" fill-opacity="0.08"/>
<path d="M116.549 112.698C117.811 113.427 119.857 113.427 121.119 112.698C122.381 111.969 122.381 110.788 121.119 110.059C119.857 109.331 117.811 109.331 116.549 110.059C115.287 110.788 115.287 111.969 116.549 112.698Z" fill="#2B1E37" fill-opacity="0.08"/>
<path d="M107.408 117.975C108.67 118.704 110.716 118.704 111.978 117.975C113.24 117.247 113.24 116.065 111.978 115.337C110.716 114.608 108.67 114.608 107.408 115.337C106.146 116.065 106.146 117.247 107.408 117.975Z" fill="#2B1E37" fill-opacity="0.08"/>
<path d="M98.2677 123.252C99.5298 123.981 101.576 123.981 102.838 123.252C104.1 122.524 104.1 121.343 102.838 120.614C101.576 119.885 99.5298 119.885 98.2677 120.614C97.0057 121.343 97.0057 122.524 98.2677 123.252Z" fill="#2B1E37" fill-opacity="0.08"/>
<path d="M89.1273 128.53C90.3893 129.258 92.4355 129.258 93.6975 128.53C94.9596 127.801 94.9596 126.62 93.6975 125.891C92.4355 125.162 90.3893 125.162 89.1273 125.891C87.8653 126.62 87.8653 127.801 89.1273 128.53Z" fill="#2B1E37" fill-opacity="0.08"/>
<path d="M79.9869 133.807C81.2489 134.536 83.2951 134.536 84.5571 133.807C85.8191 133.078 85.8191 131.897 84.5571 131.168C83.2951 130.44 81.2489 130.44 79.9869 131.168C78.7248 131.897 78.7248 133.078 79.9869 133.807Z" fill="#2B1E37" fill-opacity="0.08"/>
<path d="M70.8464 139.084C72.1085 139.813 74.1546 139.813 75.4166 139.084C76.6787 138.356 76.6787 137.174 75.4166 136.446C74.1546 135.717 72.1085 135.717 70.8464 136.446C69.5844 137.174 69.5844 138.356 70.8464 139.084Z" fill="#2B1E37" fill-opacity="0.08"/>
<path d="M125.689 112.698C126.951 113.427 128.997 113.427 130.259 112.698C131.521 111.969 131.521 110.788 130.259 110.059C128.997 109.331 126.951 109.331 125.689 110.059C124.427 110.788 124.427 111.969 125.689 112.698Z" fill="#2B1E37" fill-opacity="0.08"/>
<path d="M116.549 117.975C117.811 118.704 119.857 118.704 121.119 117.975C122.381 117.247 122.381 116.065 121.119 115.337C119.857 114.608 117.811 114.608 116.549 115.337C115.287 116.065 115.287 117.247 116.549 117.975Z" fill="#2B1E37" fill-opacity="0.08"/>
<path d="M107.408 123.252C108.67 123.981 110.716 123.981 111.978 123.252C113.24 122.524 113.24 121.343 111.978 120.614C110.716 119.885 108.67 119.885 107.408 120.614C106.146 121.343 106.146 122.524 107.408 123.252Z" fill="#2B1E37" fill-opacity="0.08"/>
<path d="M98.2677 128.53C99.5298 129.258 101.576 129.258 102.838 128.53C104.1 127.801 104.1 126.62 102.838 125.891C101.576 125.162 99.5298 125.162 98.2677 125.891C97.0057 126.62 97.0057 127.801 98.2677 128.53Z" fill="#2B1E37" fill-opacity="0.08"/>
<path d="M89.1273 133.807C90.3893 134.536 92.4355 134.536 93.6975 133.807C94.9596 133.078 94.9596 131.897 93.6975 131.168C92.4355 130.44 90.3893 130.44 89.1273 131.168C87.8653 131.897 87.8653 133.078 89.1273 133.807Z" fill="#2B1E37" fill-opacity="0.08"/>
<path d="M79.9869 139.084C81.2489 139.813 83.2951 139.813 84.5571 139.084C85.8191 138.356 85.8191 137.174 84.5571 136.446C83.2951 135.717 81.2489 135.717 79.9869 136.446C78.7248 137.174 78.7248 138.356 79.9869 139.084Z" fill="#2B1E37" fill-opacity="0.08"/>
<path d="M70.8464 144.361C72.1085 145.09 74.1546 145.09 75.4166 144.361C76.6787 143.633 76.6787 142.451 75.4166 141.723C74.1546 140.994 72.1085 140.994 70.8464 141.723C69.5844 142.451 69.5844 143.633 70.8464 144.361Z" fill="#2B1E37" fill-opacity="0.08"/>
<path d="M134.829 112.698C136.092 113.427 138.138 113.427 139.4 112.698C140.662 111.969 140.662 110.788 139.4 110.059C138.138 109.331 136.092 109.331 134.829 110.059C133.567 110.788 133.567 111.969 134.829 112.698Z" fill="#2B1E37" fill-opacity="0.08"/>
<path d="M125.689 117.975C126.951 118.704 128.997 118.704 130.259 117.975C131.521 117.247 131.521 116.065 130.259 115.337C128.997 114.608 126.951 114.608 125.689 115.337C124.427 116.065 124.427 117.247 125.689 117.975Z" fill="#2B1E37" fill-opacity="0.08"/>
<path d="M116.549 123.252C117.811 123.981 119.857 123.981 121.119 123.252C122.381 122.524 122.381 121.343 121.119 120.614C119.857 119.885 117.811 119.885 116.549 120.614C115.287 121.343 115.287 122.524 116.549 123.252Z" fill="#2B1E37" fill-opacity="0.08"/>
<path d="M107.408 128.53C108.67 129.258 110.716 129.258 111.978 128.53C113.24 127.801 113.24 126.62 111.978 125.891C110.716 125.162 108.67 125.162 107.408 125.891C106.146 126.62 106.146 127.801 107.408 128.53Z" fill="#2B1E37" fill-opacity="0.08"/>
<path d="M98.2677 133.807C99.5298 134.536 101.576 134.536 102.838 133.807C104.1 133.078 104.1 131.897 102.838 131.168C101.576 130.44 99.5298 130.44 98.2677 131.168C97.0057 131.897 97.0057 133.078 98.2677 133.807Z" fill="#2B1E37" fill-opacity="0.08"/>
<path d="M89.1273 139.084C90.3893 139.813 92.4355 139.813 93.6975 139.084C94.9596 138.356 94.9596 137.174 93.6975 136.446C92.4355 135.717 90.3893 135.717 89.1273 136.446C87.8653 137.174 87.8653 138.356 89.1273 139.084Z" fill="#2B1E37" fill-opacity="0.08"/>
<path d="M79.9869 144.361C81.2489 145.09 83.2951 145.09 84.5571 144.361C85.8191 143.633 85.8191 142.451 84.5571 141.723C83.2951 140.994 81.2489 140.994 79.9869 141.723C78.7248 142.451 78.7248 143.633 79.9869 144.361Z" fill="#2B1E37" fill-opacity="0.08"/>
<path d="M134.829 117.975C136.092 118.704 138.138 118.704 139.4 117.975C140.662 117.247 140.662 116.065 139.4 115.337C138.138 114.608 136.092 114.608 134.829 115.337C133.567 116.065 133.567 117.247 134.829 117.975Z" fill="#2B1E37" fill-opacity="0.08"/>
<path d="M125.689 123.252C126.951 123.981 128.997 123.981 130.259 123.252C131.521 122.524 131.521 121.343 130.259 120.614C128.997 119.885 126.951 119.885 125.689 120.614C124.427 121.343 124.427 122.524 125.689 123.252Z" fill="#2B1E37" fill-opacity="0.08"/>
<path d="M116.549 128.53C117.811 129.258 119.857 129.258 121.119 128.53C122.381 127.801 122.381 126.62 121.119 125.891C119.857 125.162 117.811 125.162 116.549 125.891C115.287 126.62 115.287 127.801 116.549 128.53Z" fill="#2B1E37" fill-opacity="0.08"/>
<path d="M107.408 133.807C108.67 134.536 110.716 134.536 111.978 133.807C113.24 133.078 113.24 131.897 111.978 131.168C110.716 130.44 108.67 130.44 107.408 131.168C106.146 131.897 106.146 133.078 107.408 133.807Z" fill="#2B1E37" fill-opacity="0.08"/>
<path d="M98.2677 139.084C99.5298 139.813 101.576 139.813 102.838 139.084C104.1 138.356 104.1 137.174 102.838 136.446C101.576 135.717 99.5298 135.717 98.2677 136.446C97.0057 137.174 97.0057 138.356 98.2677 139.084Z" fill="#2B1E37" fill-opacity="0.08"/>
<path d="M89.1273 144.361C90.3893 145.09 92.4355 145.09 93.6975 144.361C94.9596 143.633 94.9596 142.451 93.6975 141.723C92.4355 140.994 90.3893 140.994 89.1273 141.723C87.8653 142.451 87.8653 143.633 89.1273 144.361Z" fill="#2B1E37" fill-opacity="0.08"/>
<path d="M79.9869 149.639C81.2489 150.367 83.2951 150.367 84.5571 149.639C85.8191 148.91 85.8191 147.729 84.5571 147C83.2951 146.271 81.2489 146.271 79.9869 147C78.7248 147.729 78.7248 148.91 79.9869 149.639Z" fill="#2B1E37" fill-opacity="0.08"/>
<path d="M128.153 68.842L154.263 129.593L151.123 128.333L137.958 100.437L123.076 71.1849L119.853 68.5941L128.153 68.842Z" fill="#908E96"/>
<path d="M70.2358 42.5946L70.4424 41.0459L73.6675 42.11L119.059 68.4869L124.163 71.6937L148.508 123.138L105.916 98.6578L93.5406 91.7022L70.2358 42.5946Z" fill="#E9E8EA"/>
<path d="M114.23 47.0869C113.963 47.156 113.69 46.9954 113.621 46.7281C113.552 46.4607 113.712 46.1879 113.98 46.1188L114.23 47.0869ZM192.267 86.7312L192.514 86.296L192.267 86.7312ZM192.198 93.7322L191.96 93.2922L192.198 93.7322ZM120.492 46.1106L120.246 46.5457L120.492 46.1106ZM117.52 45.7193L117.645 46.2034L117.52 45.7193ZM155.22 113.127C155.463 112.995 155.767 113.086 155.898 113.329C156.029 113.572 155.938 113.875 155.695 114.007L155.22 113.127ZM158.2 112.654C157.957 112.785 157.654 112.695 157.523 112.452C157.392 112.209 157.482 111.905 157.725 111.774L158.2 112.654ZM159.395 110.873C159.638 110.741 159.942 110.832 160.073 111.075C160.204 111.318 160.113 111.621 159.87 111.753L159.395 110.873ZM162.375 110.4C162.132 110.531 161.829 110.441 161.698 110.198C161.567 109.955 161.657 109.651 161.9 109.52L162.375 110.4ZM163.57 108.619C163.813 108.488 164.117 108.578 164.248 108.821C164.379 109.064 164.288 109.368 164.045 109.499L163.57 108.619ZM166.55 108.146C166.307 108.278 166.004 108.187 165.873 107.944C165.742 107.701 165.832 107.398 166.075 107.266L166.55 108.146ZM167.745 106.365C167.988 106.234 168.291 106.324 168.423 106.567C168.554 106.81 168.463 107.114 168.22 107.245L167.745 106.365ZM170.725 105.892C170.482 106.024 170.179 105.933 170.048 105.69C169.917 105.447 170.007 105.144 170.25 105.012L170.725 105.892ZM171.92 104.111C172.163 103.98 172.466 104.07 172.598 104.313C172.729 104.556 172.638 104.86 172.395 104.991L171.92 104.111ZM174.9 103.639C174.657 103.77 174.354 103.679 174.223 103.436C174.091 103.193 174.182 102.89 174.425 102.759L174.9 103.639ZM176.095 101.857C176.338 101.726 176.641 101.816 176.773 102.059C176.904 102.302 176.813 102.606 176.57 102.737L176.095 101.857ZM179.075 101.385C178.832 101.516 178.529 101.425 178.398 101.182C178.266 100.939 178.357 100.636 178.6 100.505L179.075 101.385ZM180.27 99.6031C180.513 99.4719 180.816 99.5626 180.948 99.8056C181.079 100.049 180.988 100.352 180.745 100.483L180.27 99.6031ZM183.25 99.1307C183.007 99.2619 182.704 99.1713 182.573 98.9283C182.441 98.6853 182.532 98.382 182.775 98.2508L183.25 99.1307ZM184.445 97.3492C184.688 97.218 184.991 97.3087 185.123 97.5517C185.254 97.7947 185.163 98.098 184.92 98.2292L184.445 97.3492ZM187.425 96.8768C187.182 97.008 186.879 96.9174 186.748 96.6744C186.616 96.4314 186.707 96.1281 186.95 95.9969L187.425 96.8768ZM188.62 95.0953C188.863 94.9641 189.166 95.0548 189.298 95.2978C189.429 95.5408 189.338 95.8441 189.095 95.9753L188.62 95.0953ZM191.6 94.6229C191.357 94.7541 191.054 94.6635 190.923 94.4205C190.791 94.1775 190.882 93.8742 191.125 93.743L191.6 94.6229ZM192.579 92.8713C192.789 92.6929 193.105 92.719 193.283 92.9298C193.462 93.1405 193.436 93.456 193.225 93.6344L192.579 92.8713ZM194.688 91.2073C194.628 91.4768 194.36 91.6466 194.091 91.5865C193.821 91.5264 193.652 91.2592 193.712 90.9897L194.688 91.2073ZM193.727 89.5034C193.672 89.2327 193.847 88.969 194.118 88.9142C194.388 88.8595 194.652 89.0346 194.707 89.3053L193.727 89.5034ZM193.293 86.8494C193.5 87.032 193.52 87.348 193.337 87.5551C193.154 87.7622 192.838 87.7821 192.631 87.5995L193.293 86.8494ZM191.124 86.6586C190.884 86.5226 190.799 86.2175 190.935 85.9771C191.071 85.7368 191.376 85.6523 191.616 85.7883L191.124 86.6586ZM188.925 84.265C189.165 84.401 189.25 84.7061 189.114 84.9464C188.978 85.1867 188.673 85.2713 188.432 85.1353L188.925 84.265ZM186.638 84.1198C186.398 83.9838 186.313 83.6787 186.449 83.4384C186.585 83.198 186.89 83.1135 187.131 83.2495L186.638 84.1198ZM184.439 81.7262C184.679 81.8622 184.764 82.1673 184.628 82.4076C184.492 82.6479 184.187 82.7325 183.946 82.5965L184.439 81.7262ZM182.152 81.581C181.912 81.445 181.827 81.1399 181.963 80.8996C182.099 80.6593 182.404 80.5747 182.645 80.7107L182.152 81.581ZM179.953 79.1874C180.193 79.3234 180.278 79.6285 180.142 79.8688C180.006 80.1092 179.701 80.1937 179.46 80.0577L179.953 79.1874ZM177.666 79.0422C177.426 78.9062 177.341 78.6011 177.477 78.3608C177.613 78.1205 177.918 78.0359 178.159 78.1719L177.666 79.0422ZM175.467 76.6486C175.707 76.7846 175.792 77.0897 175.656 77.3301C175.52 77.5704 175.215 77.6549 174.974 77.5189L175.467 76.6486ZM173.18 76.5034C172.94 76.3674 172.855 76.0623 172.991 75.822C173.127 75.5817 173.432 75.4971 173.673 75.6331L173.18 76.5034ZM170.981 74.1099C171.221 74.2459 171.306 74.5509 171.17 74.7913C171.034 75.0316 170.729 75.1162 170.488 74.9801L170.981 74.1099ZM168.694 73.9646C168.454 73.8286 168.369 73.5235 168.505 73.2832C168.641 73.0429 168.946 72.9583 169.187 73.0943L168.694 73.9646ZM166.495 71.5711C166.735 71.7071 166.82 72.0122 166.684 72.2525C166.548 72.4928 166.243 72.5774 166.002 72.4414L166.495 71.5711ZM164.208 71.4258C163.968 71.2898 163.883 70.9848 164.019 70.7444C164.155 70.5041 164.46 70.4195 164.701 70.5556L164.208 71.4258ZM162.009 69.0323C162.249 69.1683 162.334 69.4734 162.198 69.7137C162.062 69.954 161.757 70.0386 161.517 69.9026L162.009 69.0323ZM159.722 68.8871C159.482 68.7511 159.397 68.446 159.533 68.2056C159.669 67.9653 159.974 67.8808 160.215 68.0168L159.722 68.8871ZM157.523 66.4935C157.763 66.6295 157.848 66.9346 157.712 67.1749C157.576 67.4152 157.271 67.4998 157.031 67.3638L157.523 66.4935ZM155.236 66.3483C154.996 66.2123 154.911 65.9072 155.047 65.6669C155.183 65.4265 155.488 65.342 155.729 65.478L155.236 66.3483ZM153.037 63.9547C153.277 64.0907 153.362 64.3958 153.226 64.6361C153.09 64.8764 152.785 64.961 152.545 64.825L153.037 63.9547ZM150.75 63.8095C150.51 63.6735 150.425 63.3684 150.561 63.1281C150.697 62.8878 151.002 62.8032 151.243 62.9392L150.75 63.8095ZM148.551 61.4159C148.791 61.5519 148.876 61.857 148.74 62.0973C148.604 62.3377 148.299 62.4222 148.059 62.2862L148.551 61.4159ZM146.264 61.2707C146.024 61.1347 145.939 60.8296 146.075 60.5893C146.211 60.349 146.516 60.2644 146.757 60.4004L146.264 61.2707ZM144.065 58.8771C144.305 59.0131 144.39 59.3182 144.254 59.5585C144.118 59.7989 143.813 59.8834 143.573 59.7474L144.065 58.8771ZM141.778 58.7319C141.538 58.5959 141.453 58.2908 141.589 58.0505C141.725 57.8102 142.03 57.7256 142.271 57.8616L141.778 58.7319ZM139.579 56.3383C139.82 56.4744 139.904 56.7794 139.768 57.0198C139.632 57.2601 139.327 57.3447 139.087 57.2086L139.579 56.3383ZM137.292 56.1931C137.052 56.0571 136.967 55.752 137.103 55.5117C137.239 55.2714 137.544 55.1868 137.785 55.3228L137.292 56.1931ZM135.093 53.7996C135.334 53.9356 135.418 54.2407 135.282 54.481C135.146 54.7213 134.841 54.8059 134.601 54.6699L135.093 53.7996ZM132.806 53.6543C132.566 53.5183 132.481 53.2133 132.617 52.9729C132.753 52.7326 133.058 52.648 133.299 52.784L132.806 53.6543ZM130.607 51.2608C130.848 51.3968 130.932 51.7019 130.796 51.9422C130.66 52.1825 130.355 52.2671 130.115 52.1311L130.607 51.2608ZM128.32 51.1156C128.08 50.9796 127.995 50.6745 128.131 50.4341C128.267 50.1938 128.573 50.1093 128.813 50.2453L128.32 51.1156ZM126.121 48.722C126.362 48.858 126.446 49.1631 126.31 49.4034C126.174 49.6437 125.869 49.7283 125.629 49.5923L126.121 48.722ZM123.834 48.5768C123.594 48.4408 123.509 48.1357 123.645 47.8954C123.781 47.655 124.087 47.5705 124.327 47.7065L123.834 48.5768ZM121.635 46.1832C121.876 46.3192 121.96 46.6243 121.824 46.8646C121.688 47.105 121.383 47.1895 121.143 47.0535L121.635 46.1832ZM119.759 46.3178C119.501 46.2202 119.371 45.9316 119.468 45.6733C119.566 45.415 119.854 45.2847 120.113 45.3824L119.759 46.3178ZM118.074 45.114C118.349 45.0866 118.594 45.2871 118.622 45.5619C118.649 45.8366 118.449 46.0816 118.174 46.1091L118.074 45.114ZM116.962 46.3801C116.695 46.4492 116.422 46.2886 116.353 46.0212C116.284 45.7539 116.444 45.4811 116.712 45.4119L116.962 46.3801ZM114.663 45.9421C114.93 45.8729 115.203 46.0335 115.272 46.3009C115.341 46.5682 115.181 46.841 114.913 46.9102L114.663 45.9421ZM154.385 113.577L155.22 113.127L155.695 114.007L154.86 114.457L154.385 113.577ZM157.725 111.774L159.395 110.873L159.87 111.753L158.2 112.654L157.725 111.774ZM161.9 109.52L163.57 108.619L164.045 109.499L162.375 110.4L161.9 109.52ZM166.075 107.266L167.745 106.365L168.22 107.245L166.55 108.146L166.075 107.266ZM170.25 105.012L171.92 104.111L172.395 104.991L170.725 105.892L170.25 105.012ZM174.425 102.759L176.095 101.857L176.57 102.737L174.9 103.639L174.425 102.759ZM178.6 100.505L180.27 99.6031L180.745 100.483L179.075 101.385L178.6 100.505ZM182.775 98.2508L184.445 97.3492L184.92 98.2292L183.25 99.1307L182.775 98.2508ZM186.95 95.9969L188.62 95.0953L189.095 95.9753L187.425 96.8768L186.95 95.9969ZM191.125 93.743L191.96 93.2922L192.435 94.1722L191.6 94.6229L191.125 93.743ZM191.96 93.2922C192.188 93.169 192.394 93.0274 192.579 92.8713L193.225 93.6344C192.987 93.8356 192.724 94.0162 192.435 94.1722L191.96 93.2922ZM193.712 90.9897C193.821 90.5018 193.826 89.9934 193.727 89.5034L194.707 89.3053C194.834 89.9326 194.827 90.5826 194.688 91.2073L193.712 90.9897ZM192.631 87.5995C192.45 87.4397 192.247 87.2941 192.021 87.1663L192.514 86.296C192.799 86.4577 193.059 86.6436 193.293 86.8494L192.631 87.5995ZM192.021 87.1663L191.124 86.6586L191.616 85.7883L192.514 86.296L192.021 87.1663ZM188.432 85.1353L186.638 84.1198L187.131 83.2495L188.925 84.265L188.432 85.1353ZM183.946 82.5965L182.152 81.581L182.645 80.7107L184.439 81.7262L183.946 82.5965ZM179.46 80.0577L177.666 79.0422L178.159 78.1719L179.953 79.1874L179.46 80.0577ZM174.974 77.5189L173.18 76.5034L173.673 75.6331L175.467 76.6486L174.974 77.5189ZM170.488 74.9801L168.694 73.9646L169.187 73.0943L170.981 74.1099L170.488 74.9801ZM166.002 72.4414L164.208 71.4258L164.701 70.5556L166.495 71.5711L166.002 72.4414ZM161.517 69.9026L159.722 68.8871L160.215 68.0168L162.009 69.0323L161.517 69.9026ZM157.031 67.3638L155.236 66.3483L155.729 65.478L157.523 66.4935L157.031 67.3638ZM152.545 64.825L150.75 63.8095L151.243 62.9392L153.037 63.9547L152.545 64.825ZM148.059 62.2862L146.264 61.2707L146.757 60.4004L148.551 61.4159L148.059 62.2862ZM143.573 59.7474L141.778 58.7319L142.271 57.8616L144.065 58.8771L143.573 59.7474ZM139.087 57.2086L137.292 56.1931L137.785 55.3228L139.579 56.3383L139.087 57.2086ZM134.601 54.6699L132.806 53.6543L133.299 52.784L135.093 53.7996L134.601 54.6699ZM130.115 52.1311L128.32 51.1156L128.813 50.2453L130.607 51.2608L130.115 52.1311ZM125.629 49.5923L123.834 48.5768L124.327 47.7065L126.121 48.722L125.629 49.5923ZM121.143 47.0535L120.246 46.5457L120.738 45.6754L121.635 46.1832L121.143 47.0535ZM120.246 46.5457C120.089 46.4569 119.926 46.3808 119.759 46.3178L120.113 45.3824C120.327 45.4634 120.536 45.5612 120.738 45.6754L120.246 46.5457ZM118.174 46.1091C117.996 46.1268 117.82 46.1582 117.645 46.2034L117.394 45.2352C117.619 45.1771 117.846 45.1368 118.074 45.114L118.174 46.1091ZM117.645 46.2034L116.962 46.3801L116.712 45.4119L117.394 45.2352L117.645 46.2034ZM114.913 46.9102L114.23 47.0869L113.98 46.1188L114.663 45.9421L114.913 46.9102Z" fill="#050013" fill-opacity="0.22"/>
<path d="M181.555 98.6839C181.555 99.4809 182.273 100.127 183.158 100.127C184.044 100.127 184.762 99.4809 184.762 98.6839C184.762 97.8869 184.044 97.2408 183.158 97.2408C182.273 97.2408 181.555 97.8869 181.555 98.6839Z" fill="#4A4A4F"/>
<path d="M168.389 74.1483V134.044C168.389 135.485 167.615 136.814 166.361 137.525L158.262 142.114C157.026 142.814 155.512 142.807 154.284 142.095L114.392 118.97C113.157 118.255 112.398 116.936 112.398 115.51V106.508" stroke="#050013" stroke-opacity="0.22" stroke-linecap="round" stroke-dasharray="2 3"/>
<path d="M165.671 73.2277C165.671 74.5648 166.876 75.6487 168.361 75.6487C169.847 75.6487 171.051 74.5648 171.051 73.2277C171.051 71.8907 169.847 70.8068 168.361 70.8068C166.876 70.8068 165.671 71.8907 165.671 73.2277Z" fill="#4A4A4F"/>
<path fill-rule="evenodd" clip-rule="evenodd" d="M98.2547 44.9811L102.49 47.4263L102.49 42.5358C102.49 41.6355 103.122 41.2706 103.902 41.7207L120.137 51.0942C120.917 51.5444 121.549 52.6391 121.549 53.5395L121.549 58.43L152.608 76.3619C153.388 76.812 154.02 77.9068 154.02 78.8071L154.02 127.755C154.02 128.656 153.388 129.021 152.608 128.57L151.581 127.977L126.105 74.2923C125.038 72.0434 123.369 70.1201 121.598 69.0973L96.8429 54.8051L96.8429 45.7961C96.8429 44.8958 97.475 44.5309 98.2547 44.9811ZM155.431 128.57C155.431 130.356 154.188 131.089 152.646 130.222L152.646 130.223L150.877 129.201L98.9855 99.2417L98.2547 98.8197C97.821 98.5693 97.4101 98.2192 97.0429 97.8055C95.5866 96.4831 94.2847 94.7152 93.3512 92.748L69.795 43.1073C68.742 40.8882 69.7373 39.1557 71.4853 40.1649L95.4311 53.99L95.4311 44.9811C95.4311 43.1804 96.6953 42.4506 98.2547 43.3509L101.078 44.9811L101.078 41.7207C101.078 39.9201 102.342 39.1902 103.902 40.0905L120.137 49.464C121.697 50.3644 122.961 52.5539 122.961 54.3546L122.961 57.6149L152.608 74.7317C154.167 75.632 155.431 77.8216 155.431 79.6222L155.431 128.57ZM121.598 70.7275L71.4853 41.795C70.9026 41.4586 70.5709 42.0362 70.9219 42.7758L93.7753 90.9355L147.415 121.904L124.978 74.6237C124.178 72.9371 122.926 71.4946 121.598 70.7275ZM148.48 124.149L94.8847 93.2062C95.9447 95.1113 97.4253 96.7107 98.9855 97.6115L149.812 126.956L148.48 124.149Z" fill="#908E96"/>
<path fill-rule="evenodd" clip-rule="evenodd" d="M99.2602 70.8968C99.2602 73.0868 100.623 75.6488 102.304 76.6193C103.985 77.5898 105.348 76.6013 105.348 74.4114C105.348 72.2214 103.985 69.6594 102.304 68.6888C100.623 67.7183 99.2602 68.7069 99.2602 70.8968ZM96.2166 78.7694C96.2166 75.9538 97.9686 74.6828 100.13 75.9306L104.478 78.441C104.625 78.5259 104.77 78.6202 104.913 78.7232C104.919 80.0521 105.313 81.4853 105.955 82.7583C104.234 82.0917 102.81 82.7918 102.195 84.487L97.0862 81.5374C96.6059 81.2601 96.2166 80.5281 96.2166 79.9024L96.2166 78.7694ZM112.305 78.428C112.305 80.6179 113.667 83.18 115.348 84.1505C117.029 85.121 118.392 84.1324 118.392 81.9425C118.392 79.7525 117.029 77.1905 115.348 76.22C113.667 75.2495 112.305 76.238 112.305 78.428ZM112.739 83.2418C112.882 83.3037 113.027 83.3769 113.174 83.4617L117.522 85.9721C119.684 87.2199 121.436 90.514 121.436 93.3296V94.4626C121.436 95.0883 121.046 95.3707 120.566 95.0934L115.457 92.1437C114.842 89.7388 113.419 87.3947 111.697 86.0733C112.339 85.5416 112.733 84.5637 112.739 83.2418ZM105.782 79.1941C105.782 81.384 107.145 83.9461 108.826 84.9166C110.507 85.8871 111.87 84.8986 111.87 82.7086C111.87 80.5187 110.507 77.9566 108.826 76.9861C107.145 76.0156 105.782 77.0042 105.782 79.1941ZM102.739 87.0667C102.739 84.2511 104.491 82.9801 106.652 84.2279L111 86.7383C113.161 87.9861 114.913 91.2801 114.913 94.0958V95.2287C114.913 95.8544 114.524 96.1368 114.044 95.8595L103.608 89.8346C103.128 89.5574 102.739 88.8253 102.739 88.1996V87.0667Z" fill="#86848D"/>
<path d="M74.9029 40.0236H71.2349L121.146 68.8478L127.67 69.6147C128.213 69.6784 128.45 68.95 127.974 68.6822L78.8234 41.0501C77.6264 40.3771 76.2762 40.0236 74.9029 40.0236Z" fill="#C8C7CB"/>
<path d="M87.2585 25.7839C87.5339 25.7634 87.7406 25.5236 87.7201 25.2482L87.3863 20.7606C87.3658 20.4852 87.126 20.2786 86.8506 20.2991C86.5752 20.3195 86.3686 20.5594 86.3891 20.8348L86.6857 24.8237L82.6968 25.1204C82.4214 25.1409 82.2147 25.3808 82.2352 25.6561C82.2557 25.9315 82.4956 26.1382 82.7709 26.1177L87.2585 25.7839ZM30.7846 54.7599C28.1507 42.9076 34.9586 29.4268 46.0938 22.0034C57.1831 14.6105 72.5105 13.2711 86.8951 25.6641L87.5478 24.9065C72.7977 12.1986 56.9733 13.5485 45.5391 21.1714C34.1507 28.7636 27.0635 42.6248 29.8084 54.9769L30.7846 54.7599Z" fill="#908E96"/>
<path d="M72.4677 29.6318C72.729 29.5423 72.8682 29.258 72.7787 28.9967L71.3208 24.7395C71.2313 24.4782 70.947 24.339 70.6857 24.4284C70.4245 24.5179 70.2852 24.8022 70.3747 25.0635L71.6707 28.8477L67.8864 30.1437C67.6252 30.2331 67.4859 30.5174 67.5754 30.7787C67.6649 31.0399 67.9492 31.1792 68.2104 31.0897L72.4677 29.6318ZM74.3053 125.206C53.3983 116.829 40.7459 105.605 34.0245 93.786C27.3042 81.969 26.4871 69.5131 29.3281 58.6139C32.1715 47.7059 38.675 38.3727 46.5706 32.8145C54.4626 27.2589 63.6973 25.4991 72.0858 29.6078L72.5256 28.7097C63.7262 24.3998 54.1013 26.2904 45.995 31.9968C37.8924 37.7007 31.2592 47.2413 28.3605 58.3616C25.4595 69.4906 26.295 82.2174 33.1553 94.2803C40.0144 106.341 52.8706 117.695 73.9333 126.134L74.3053 125.206Z" fill="#908E96"/>
<path fill-rule="evenodd" clip-rule="evenodd" d="M40.1923 63.9946C31.3158 60.2898 23.1294 65.003 21.9072 74.5233C20.6852 84.0435 26.8901 94.7647 35.7666 98.4695C44.6432 102.175 52.8296 97.4611 54.0517 87.9409C55.2739 78.4206 49.0689 67.6995 40.1923 63.9946Z" fill="#908E96"/>
<path d="M34.6919 67.0877C43.6621 70.832 49.9344 81.6642 48.7015 91.282C47.4685 100.9 39.1972 105.661 30.2269 101.917C21.2567 98.1728 14.9844 87.3406 16.2173 77.7228C17.4503 68.105 25.7216 63.3435 34.6919 67.0877Z" fill="#E9E8EA"/>
<path fill-rule="evenodd" clip-rule="evenodd" d="M34.6296 67.5715C43.3507 71.2118 49.4488 81.7436 48.25 91.0942C47.0514 100.445 39.0098 105.074 30.2888 101.433C21.5677 97.7931 15.4696 87.2624 16.6684 77.9118C17.867 68.5601 25.9086 63.9312 34.6296 67.5715ZM34.6916 67.0876C43.6618 70.832 49.9342 81.6645 48.7013 91.2825C47.4683 100.9 39.197 105.662 30.2268 101.917C21.2565 98.1729 14.9842 87.3404 16.2171 77.7234C17.4501 68.1054 25.7214 63.3432 34.6916 67.0876Z" fill="#050013" fill-opacity="0.22"/>
<path d="M28.1603 80.1578L32.1315 76.4227C32.8667 75.7359 34.2834 76.582 35.0512 78.1055C35.3382 78.6738 35.4942 79.2711 35.4942 79.7935V83.6441L38.847 85.5756C39.5934 86.0054 40.2204 86.9462 40.5018 87.9068C40.8201 88.9922 41.1669 90.3087 41.0768 90.6188L39.6051 95.6994C39.3646 96.5289 38.6011 96.7547 37.7326 96.2552L30.9219 92.3297C30.3804 92.0185 29.8627 91.4586 29.4945 90.7874L28.1603 88.3532M27.0167 90.0797L24.9721 88.9017C24.3407 88.5385 23.8285 87.6487 23.8285 86.9171V77.6414C23.8285 76.9087 24.3407 76.6101 24.9721 76.9743L27.0167 78.1524C27.6481 78.5166 28.1603 79.4054 28.1603 80.137V89.4126C28.1603 90.1453 27.6481 90.4439 27.0167 90.0797Z" stroke="#86848D" stroke-linecap="round" stroke-linejoin="round"/>
<path fill-rule="evenodd" clip-rule="evenodd" d="M81.4827 96.0094C73.6882 92.7562 66.4997 96.8949 65.4265 105.255C64.3534 113.614 69.8019 123.029 77.5965 126.282C85.391 129.536 92.5796 125.397 93.6527 117.037C94.7259 108.677 89.2773 99.2627 81.4827 96.0094Z" fill="#908E96"/>
<path d="M76.6526 98.7256C84.5294 102.013 90.0372 111.525 88.9545 119.971C87.8719 128.416 80.6088 132.597 72.732 129.309C64.8551 126.022 59.3474 116.51 60.4301 108.064C61.5127 99.6188 68.7758 95.4378 76.6526 98.7256Z" fill="#E9E8EA"/>
<path fill-rule="evenodd" clip-rule="evenodd" d="M76.5976 99.1504C84.2556 102.347 89.6104 111.595 88.5578 119.806C87.5052 128.017 80.4439 132.081 72.7859 128.885C65.1279 125.688 59.7731 116.441 60.8258 108.23C61.8783 100.019 68.9397 95.9538 76.5976 99.1504ZM76.6521 98.7255C84.5289 102.013 90.0366 111.526 88.954 119.971C87.8713 128.416 80.6083 132.598 72.7315 129.31C64.8547 126.022 59.3469 116.51 60.4295 108.065C61.5122 99.6192 68.7753 95.4375 76.6521 98.7255Z" fill="#050013" fill-opacity="0.22"/>
<path d="M70.9172 110.202L74.4043 106.923C75.0499 106.32 76.2939 107.063 76.9682 108.4C77.2201 108.899 77.3571 109.424 77.3571 109.883V113.264L80.3012 114.96C80.9567 115.337 81.5072 116.163 81.7543 117.007C82.0338 117.96 82.3383 119.116 82.2593 119.388L80.9669 123.85C80.7557 124.578 80.0853 124.776 79.3227 124.338L73.3422 120.891C72.8667 120.617 72.4121 120.126 72.0887 119.536L70.9172 117.399M69.913 118.915L68.1176 117.881C67.5632 117.562 67.1134 116.78 67.1134 116.138V107.993C67.1134 107.349 67.5632 107.087 68.1176 107.407L69.913 108.442C70.4674 108.761 70.9172 109.542 70.9172 110.184V118.329C70.9172 118.973 70.4674 119.235 69.913 118.915Z" stroke="#86848D" stroke-linecap="round" stroke-linejoin="round"/>
</g>
<defs>
<clipPath id="clip0_623_8765">
<rect width="200" height="150" fill="white"/>
</clipPath>
</defs>
</svg>
