<svg width="200" height="150" viewBox="0 0 200 150" fill="none" xmlns="http://www.w3.org/2000/svg">
<g clip-path="url(#clip0_647_4500)">
<path d="M124.042 63.9C122.479 64.8021 119.946 64.8021 118.384 63.9C116.821 62.998 116.821 61.5354 118.384 60.6333C119.946 59.7313 122.479 59.7313 124.042 60.6333C125.604 61.5354 125.604 62.998 124.042 63.9Z" fill="#EEEDEF"/>
<path d="M135.358 70.4334C133.795 71.3355 131.262 71.3355 129.7 70.4334C128.137 69.5313 128.137 68.0688 129.7 67.1667C131.262 66.2646 133.795 66.2646 135.358 67.1667C136.92 68.0688 136.92 69.5313 135.358 70.4334Z" fill="#EEEDEF"/>
<path d="M146.674 76.9667C145.112 77.8688 142.578 77.8688 141.016 76.9667C139.454 76.0647 139.454 74.6021 141.016 73.7001C142.578 72.798 145.112 72.798 146.674 73.7001C148.236 74.6021 148.236 76.0647 146.674 76.9667Z" fill="#EEEDEF"/>
<path d="M157.99 83.5001C156.428 84.4022 153.894 84.4022 152.332 83.5001C150.77 82.598 150.77 81.1355 152.332 80.2334C153.894 79.3314 156.428 79.3314 157.99 80.2334C159.553 81.1355 159.553 82.598 157.99 83.5001Z" fill="#EEEDEF"/>
<path d="M169.306 90.0335C167.744 90.9355 165.211 90.9355 163.648 90.0335C162.086 89.1314 162.086 87.6689 163.648 86.7668C165.211 85.8647 167.744 85.8647 169.306 86.7668C170.869 87.6689 170.869 89.1314 169.306 90.0335Z" fill="#EEEDEF"/>
<path d="M180.622 96.5668C179.06 97.4689 176.527 97.4689 174.964 96.5668C173.402 95.6648 173.402 94.2022 174.964 93.3002C176.527 92.3981 179.06 92.3981 180.622 93.3001C182.185 94.2022 182.185 95.6648 180.622 96.5668Z" fill="#EEEDEF"/>
<path d="M191.938 103.1C190.376 104.002 187.843 104.002 186.28 103.1C184.718 102.198 184.718 100.736 186.28 99.8335C187.843 98.9314 190.376 98.9314 191.938 99.8335C193.501 100.736 193.501 102.198 191.938 103.1Z" fill="#EEEDEF"/>
<path d="M124.042 70.4334C122.479 71.3355 119.946 71.3355 118.384 70.4334C116.821 69.5313 116.821 68.0688 118.384 67.1667C119.946 66.2646 122.479 66.2646 124.042 67.1667C125.604 68.0688 125.604 69.5313 124.042 70.4334Z" fill="#EEEDEF"/>
<path d="M135.358 76.9667C133.795 77.8688 131.262 77.8688 129.7 76.9667C128.137 76.0647 128.137 74.6021 129.7 73.7001C131.262 72.798 133.795 72.798 135.358 73.7001C136.92 74.6021 136.92 76.0647 135.358 76.9667Z" fill="#EEEDEF"/>
<path d="M146.674 83.5001C145.112 84.4022 142.578 84.4022 141.016 83.5001C139.454 82.598 139.454 81.1355 141.016 80.2334C142.578 79.3314 145.112 79.3314 146.674 80.2334C148.236 81.1355 148.236 82.598 146.674 83.5001Z" fill="#EEEDEF"/>
<path d="M157.99 90.0335C156.428 90.9355 153.894 90.9355 152.332 90.0335C150.77 89.1314 150.77 87.6689 152.332 86.7668C153.894 85.8647 156.428 85.8647 157.99 86.7668C159.553 87.6689 159.553 89.1314 157.99 90.0335Z" fill="#EEEDEF"/>
<path d="M169.306 96.5668C167.744 97.4689 165.211 97.4689 163.648 96.5668C162.086 95.6648 162.086 94.2022 163.648 93.3002C165.211 92.3981 167.744 92.3981 169.306 93.3002C170.869 94.2022 170.869 95.6648 169.306 96.5668Z" fill="#EEEDEF"/>
<path d="M180.622 103.1C179.06 104.002 176.527 104.002 174.964 103.1C173.402 102.198 173.402 100.736 174.964 99.8335C176.527 98.9314 179.06 98.9314 180.622 99.8335C182.185 100.736 182.185 102.198 180.622 103.1Z" fill="#EEEDEF"/>
<path d="M191.938 109.634C190.376 110.536 187.843 110.536 186.28 109.634C184.718 108.731 184.718 107.269 186.28 106.367C187.843 105.465 190.376 105.465 191.938 106.367C193.501 107.269 193.501 108.731 191.938 109.634Z" fill="#EEEDEF"/>
<path d="M112.726 70.4334C111.163 71.3355 108.63 71.3355 107.068 70.4334C105.505 69.5313 105.505 68.0688 107.068 67.1667C108.63 66.2646 111.163 66.2646 112.726 67.1667C114.288 68.0688 114.288 69.5313 112.726 70.4334Z" fill="#EEEDEF"/>
<path d="M124.042 76.9667C122.479 77.8688 119.946 77.8688 118.384 76.9667C116.821 76.0647 116.821 74.6021 118.384 73.7001C119.946 72.798 122.479 72.798 124.042 73.7001C125.604 74.6021 125.604 76.0647 124.042 76.9667Z" fill="#EEEDEF"/>
<path d="M135.358 83.5001C133.795 84.4022 131.262 84.4022 129.7 83.5001C128.137 82.598 128.137 81.1355 129.7 80.2334C131.262 79.3314 133.795 79.3314 135.358 80.2334C136.92 81.1355 136.92 82.598 135.358 83.5001Z" fill="#EEEDEF"/>
<path d="M146.674 90.0335C145.112 90.9355 142.578 90.9355 141.016 90.0335C139.454 89.1314 139.454 87.6689 141.016 86.7668C142.578 85.8647 145.112 85.8647 146.674 86.7668C148.236 87.6689 148.236 89.1314 146.674 90.0335Z" fill="#EEEDEF"/>
<path d="M157.99 96.5668C156.428 97.4689 153.894 97.4689 152.332 96.5668C150.77 95.6648 150.77 94.2022 152.332 93.3002C153.894 92.3981 156.428 92.3981 157.99 93.3002C159.553 94.2022 159.553 95.6648 157.99 96.5668Z" fill="#EEEDEF"/>
<path d="M169.306 103.1C167.744 104.002 165.211 104.002 163.648 103.1C162.086 102.198 162.086 100.736 163.648 99.8335C165.211 98.9314 167.744 98.9314 169.306 99.8335C170.869 100.736 170.869 102.198 169.306 103.1Z" fill="#EEEDEF"/>
<path d="M180.622 109.634C179.06 110.536 176.527 110.536 174.964 109.634C173.402 108.731 173.402 107.269 174.964 106.367C176.527 105.465 179.06 105.465 180.622 106.367C182.185 107.269 182.185 108.731 180.622 109.634Z" fill="#EEEDEF"/>
<path d="M112.726 76.9667C111.163 77.8688 108.63 77.8688 107.068 76.9667C105.505 76.0647 105.505 74.6021 107.068 73.7001C108.63 72.798 111.163 72.798 112.726 73.7001C114.288 74.6021 114.288 76.0647 112.726 76.9667Z" fill="#EEEDEF"/>
<path d="M124.042 83.5001C122.479 84.4022 119.946 84.4022 118.384 83.5001C116.821 82.598 116.821 81.1355 118.384 80.2334C119.946 79.3314 122.479 79.3314 124.042 80.2334C125.604 81.1355 125.604 82.598 124.042 83.5001Z" fill="#EEEDEF"/>
<path d="M135.358 90.0335C133.795 90.9355 131.262 90.9355 129.7 90.0335C128.137 89.1314 128.137 87.6689 129.7 86.7668C131.262 85.8647 133.795 85.8647 135.358 86.7668C136.92 87.6689 136.92 89.1314 135.358 90.0335Z" fill="#EEEDEF"/>
<path d="M146.674 96.5668C145.112 97.4689 142.578 97.4689 141.016 96.5668C139.454 95.6648 139.454 94.2022 141.016 93.3002C142.578 92.3981 145.112 92.3981 146.674 93.3002C148.236 94.2022 148.236 95.6648 146.674 96.5668Z" fill="#EEEDEF"/>
<path d="M157.99 103.1C156.428 104.002 153.894 104.002 152.332 103.1C150.77 102.198 150.77 100.736 152.332 99.8335C153.894 98.9314 156.428 98.9314 157.99 99.8335C159.553 100.736 159.553 102.198 157.99 103.1Z" fill="#EEEDEF"/>
<path d="M169.306 109.634C167.744 110.536 165.211 110.536 163.648 109.634C162.086 108.731 162.086 107.269 163.648 106.367C165.211 105.465 167.744 105.465 169.306 106.367C170.869 107.269 170.869 108.731 169.306 109.634Z" fill="#EEEDEF"/>
<path d="M180.622 116.167C179.06 117.069 176.527 117.069 174.964 116.167C173.402 115.265 173.402 113.802 174.964 112.9C176.527 111.998 179.06 111.998 180.622 112.9C182.185 113.802 182.185 115.265 180.622 116.167Z" fill="#EEEDEF"/>
<path d="M101.41 76.9667C99.8471 77.8688 97.314 77.8688 95.7515 76.9667C94.1891 76.0647 94.1891 74.6021 95.7515 73.7001C97.3139 72.798 99.8471 72.798 101.41 73.7001C102.972 74.6021 102.972 76.0647 101.41 76.9667Z" fill="#EEEDEF"/>
<path d="M112.726 83.5001C111.163 84.4022 108.63 84.4022 107.068 83.5001C105.505 82.598 105.505 81.1355 107.068 80.2334C108.63 79.3314 111.163 79.3314 112.726 80.2334C114.288 81.1355 114.288 82.598 112.726 83.5001Z" fill="#EEEDEF"/>
<path d="M124.042 90.0335C122.479 90.9355 119.946 90.9355 118.384 90.0335C116.821 89.1314 116.821 87.6689 118.384 86.7668C119.946 85.8647 122.479 85.8647 124.042 86.7668C125.604 87.6689 125.604 89.1314 124.042 90.0335Z" fill="#EEEDEF"/>
<path d="M135.358 96.5668C133.795 97.4689 131.262 97.4689 129.7 96.5668C128.137 95.6648 128.137 94.2022 129.7 93.3002C131.262 92.3981 133.795 92.3981 135.358 93.3002C136.92 94.2022 136.92 95.6648 135.358 96.5668Z" fill="#EEEDEF"/>
<path d="M146.674 103.1C145.112 104.002 142.578 104.002 141.016 103.1C139.454 102.198 139.454 100.736 141.016 99.8335C142.578 98.9314 145.112 98.9314 146.674 99.8335C148.236 100.736 148.236 102.198 146.674 103.1Z" fill="#EEEDEF"/>
<path d="M157.99 109.634C156.428 110.536 153.894 110.536 152.332 109.634C150.77 108.731 150.77 107.269 152.332 106.367C153.894 105.465 156.428 105.465 157.99 106.367C159.553 107.269 159.553 108.731 157.99 109.634Z" fill="#EEEDEF"/>
<path d="M169.306 116.167C167.744 117.069 165.211 117.069 163.648 116.167C162.086 115.265 162.086 113.802 163.648 112.9C165.211 111.998 167.744 111.998 169.306 112.9C170.869 113.802 170.869 115.265 169.306 116.167Z" fill="#EEEDEF"/>
<path d="M101.41 83.5001C99.8471 84.4022 97.3139 84.4022 95.7515 83.5001C94.1891 82.598 94.1891 81.1355 95.7515 80.2334C97.3139 79.3314 99.8471 79.3314 101.41 80.2334C102.972 81.1355 102.972 82.598 101.41 83.5001Z" fill="#EEEDEF"/>
<path d="M112.726 90.0335C111.163 90.9355 108.63 90.9355 107.068 90.0335C105.505 89.1314 105.505 87.6689 107.068 86.7668C108.63 85.8647 111.163 85.8647 112.726 86.7668C114.288 87.6689 114.288 89.1314 112.726 90.0335Z" fill="#EEEDEF"/>
<path d="M124.042 96.5668C122.479 97.4689 119.946 97.4689 118.384 96.5668C116.821 95.6648 116.821 94.2022 118.384 93.3002C119.946 92.3981 122.479 92.3981 124.042 93.3002C125.604 94.2022 125.604 95.6648 124.042 96.5668Z" fill="#EEEDEF"/>
<path d="M135.358 103.1C133.795 104.002 131.262 104.002 129.7 103.1C128.137 102.198 128.137 100.736 129.7 99.8335C131.262 98.9314 133.795 98.9314 135.358 99.8335C136.92 100.736 136.92 102.198 135.358 103.1Z" fill="#EEEDEF"/>
<path d="M146.674 109.634C145.112 110.536 142.578 110.536 141.016 109.634C139.454 108.731 139.454 107.269 141.016 106.367C142.578 105.465 145.112 105.465 146.674 106.367C148.236 107.269 148.236 108.731 146.674 109.634Z" fill="#EEEDEF"/>
<path d="M157.99 116.167C156.428 117.069 153.894 117.069 152.332 116.167C150.77 115.265 150.77 113.802 152.332 112.9C153.894 111.998 156.428 111.998 157.99 112.9C159.553 113.802 159.553 115.265 157.99 116.167Z" fill="#EEEDEF"/>
<path d="M169.306 122.7C167.744 123.602 165.211 123.602 163.648 122.7C162.086 121.798 162.086 120.336 163.648 119.434C165.211 118.532 167.744 118.532 169.306 119.434C170.869 120.336 170.869 121.798 169.306 122.7Z" fill="#EEEDEF"/>
<path d="M90.0935 83.5001C88.531 84.4022 85.9978 84.4022 84.4354 83.5001C82.873 82.598 82.873 81.1355 84.4354 80.2334C85.9978 79.3314 88.531 79.3314 90.0935 80.2334C91.6559 81.1355 91.6559 82.598 90.0935 83.5001Z" fill="#EEEDEF"/>
<path d="M101.41 90.0335C99.8471 90.9355 97.314 90.9355 95.7515 90.0335C94.1891 89.1314 94.1891 87.6689 95.7515 86.7668C97.3139 85.8647 99.8471 85.8647 101.41 86.7668C102.972 87.6689 102.972 89.1314 101.41 90.0335Z" fill="#EEEDEF"/>
<path d="M112.726 96.5668C111.163 97.4689 108.63 97.4689 107.068 96.5668C105.505 95.6648 105.505 94.2022 107.068 93.3002C108.63 92.3981 111.163 92.3981 112.726 93.3002C114.288 94.2022 114.288 95.6648 112.726 96.5668Z" fill="#EEEDEF"/>
<path d="M124.042 103.1C122.479 104.002 119.946 104.002 118.384 103.1C116.821 102.198 116.821 100.736 118.384 99.8335C119.946 98.9314 122.479 98.9314 124.042 99.8335C125.604 100.736 125.604 102.198 124.042 103.1Z" fill="#EEEDEF"/>
<path d="M135.358 109.634C133.795 110.536 131.262 110.536 129.7 109.634C128.137 108.731 128.137 107.269 129.7 106.367C131.262 105.465 133.795 105.465 135.358 106.367C136.92 107.269 136.92 108.731 135.358 109.634Z" fill="#EEEDEF"/>
<path d="M146.674 116.167C145.112 117.069 142.578 117.069 141.016 116.167C139.454 115.265 139.454 113.802 141.016 112.9C142.578 111.998 145.112 111.998 146.674 112.9C148.236 113.802 148.236 115.265 146.674 116.167Z" fill="#EEEDEF"/>
<path d="M157.99 122.7C156.428 123.602 153.894 123.602 152.332 122.7C150.77 121.798 150.77 120.336 152.332 119.434C153.894 118.532 156.428 118.532 157.99 119.434C159.553 120.336 159.553 121.798 157.99 122.7Z" fill="#EEEDEF"/>
<path d="M90.0935 90.0335C88.531 90.9355 85.9978 90.9355 84.4354 90.0335C82.873 89.1314 82.873 87.6689 84.4354 86.7668C85.9978 85.8647 88.531 85.8647 90.0935 86.7668C91.6559 87.6689 91.6559 89.1314 90.0935 90.0335Z" fill="#EEEDEF"/>
<path d="M101.41 96.5668C99.8471 97.4689 97.3139 97.4689 95.7515 96.5668C94.1891 95.6648 94.1891 94.2022 95.7515 93.3002C97.3139 92.3981 99.8471 92.3981 101.41 93.3002C102.972 94.2022 102.972 95.6648 101.41 96.5668Z" fill="#EEEDEF"/>
<path d="M112.726 103.1C111.163 104.002 108.63 104.002 107.068 103.1C105.505 102.198 105.505 100.736 107.068 99.8335C108.63 98.9314 111.163 98.9314 112.726 99.8335C114.288 100.736 114.288 102.198 112.726 103.1Z" fill="#EEEDEF"/>
<path d="M124.042 109.634C122.479 110.536 119.946 110.536 118.384 109.634C116.821 108.731 116.821 107.269 118.384 106.367C119.946 105.465 122.479 105.465 124.042 106.367C125.604 107.269 125.604 108.731 124.042 109.634Z" fill="#EEEDEF"/>
<path d="M135.358 116.167C133.795 117.069 131.262 117.069 129.7 116.167C128.137 115.265 128.137 113.802 129.7 112.9C131.262 111.998 133.795 111.998 135.358 112.9C136.92 113.802 136.92 115.265 135.358 116.167Z" fill="#EEEDEF"/>
<path d="M146.674 122.7C145.112 123.602 142.578 123.602 141.016 122.7C139.454 121.798 139.454 120.336 141.016 119.434C142.578 118.532 145.112 118.532 146.674 119.434C148.236 120.336 148.236 121.798 146.674 122.7Z" fill="#EEEDEF"/>
<path d="M157.99 129.234C156.428 130.136 153.894 130.136 152.332 129.234C150.77 128.332 150.77 126.869 152.332 125.967C153.894 125.065 156.428 125.065 157.99 125.967C159.553 126.869 159.553 128.332 157.99 129.234Z" fill="#EEEDEF"/>
<path d="M78.7774 90.0335C77.2149 90.9355 74.6817 90.9355 73.1193 90.0335C71.5569 89.1314 71.5569 87.6689 73.1193 86.7668C74.6817 85.8647 77.2149 85.8647 78.7774 86.7668C80.3398 87.6689 80.3398 89.1314 78.7774 90.0335Z" fill="#EEEDEF"/>
<path d="M90.0935 96.5668C88.531 97.4689 85.9978 97.4689 84.4354 96.5668C82.873 95.6648 82.873 94.2022 84.4354 93.3002C85.9978 92.3981 88.531 92.3981 90.0935 93.3002C91.6559 94.2022 91.6559 95.6648 90.0935 96.5668Z" fill="#EEEDEF"/>
<path d="M101.41 103.1C99.8471 104.002 97.3139 104.002 95.7515 103.1C94.1891 102.198 94.1891 100.736 95.7515 99.8335C97.3139 98.9314 99.8471 98.9314 101.41 99.8335C102.972 100.736 102.972 102.198 101.41 103.1Z" fill="#EEEDEF"/>
<path d="M112.726 109.634C111.163 110.536 108.63 110.536 107.068 109.634C105.505 108.731 105.505 107.269 107.068 106.367C108.63 105.465 111.163 105.465 112.726 106.367C114.288 107.269 114.288 108.731 112.726 109.634Z" fill="#EEEDEF"/>
<path d="M124.042 116.167C122.479 117.069 119.946 117.069 118.384 116.167C116.821 115.265 116.821 113.802 118.384 112.9C119.946 111.998 122.479 111.998 124.042 112.9C125.604 113.802 125.604 115.265 124.042 116.167Z" fill="#EEEDEF"/>
<path d="M135.358 122.7C133.795 123.602 131.262 123.602 129.7 122.7C128.137 121.798 128.137 120.336 129.7 119.434C131.262 118.532 133.795 118.532 135.358 119.434C136.92 120.336 136.92 121.798 135.358 122.7Z" fill="#EEEDEF"/>
<path d="M146.674 129.234C145.112 130.136 142.578 130.136 141.016 129.234C139.454 128.332 139.454 126.869 141.016 125.967C142.578 125.065 145.112 125.065 146.674 125.967C148.236 126.869 148.236 128.332 146.674 129.234Z" fill="#EEEDEF"/>
<path d="M78.7774 96.5668C77.2149 97.4689 74.6817 97.4689 73.1193 96.5668C71.5569 95.6648 71.5569 94.2022 73.1193 93.3002C74.6817 92.3981 77.2149 92.3981 78.7774 93.3002C80.3398 94.2022 80.3398 95.6648 78.7774 96.5668Z" fill="#EEEDEF"/>
<path d="M90.0935 103.1C88.531 104.002 85.9978 104.002 84.4354 103.1C82.873 102.198 82.873 100.736 84.4354 99.8335C85.9978 98.9314 88.531 98.9314 90.0935 99.8335C91.6559 100.736 91.6559 102.198 90.0935 103.1Z" fill="#EEEDEF"/>
<path d="M101.41 109.634C99.8471 110.536 97.314 110.536 95.7515 109.634C94.1891 108.731 94.1891 107.269 95.7515 106.367C97.3139 105.465 99.8471 105.465 101.41 106.367C102.972 107.269 102.972 108.731 101.41 109.634Z" fill="#EEEDEF"/>
<path d="M112.726 116.167C111.163 117.069 108.63 117.069 107.068 116.167C105.505 115.265 105.505 113.802 107.068 112.9C108.63 111.998 111.163 111.998 112.726 112.9C114.288 113.802 114.288 115.265 112.726 116.167Z" fill="#EEEDEF"/>
<path d="M124.042 122.7C122.479 123.602 119.946 123.602 118.384 122.7C116.821 121.798 116.821 120.336 118.384 119.434C119.946 118.532 122.479 118.532 124.042 119.434C125.604 120.336 125.604 121.798 124.042 122.7Z" fill="#EEEDEF"/>
<path d="M135.358 129.234C133.795 130.136 131.262 130.136 129.7 129.234C128.137 128.332 128.137 126.869 129.7 125.967C131.262 125.065 133.795 125.065 135.358 125.967C136.92 126.869 136.92 128.332 135.358 129.234Z" fill="#EEEDEF"/>
<path d="M146.674 135.767C145.112 136.669 142.578 136.669 141.016 135.767C139.454 134.865 139.454 133.402 141.016 132.5C142.578 131.598 145.112 131.598 146.674 132.5C148.236 133.402 148.236 134.865 146.674 135.767Z" fill="#EEEDEF"/>
<path d="M67.4612 96.5668C65.8988 97.4689 63.3656 97.4689 61.8032 96.5668C60.2408 95.6648 60.2408 94.2022 61.8032 93.3002C63.3656 92.3981 65.8988 92.3981 67.4612 93.3002C69.0237 94.2022 69.0237 95.6648 67.4612 96.5668Z" fill="#EEEDEF"/>
<path d="M78.7774 103.1C77.2149 104.002 74.6817 104.002 73.1193 103.1C71.5569 102.198 71.5569 100.736 73.1193 99.8335C74.6817 98.9314 77.2149 98.9314 78.7774 99.8335C80.3398 100.736 80.3398 102.198 78.7774 103.1Z" fill="#EEEDEF"/>
<path d="M90.0935 109.634C88.531 110.536 85.9978 110.536 84.4354 109.634C82.873 108.731 82.873 107.269 84.4354 106.367C85.9978 105.465 88.531 105.465 90.0935 106.367C91.6559 107.269 91.6559 108.731 90.0935 109.634Z" fill="#EEEDEF"/>
<path d="M101.41 116.167C99.8471 117.069 97.3139 117.069 95.7515 116.167C94.1891 115.265 94.1891 113.802 95.7515 112.9C97.314 111.998 99.8471 111.998 101.41 112.9C102.972 113.802 102.972 115.265 101.41 116.167Z" fill="#EEEDEF"/>
<path d="M112.726 122.7C111.163 123.602 108.63 123.602 107.068 122.7C105.505 121.798 105.505 120.336 107.068 119.434C108.63 118.532 111.163 118.532 112.726 119.434C114.288 120.336 114.288 121.798 112.726 122.7Z" fill="#EEEDEF"/>
<path d="M124.042 129.234C122.479 130.136 119.946 130.136 118.384 129.234C116.821 128.332 116.821 126.869 118.384 125.967C119.946 125.065 122.479 125.065 124.042 125.967C125.604 126.869 125.604 128.332 124.042 129.234Z" fill="#EEEDEF"/>
<path d="M135.358 135.767C133.795 136.669 131.262 136.669 129.7 135.767C128.137 134.865 128.137 133.402 129.7 132.5C131.262 131.598 133.795 131.598 135.358 132.5C136.92 133.402 136.92 134.865 135.358 135.767Z" fill="#EEEDEF"/>
<path d="M67.4612 103.1C65.8988 104.002 63.3656 104.002 61.8032 103.1C60.2408 102.198 60.2408 100.736 61.8032 99.8335C63.3656 98.9314 65.8988 98.9314 67.4612 99.8335C69.0237 100.736 69.0237 102.198 67.4612 103.1Z" fill="#EEEDEF"/>
<path d="M78.7774 109.634C77.2149 110.536 74.6817 110.536 73.1193 109.634C71.5569 108.731 71.5569 107.269 73.1193 106.367C74.6817 105.465 77.2149 105.465 78.7774 106.367C80.3398 107.269 80.3398 108.731 78.7774 109.634Z" fill="#EEEDEF"/>
<path d="M90.0935 116.167C88.531 117.069 85.9978 117.069 84.4354 116.167C82.873 115.265 82.873 113.802 84.4354 112.9C85.9978 111.998 88.531 111.998 90.0935 112.9C91.6559 113.802 91.6559 115.265 90.0935 116.167Z" fill="#EEEDEF"/>
<path d="M101.41 122.7C99.8471 123.602 97.3139 123.602 95.7515 122.7C94.1891 121.798 94.1891 120.336 95.7515 119.434C97.3139 118.532 99.8471 118.532 101.41 119.434C102.972 120.336 102.972 121.798 101.41 122.7Z" fill="#EEEDEF"/>
<path d="M112.726 129.234C111.163 130.136 108.63 130.136 107.068 129.234C105.505 128.332 105.505 126.869 107.068 125.967C108.63 125.065 111.163 125.065 112.726 125.967C114.288 126.869 114.288 128.332 112.726 129.234Z" fill="#EEEDEF"/>
<path d="M124.042 135.767C122.479 136.669 119.946 136.669 118.384 135.767C116.821 134.865 116.821 133.402 118.384 132.5C119.946 131.598 122.479 131.598 124.042 132.5C125.604 133.402 125.604 134.865 124.042 135.767Z" fill="#EEEDEF"/>
<path d="M135.358 142.3C133.795 143.202 131.262 143.202 129.7 142.3C128.137 141.398 128.137 139.936 129.7 139.034C131.262 138.132 133.795 138.132 135.358 139.034C136.92 139.936 136.92 141.398 135.358 142.3Z" fill="#EEEDEF"/>
<path d="M56.1451 103.1C54.5827 104.002 52.0495 104.002 50.4871 103.1C48.9247 102.198 48.9247 100.736 50.4871 99.8335C52.0495 98.9314 54.5827 98.9314 56.1451 99.8335C57.7076 100.736 57.7076 102.198 56.1451 103.1Z" fill="#EEEDEF"/>
<path d="M67.4612 109.634C65.8988 110.536 63.3656 110.536 61.8032 109.634C60.2408 108.731 60.2408 107.269 61.8032 106.367C63.3656 105.465 65.8988 105.465 67.4612 106.367C69.0237 107.269 69.0237 108.731 67.4612 109.634Z" fill="#EEEDEF"/>
<path d="M78.7774 116.167C77.2149 117.069 74.6817 117.069 73.1193 116.167C71.5569 115.265 71.5569 113.802 73.1193 112.9C74.6817 111.998 77.2149 111.998 78.7774 112.9C80.3398 113.802 80.3398 115.265 78.7774 116.167Z" fill="#EEEDEF"/>
<path d="M90.0935 122.7C88.531 123.602 85.9978 123.602 84.4354 122.7C82.873 121.798 82.873 120.336 84.4354 119.434C85.9978 118.532 88.531 118.532 90.0935 119.434C91.6559 120.336 91.6559 121.798 90.0935 122.7Z" fill="#EEEDEF"/>
<path d="M101.41 129.234C99.8471 130.136 97.3139 130.136 95.7515 129.234C94.1891 128.332 94.1891 126.869 95.7515 125.967C97.3139 125.065 99.8471 125.065 101.41 125.967C102.972 126.869 102.972 128.332 101.41 129.234Z" fill="#EEEDEF"/>
<path d="M112.726 135.767C111.163 136.669 108.63 136.669 107.068 135.767C105.505 134.865 105.505 133.402 107.068 132.5C108.63 131.598 111.163 131.598 112.726 132.5C114.288 133.402 114.288 134.865 112.726 135.767Z" fill="#EEEDEF"/>
<path d="M124.042 142.3C122.479 143.202 119.946 143.202 118.384 142.3C116.821 141.398 116.821 139.936 118.384 139.034C119.946 138.132 122.479 138.132 124.042 139.034C125.604 139.936 125.604 141.398 124.042 142.3Z" fill="#EEEDEF"/>
<path d="M56.1451 109.634C54.5827 110.536 52.0495 110.536 50.4871 109.634C48.9247 108.731 48.9247 107.269 50.4871 106.367C52.0495 105.465 54.5827 105.465 56.1451 106.367C57.7076 107.269 57.7076 108.731 56.1451 109.634Z" fill="#EEEDEF"/>
<path d="M67.4612 116.167C65.8988 117.069 63.3656 117.069 61.8032 116.167C60.2408 115.265 60.2408 113.802 61.8032 112.9C63.3656 111.998 65.8988 111.998 67.4612 112.9C69.0237 113.802 69.0237 115.265 67.4612 116.167Z" fill="#EEEDEF"/>
<path d="M78.7774 122.7C77.2149 123.602 74.6817 123.602 73.1193 122.7C71.5569 121.798 71.5569 120.336 73.1193 119.434C74.6817 118.532 77.2149 118.532 78.7774 119.434C80.3398 120.336 80.3398 121.798 78.7774 122.7Z" fill="#EEEDEF"/>
<path d="M90.0935 129.234C88.531 130.136 85.9978 130.136 84.4354 129.234C82.873 128.332 82.873 126.869 84.4354 125.967C85.9978 125.065 88.531 125.065 90.0935 125.967C91.6559 126.869 91.6559 128.332 90.0935 129.234Z" fill="#EEEDEF"/>
<path d="M101.41 135.767C99.8471 136.669 97.3139 136.669 95.7515 135.767C94.1891 134.865 94.1891 133.402 95.7515 132.5C97.3139 131.598 99.8471 131.598 101.41 132.5C102.972 133.402 102.972 134.865 101.41 135.767Z" fill="#EEEDEF"/>
<path d="M112.726 142.3C111.163 143.202 108.63 143.202 107.068 142.3C105.505 141.398 105.505 139.936 107.068 139.034C108.63 138.132 111.163 138.132 112.726 139.034C114.288 139.936 114.288 141.398 112.726 142.3Z" fill="#EEEDEF"/>
<path d="M124.042 148.834C122.479 149.736 119.946 149.736 118.384 148.834C116.821 147.932 116.821 146.469 118.384 145.567C119.946 144.665 122.479 144.665 124.042 145.567C125.604 146.469 125.604 147.932 124.042 148.834Z" fill="#EEEDEF"/>
<path d="M7.01695 52.0094L73.5095 14.3787C76.176 12.8696 79.4796 14.796 79.4796 17.8599V70.96C79.4796 72.2415 78.8656 73.4454 77.8284 74.1978L20.3488 115.895C17.7043 117.813 14 115.924 14 112.657V64.6342C14 63.0358 13.0484 61.5909 11.58 60.9595L7.40709 59.1653C4.36838 57.8588 4.1383 53.6385 7.01695 52.0094Z" stroke="#050013" stroke-opacity="0.22" stroke-linecap="round" stroke-dasharray="2 3"/>
<path d="M85.7468 32.4383C88.0723 31.1051 91.8427 31.1051 94.1682 32.4383L177.888 80.4314C180.213 81.7646 180.213 83.926 177.888 85.2591L114.351 121.682C112.026 123.015 108.256 123.015 105.93 121.682L22.2107 73.6888C19.8852 72.3557 19.8852 70.1943 22.2107 68.8611L85.7468 32.4383Z" fill="#86848D"/>
<path fill-rule="evenodd" clip-rule="evenodd" d="M176.835 81.0349L93.1155 33.0417C91.3714 32.0419 88.5436 32.0419 86.7995 33.0417L23.2634 69.4646C21.5193 70.4644 21.5193 72.0855 23.2634 73.0854L106.983 121.079C108.727 122.078 111.555 122.078 113.299 121.079L176.835 84.6556C178.579 83.6558 178.579 82.0347 176.835 81.0349ZM94.1682 32.4383C91.8427 31.1051 88.0723 31.1051 85.7468 32.4383L22.2107 68.8611C19.8852 70.1943 19.8852 72.3557 22.2107 73.6888L105.93 121.682C108.256 123.015 112.026 123.015 114.351 121.682L177.888 85.2591C180.213 83.926 180.213 81.7646 177.888 80.4314L94.1682 32.4383Z" fill="#86848D"/>
<path d="M85.7468 28.4138C88.0723 27.0807 91.8427 27.0807 94.1682 28.4138L177.888 76.407C180.213 77.7401 180.213 79.9016 177.888 81.2347L114.351 117.658C112.026 118.991 108.256 118.991 105.93 117.658L22.2107 69.6644C19.8852 68.3313 19.8852 66.1699 22.2107 64.8367L85.7468 28.4138Z" fill="#FBFBFB"/>
<path fill-rule="evenodd" clip-rule="evenodd" d="M176.835 77.0105L93.1155 29.0173C91.3714 28.0175 88.5436 28.0175 86.7995 29.0173L23.2634 65.4402C21.5193 66.44 21.5193 68.0611 23.2634 69.061L106.983 117.054C108.727 118.054 111.555 118.054 113.299 117.054L176.835 80.6312C178.579 79.6314 178.579 78.0103 176.835 77.0105ZM94.1682 28.4138C91.8427 27.0807 88.0723 27.0807 85.7468 28.4138L22.2107 64.8367C19.8852 66.1699 19.8852 68.3313 22.2107 69.6644L105.93 117.658C108.256 118.991 112.026 118.991 114.351 117.658L177.888 81.2347C180.213 79.9016 180.213 77.7401 177.888 76.407L94.1682 28.4138Z" fill="#86848D"/>
<path d="M87.6389 32.1299C88.8017 31.4633 90.6869 31.4633 91.8496 32.1299L171.405 77.7361C172.568 78.4027 172.568 79.4834 171.405 80.1499L112.459 113.941C111.297 114.608 109.411 114.608 108.249 113.941L28.6932 68.3352C27.5304 67.6686 27.5304 66.5879 28.6932 65.9213L87.6389 32.1299Z" fill="#2B1E37" fill-opacity="0.08"/>
<path fill-rule="evenodd" clip-rule="evenodd" d="M170.879 78.0378L91.3233 32.4316C90.4512 31.9317 89.0373 31.9317 88.1652 32.4316L29.2195 66.223C28.3474 66.723 28.3474 67.5335 29.2195 68.0334L108.775 113.64C109.647 114.14 111.061 114.14 111.933 113.64L170.879 79.8482C171.751 79.3483 171.751 78.5378 170.879 78.0378ZM91.8496 32.1299C90.6869 31.4633 88.8017 31.4633 87.6389 32.1299L28.6932 65.9213C27.5304 66.5879 27.5304 67.6686 28.6932 68.3352L108.249 113.941C109.411 114.608 111.297 114.608 112.459 113.941L171.405 80.1499C172.568 79.4834 172.568 78.4027 171.405 77.7361L91.8496 32.1299Z" fill="#86848D"/>
<mask id="mask0_647_4500" style="mask-type:alpha" maskUnits="userSpaceOnUse" x="20" y="27" width="160" height="92">
<path d="M85.7468 28.4138C88.0723 27.0807 91.8427 27.0807 94.1682 28.4138L177.888 76.407C180.213 77.7401 180.213 79.9016 177.888 81.2347L114.351 117.658C112.026 118.991 108.256 118.991 105.93 117.658L22.2107 69.6644C19.8852 68.3313 19.8852 66.1699 22.2107 64.8367L85.7468 28.4138Z" fill="url(#paint0_linear_647_4500)"/>
</mask>
<g mask="url(#mask0_647_4500)">
<path opacity="0.2" d="M74.9255 17.9855C73.843 17.3609 73.843 16.3483 74.9255 15.7238L111.185 -5.19685C112.267 -5.8214 114.022 -5.8214 115.105 -5.19685L162.634 22.2261C163.717 22.8507 163.717 23.8633 162.634 24.4878L126.375 45.4084C125.292 46.033 123.537 46.033 122.455 45.4084L74.9255 17.9855Z" fill="#86848D"/>
<path opacity="0.2" fill-rule="evenodd" clip-rule="evenodd" d="M74.3377 15.3846L110.597 -5.53598C112.004 -6.34783 114.286 -6.34783 115.693 -5.53598L163.222 21.887C164.629 22.6988 164.629 24.0151 163.222 24.827L126.962 45.7476C125.555 46.5594 123.274 46.5594 121.867 45.7476L74.3377 18.3246C72.9306 17.5127 72.9306 16.1965 74.3377 15.3846ZM74.9255 15.7238C73.843 16.3483 73.843 17.3609 74.9255 17.9855L122.455 45.4084C123.537 46.033 125.292 46.033 126.375 45.4084L162.634 24.4878C163.717 23.8633 163.717 22.8507 162.634 22.2261L115.105 -5.19685C114.022 -5.82139 112.267 -5.82139 111.185 -5.19685L74.9255 15.7238Z" fill="#86848D"/>
</g>
<path d="M65.7339 67.4751L82.2291 58.4239C82.8015 58.1098 83.4485 57.9543 84.1022 57.9738L107.51 58.6711C108.117 58.6892 108.711 58.8578 109.236 59.1615L132.717 72.7428C133.838 73.3914 134.528 74.5829 134.528 75.8715V77.2618C134.528 77.9144 134.174 78.5164 133.602 78.8377L105.43 94.6583C104.309 95.2875 102.938 95.2836 101.821 94.6479L64.7677 73.5574C64.2008 73.2347 63.8511 72.6355 63.8511 71.9868V70.6442C63.8511 69.3263 64.5723 68.1125 65.7339 67.4751Z" fill="#86848D"/>
<path d="M65.1827 59.2821L82.9624 49.7196C83.0549 49.6698 83.1589 49.6448 83.264 49.6468L108.278 50.1436C108.381 50.1456 108.483 50.174 108.572 50.2259L133.72 64.8122C133.906 64.9204 134.021 65.1187 134.021 65.3332V74.4473C134.021 74.6633 133.905 74.8628 133.716 74.9705L103.929 91.9769C103.74 92.0851 103.506 92.0839 103.318 91.9739L65.1641 69.6894C64.9784 69.5809 64.8644 69.3831 64.8644 69.1692V59.8127C64.8644 59.5912 64.9866 59.3875 65.1827 59.2821Z" fill="#FBFBFB"/>
<path d="M113.049 33.1572H117.096H121.143L123.925 34.7896L123.166 63.4182L117.855 68.4408L113.049 62.5393V41.8212V33.1572Z" fill="#FBFBFB"/>
<path fill-rule="evenodd" clip-rule="evenodd" d="M121.16 33.6258L115.203 33.6258C114.38 33.6258 113.714 34.008 113.714 34.4795L113.714 38.3212L122.649 38.3212V34.4795C122.649 34.008 121.982 33.6258 121.16 33.6258ZM113.714 40.0287V39.1749H122.649V40.0287H113.714ZM113.714 61.1515V62.4743C113.714 62.7394 113.821 63.0008 114.028 63.2379L116.868 66.4937H119.495L122.335 63.2379C122.541 63.0008 122.649 62.7394 122.649 62.4743V61.1514C122.646 60.9457 122.521 60.7697 122.353 60.6573C122.19 60.5482 122.022 60.5178 121.904 60.5178C121.787 60.5178 121.619 60.5482 121.456 60.6573C121.286 60.7709 121.16 60.9496 121.16 61.1581H121.136C121.054 61.5322 120.757 61.8824 120.287 62.1519C119.729 62.4721 118.971 62.652 118.181 62.652C117.391 62.652 116.634 62.4721 116.075 62.1519C115.605 61.8824 115.308 61.5321 115.226 61.158H115.203C115.203 60.9494 115.077 60.7708 114.907 60.6571C114.744 60.548 114.576 60.5177 114.458 60.5177C114.341 60.5177 114.172 60.548 114.009 60.6571C113.841 60.7696 113.716 60.9458 113.714 61.1515ZM119.234 61.5482C119.514 61.3881 119.671 61.171 119.671 60.9445L119.671 40.8824H116.692L116.692 60.9445C116.692 61.171 116.849 61.3881 117.128 61.5482C117.408 61.7083 117.786 61.7983 118.181 61.7983C118.576 61.7983 118.955 61.7083 119.234 61.5482ZM115.203 59.7494V40.8824H113.714V59.7494C113.951 59.6933 114.202 59.664 114.458 59.664C114.714 59.664 114.966 59.6933 115.203 59.7494ZM121.904 59.6641C121.648 59.6641 121.397 59.6935 121.16 59.7496L121.16 40.8824H122.649L122.649 59.7495C122.412 59.6935 122.16 59.6641 121.904 59.6641ZM124.138 61.1487L124.138 34.4795C124.138 33.5365 122.805 32.7721 121.16 32.7721H115.203C113.558 32.7721 112.224 33.5365 112.224 34.4795L112.224 61.149L112.224 61.158L112.224 62.4743C112.224 62.8719 112.386 63.2641 112.696 63.6197L117.515 69.1451C117.79 69.4597 118.573 69.4597 118.847 69.1451L119.671 68.2011L123.667 63.6197C123.977 63.2641 124.138 62.8719 124.138 62.4743V61.1581V61.1487ZM133.012 66.1302C133.594 65.7968 133.594 65.2563 133.012 64.9229L125.627 60.6894V59.4821L134.065 64.3192C135.228 64.986 135.228 66.0671 134.065 66.7339L106.16 82.731C104.997 83.3978 103.111 83.3978 101.948 82.731L65.0914 61.6027C64.946 61.5194 64.8188 61.4295 64.7097 61.3349C63.9464 60.6721 64.0737 59.7715 65.0914 59.188L81.5942 49.7276C81.8036 49.6076 82.0411 49.5072 82.2977 49.4287C82.7255 49.2978 83.2065 49.2275 83.7002 49.2275L106.506 49.2275C106.604 49.2275 106.703 49.2304 106.8 49.2359C107.482 49.2747 108.123 49.4475 108.612 49.7276L110.735 50.9449V52.1523L108.003 50.5858L98.6756 55.9327C99.5749 56.1692 100.417 56.4997 101.158 56.9243C104.502 58.8413 104.502 61.9494 101.158 63.8665C97.8139 65.7835 92.3921 65.7835 89.048 63.8665C85.7039 61.9494 85.7039 58.8413 89.048 56.9243C89.8888 56.4423 90.8609 56.0815 91.8983 55.8419L82.4664 50.4349L66.1444 59.7917C65.6356 60.0834 65.572 60.5337 65.9536 60.8651C66.0081 60.9125 66.0717 60.9574 66.1444 60.999L103.001 82.1274C103.582 82.4608 104.525 82.4608 105.107 82.1274L133.012 66.1302ZM106.524 50.0813C106.602 50.0819 106.68 50.0859 106.756 50.0934L96.9457 55.7171C96.0734 56.2172 94.659 56.2172 93.7866 55.7171L83.9555 50.0813L106.506 50.0813L106.524 50.0813ZM92.9968 69.7523L91.2198 68.7336L92.2729 68.13L94.0499 69.1486C94.6315 69.482 95.5744 69.482 96.156 69.1486L97.933 68.13L98.986 68.7336L97.209 69.7523C96.0458 70.4191 94.16 70.4191 92.9968 69.7523ZM87.6658 66.6962L84.1119 64.6589L85.1649 64.0552L88.7189 66.0926L87.6658 66.6962ZM80.5579 62.6215L78.7809 61.6028C77.6177 60.936 77.6177 59.8549 78.7809 59.1881L80.5579 58.1695L81.6109 58.7731L79.8339 59.7918C79.2523 60.1252 79.2523 60.6657 79.8339 60.9991L81.6109 62.0178L80.5579 62.6215ZM85.1649 56.7357L84.1119 56.1321L87.6659 54.0947L88.7189 54.6984L85.1649 56.7357ZM101.487 54.6984L102.54 54.0947L106.094 56.1321L105.041 56.7357L101.487 54.6984ZM108.595 58.7731L109.648 58.1695L110.735 58.7927V60.1311C110.665 60.007 110.544 59.8904 110.372 59.7918L108.595 58.7731ZM110.735 60.6599C110.665 60.7839 110.544 60.9006 110.372 60.9991L108.595 62.0178L109.648 62.6215L110.735 61.9982V60.6599ZM112.225 64.9887C112.01 64.9761 111.787 65.017 111.622 65.1115L109.648 66.2434C109.357 66.4101 109.357 66.6804 109.648 66.8471C109.939 67.0138 110.41 67.0138 110.701 66.8471L112.676 65.7152C112.719 65.69 112.757 65.6625 112.787 65.6333L112.225 64.9887ZM114.501 67.5983C114.21 67.474 113.796 67.4877 113.531 67.6394L112.566 68.1927C112.275 68.3594 112.275 68.6297 112.566 68.7964C112.857 68.9631 113.328 68.9631 113.619 68.7964L114.584 68.243C114.729 68.1602 114.801 68.0519 114.802 67.9434L114.501 67.5983ZM105.041 64.0552L106.094 64.6589L102.54 66.6963L101.487 66.0926L105.041 64.0552ZM98.7886 73.0724C99.0794 73.2391 99.5508 73.2391 99.8416 73.0724L100.829 72.5064C101.12 72.3397 101.12 72.0695 100.829 71.9028C100.538 71.7361 100.067 71.7361 99.7758 71.9028L98.7886 72.4687C98.4978 72.6354 98.4978 72.9057 98.7886 73.0724ZM101.75 71.3746C102.041 71.5413 102.513 71.5413 102.803 71.3746L104.778 70.2427C105.069 70.076 105.069 69.8057 104.778 69.639C104.487 69.4723 104.015 69.4723 103.725 69.639L101.75 70.7709C101.459 70.9376 101.459 71.2079 101.75 71.3746ZM105.699 68.5071C105.408 68.6738 105.408 68.9441 105.699 69.1108C105.99 69.2775 106.461 69.2775 106.752 69.1108L108.727 67.9789C109.017 67.8122 109.017 67.542 108.727 67.3753C108.436 67.2086 107.964 67.2086 107.674 67.3753L105.699 68.5071ZM101.948 74.8834C102.238 75.0501 102.71 75.0501 103.001 74.8834L103.966 74.33C104.257 74.1633 104.257 73.893 103.966 73.7263C103.675 73.5597 103.204 73.5596 102.913 73.7263L101.948 74.2797C101.657 74.4464 101.657 74.7167 101.948 74.8834ZM104.844 73.2233C105.134 73.39 105.606 73.39 105.897 73.2233L107.827 72.1166C108.118 71.9499 108.118 71.6796 107.827 71.5129C107.536 71.3462 107.065 71.3462 106.774 71.5129L104.844 72.6196C104.553 72.7863 104.553 73.0566 104.844 73.2233ZM108.705 70.4062C108.414 70.5729 108.414 70.8431 108.705 71.0098C108.995 71.1765 109.467 71.1765 109.758 71.0098L111.688 69.9031C111.979 69.7364 111.979 69.4662 111.688 69.2995C111.397 69.1328 110.926 69.1328 110.635 69.2995L108.705 70.4062ZM106.291 75.4117C106.582 75.245 107.054 75.245 107.344 75.4117C107.635 75.5784 107.635 75.8487 107.344 76.0154L106.16 76.6945C105.869 76.8612 105.398 76.8612 105.107 76.6945C104.816 76.5278 104.816 76.2575 105.107 76.0908L106.291 75.4117ZM115.769 69.9787C116.06 69.812 116.531 69.812 116.822 69.9787C117.113 70.1454 117.113 70.4157 116.822 70.5824L114.452 71.9406C114.162 72.1073 113.69 72.1073 113.399 71.9406C113.109 71.7739 113.109 71.5036 113.399 71.3369L115.769 69.9787ZM108.661 74.6571C108.37 74.4904 108.37 74.2201 108.661 74.0534L111.03 72.6952C111.321 72.5285 111.792 72.5285 112.083 72.6952C112.374 72.8619 112.374 73.1322 112.083 73.2989L109.714 74.6571C109.423 74.8238 108.952 74.8238 108.661 74.6571ZM65.1823 63.4656L64.6581 63.7661C63.4949 64.4329 63.4949 65.5139 64.6581 66.1807L101.514 87.3091C102.678 87.9759 104.563 87.9759 105.727 87.3091L133.632 71.3119C134.795 70.6451 134.795 69.564 133.632 68.8972L133.541 68.8452L132.488 69.4489L132.579 69.5009C133.161 69.8343 133.161 70.3748 132.579 70.7082L104.673 86.7054C104.092 87.0388 103.149 87.0388 102.567 86.7054L65.7111 65.5771C65.1295 65.2437 65.1295 64.7031 65.7111 64.3697L66.2353 64.0692L65.1823 63.4656ZM65.1823 67.6912L64.6581 67.9917C63.4949 68.6585 63.4949 69.7396 64.6581 70.4064L101.514 91.5347C102.678 92.2015 104.563 92.2015 105.727 91.5347L133.632 75.5376C134.795 74.8708 134.795 73.7897 133.632 73.1229L133.541 73.0709L132.488 73.6745L132.579 73.7266C133.161 74.06 133.161 74.6005 132.579 74.9339L104.673 90.9311C104.092 91.2645 103.149 91.2645 102.567 90.9311L65.7111 69.8027C65.1295 69.4693 65.1295 68.9288 65.7111 68.5954L66.2353 68.2949L65.1823 67.6912Z" fill="#86848D"/>
<path d="M30 37.3972C30 39.2735 31.524 40.7945 33.4039 40.7945C35.2838 40.7945 36.8077 39.2735 36.8077 37.3972C36.8077 35.521 35.2838 34 33.4039 34C31.524 34 30 35.521 30 37.3972Z" fill="#4A4A4F"/>
<path d="M12 103C12 104.105 12.8954 105 14 105C15.1046 105 16 104.105 16 103C16 101.895 15.1046 101 14 101C12.8954 101 12 101.895 12 103Z" fill="#4A4A4F"/>
<path fill-rule="evenodd" clip-rule="evenodd" d="M170.751 116.346V112.446L172.558 111.402C173.002 111.146 173.361 110.523 173.361 110.011V93.3185C173.361 92.8063 173.002 92.5987 172.558 92.8548L150.07 105.838C149.627 106.094 149.267 106.717 149.267 107.229V110.011L148.464 110.475V107.693C148.464 106.668 149.183 105.423 150.07 104.911L172.558 91.9274C173.445 91.4153 174.164 91.8305 174.164 92.8548V109.548C174.164 110.572 173.445 111.817 172.558 112.33L171.554 112.909V117.778L166.936 116.297V115.122L170.751 116.346ZM146.456 112.562L133.606 119.981C132.719 120.493 132 121.738 132 122.763V139.455C132 140.48 132.719 140.895 133.606 140.383L134.61 139.803V144.672L139.63 137.266V136.151C139.521 136.272 139.417 136.405 139.321 136.547L135.413 142.312V138.412L133.606 139.455C133.163 139.711 132.803 139.504 132.803 138.992V122.299C132.803 121.787 133.163 121.164 133.606 120.908L146.456 113.489L148.464 112.33L149.267 111.866L150.472 111.17L156.094 107.925C156.537 107.669 156.897 107.876 156.897 108.388V112.562L157.7 112.098V107.925C157.7 106.9 156.981 106.485 156.094 106.997L150.472 110.243L149.267 110.939L148.464 111.402L146.456 112.562ZM148.464 113.257L149.267 112.793V115.112V117.894V118.821V122.067V123.922C149.267 124.434 149.627 124.642 150.07 124.386L156.094 120.908V121.835L150.07 125.313C149.183 125.825 148.464 125.41 148.464 124.386V122.531V119.285V118.358V115.575V113.257ZM147.661 118.821L142.039 122.067C141.152 122.579 140.433 123.825 140.433 124.849V132.732V135.514V136.441V139.687V141.542C140.433 142.566 141.152 142.982 142.039 142.469L143.043 141.89V146.758L148.247 139.081C148.388 138.873 148.561 138.704 148.74 138.601L164.527 129.486C165.414 128.974 166.133 127.728 166.133 126.704V119.285V116.095V115.139V112.33V110.011C166.133 108.987 165.414 108.572 164.527 109.084L160.11 111.634L157.7 113.025L156.897 113.489L156.094 113.953L150.07 117.43V118.358L156.094 114.88L156.897 114.416L157.7 113.953L160.11 112.562L164.527 110.011C164.97 109.755 165.33 109.963 165.33 110.475V112.793V115.575V116.503V119.749V127.168C165.33 127.68 164.97 128.303 164.527 128.559L148.74 137.673C148.383 137.88 148.036 138.217 147.754 138.633L143.846 144.399V140.499L142.039 141.542C141.596 141.798 141.236 141.59 141.236 141.078V139.224V135.978V135.05V132.268V124.386C141.236 123.873 141.596 123.251 142.039 122.994L147.661 119.749V118.821ZM157.7 114.88V117.198V119.981V120.908V124.154V124.617C157.7 125.642 156.981 126.887 156.094 127.4L142.039 135.514V134.587L156.094 126.472C156.537 126.216 156.897 125.593 156.897 125.081V124.617V121.372V120.444V117.662V115.344L157.7 114.88ZM164.527 116.967V116.039L158.503 119.517V120.444L164.527 116.967Z" fill="#86848D"/>
<path fill-rule="evenodd" clip-rule="evenodd" d="M75.751 136.748V132.848L77.558 133.891C78.0016 134.147 78.3612 133.94 78.3612 133.427V116.735C78.3612 116.222 78.0016 115.6 77.558 115.344L55.0704 102.36C54.6269 102.104 54.2673 102.312 54.2673 102.824V105.606L53.4642 105.142V102.36C53.4642 101.336 54.1833 100.921 55.0704 101.433L77.558 114.416C78.4452 114.928 79.1643 116.174 79.1643 117.198V133.891C79.1643 134.915 78.4452 135.331 77.558 134.818L76.5541 134.239V139.108L71.9361 132.294V131.119L75.751 136.748ZM51.4563 104.911L38.6063 97.4916C37.7191 96.9794 37 97.3946 37 98.419V115.112C37 116.136 37.7191 117.382 38.6063 117.894L39.6102 118.473V123.342L44.6297 121.732V120.617C44.5206 120.613 44.4169 120.626 44.3207 120.656L40.4133 121.91V118.01L38.6063 116.966C38.1627 116.71 37.8031 116.088 37.8031 115.575V98.8827C37.8031 98.3705 38.1627 98.1629 38.6063 98.419L51.4563 105.838L53.4642 106.997L54.2673 107.461L55.472 108.156L61.0939 111.402C61.5374 111.658 61.897 112.281 61.897 112.793V116.966L62.7002 117.43V113.257C62.7002 112.233 61.981 110.987 61.0939 110.475L55.472 107.229L54.2673 106.534L53.4642 106.07L51.4563 104.911ZM53.4642 107.925L54.2673 108.388V110.707V113.489V114.416V117.662V119.517C54.2673 120.029 54.6269 120.652 55.0704 120.908L61.0939 124.385V125.313L55.0704 121.835C54.1833 121.323 53.4642 120.077 53.4642 119.053V117.198V113.953V113.025V110.243V107.925ZM52.661 112.561L47.0391 109.316C46.152 108.803 45.4329 109.219 45.4329 110.243V118.126V120.908V121.835V125.081V126.936C45.4329 127.96 46.152 129.206 47.0391 129.718L48.043 130.297V135.166L53.2466 133.497C53.3876 133.452 53.5611 133.483 53.7397 133.586L69.5268 142.701C70.4139 143.213 71.133 142.798 71.133 141.774V134.355V131.165V130.209V127.399V125.081C71.133 124.057 70.4139 122.811 69.5268 122.299L65.1095 119.749L62.7002 118.358L61.897 117.894L61.0939 117.43L55.0704 113.953V114.88L61.0939 118.358L61.897 118.821L62.7002 119.285L65.1095 120.676L69.5268 123.226C69.9703 123.482 70.3299 124.105 70.3299 124.617V126.936V129.718V130.645V133.891V141.31C70.3299 141.822 69.9703 142.03 69.5268 141.774L53.7397 132.659C53.3825 132.453 53.0355 132.39 52.7536 132.48L48.8462 133.734V129.834L47.0391 128.791C46.5956 128.534 46.236 127.912 46.236 127.399V125.545V122.299V121.372V118.589V110.707C46.236 110.195 46.5956 109.987 47.0391 110.243L52.661 113.489V112.561ZM62.7002 120.212V122.531V125.313V126.24V129.486V129.95C62.7002 130.974 61.981 131.389 61.0939 130.877L47.0391 122.763V121.835L61.0939 129.95C61.5374 130.206 61.897 129.998 61.897 129.486V129.022V125.777V124.849V122.067V119.749L62.7002 120.212ZM69.5268 130.182V129.254L63.5033 125.777V126.704L69.5268 130.182Z" fill="#86848D"/>
</g>
<defs>
<linearGradient id="paint0_linear_647_4500" x1="34.3042" y1="79.2685" x2="106.597" y2="27.0203" gradientUnits="userSpaceOnUse">
<stop stop-color="#F3F7D6"/>
<stop offset="1" stop-color="#EAFBF6"/>
</linearGradient>
<clipPath id="clip0_647_4500">
<rect width="200" height="150" fill="white"/>
</clipPath>
</defs>
</svg>
