<svg width="200" height="150" viewBox="0 0 200 150" fill="none" xmlns="http://www.w3.org/2000/svg">
<g clip-path="url(#clip0_621_8560)">
<path d="M80.9739 42.6635L7.68552 84.1402C4.97037 85.6768 4.98125 89.5919 7.7049 91.1134L47.4231 113.301" stroke="#050013" stroke-opacity="0.22" stroke-dasharray="2 3"/>
<path d="M127.035 99.4432C126.191 99.9306 124.822 99.9306 123.978 99.4432C123.134 98.9559 123.134 98.1657 123.978 97.6783C124.822 97.191 126.191 97.191 127.035 97.6783C127.879 98.1657 127.879 98.9559 127.035 99.4432Z" fill="#EEEDEF"/>
<path d="M133.149 102.973C132.305 103.46 130.936 103.46 130.092 102.973C129.248 102.486 129.248 101.695 130.092 101.208C130.936 100.721 132.305 100.721 133.149 101.208C133.993 101.695 133.993 102.486 133.149 102.973Z" fill="#EEEDEF"/>
<path d="M139.263 106.503C138.418 106.99 137.05 106.99 136.206 106.503C135.362 106.015 135.362 105.225 136.206 104.738C137.05 104.25 138.418 104.25 139.263 104.738C140.107 105.225 140.107 106.015 139.263 106.503Z" fill="#EEEDEF"/>
<path d="M145.376 110.032C144.532 110.52 143.164 110.52 142.319 110.032C141.475 109.545 141.475 108.755 142.319 108.268C143.164 107.78 144.532 107.78 145.376 108.268C146.22 108.755 146.22 109.545 145.376 110.032Z" fill="#EEEDEF"/>
<path d="M151.49 113.562C150.646 114.05 149.277 114.05 148.433 113.562C147.589 113.075 147.589 112.285 148.433 111.797C149.277 111.31 150.646 111.31 151.49 111.797C152.334 112.285 152.334 113.075 151.49 113.562Z" fill="#EEEDEF"/>
<path d="M157.604 117.092C156.76 117.579 155.391 117.579 154.547 117.092C153.703 116.605 153.703 115.814 154.547 115.327C155.391 114.84 156.76 114.84 157.604 115.327C158.448 115.814 158.448 116.605 157.604 117.092Z" fill="#EEEDEF"/>
<path d="M163.717 120.622C162.873 121.109 161.505 121.109 160.661 120.622C159.816 120.134 159.816 119.344 160.661 118.857C161.505 118.37 162.873 118.37 163.717 118.857C164.562 119.344 164.562 120.134 163.717 120.622Z" fill="#EEEDEF"/>
<path d="M127.035 102.973C126.191 103.46 124.822 103.46 123.978 102.973C123.134 102.486 123.134 101.695 123.978 101.208C124.822 100.721 126.191 100.721 127.035 101.208C127.879 101.695 127.879 102.486 127.035 102.973Z" fill="#EEEDEF"/>
<path d="M133.149 106.503C132.305 106.99 130.936 106.99 130.092 106.503C129.248 106.015 129.248 105.225 130.092 104.738C130.936 104.25 132.305 104.25 133.149 104.738C133.993 105.225 133.993 106.015 133.149 106.503Z" fill="#EEEDEF"/>
<path d="M139.263 110.032C138.418 110.52 137.05 110.52 136.206 110.032C135.362 109.545 135.362 108.755 136.206 108.268C137.05 107.78 138.418 107.78 139.263 108.268C140.107 108.755 140.107 109.545 139.263 110.032Z" fill="#EEEDEF"/>
<path d="M145.376 113.562C144.532 114.05 143.164 114.05 142.319 113.562C141.475 113.075 141.475 112.285 142.319 111.797C143.164 111.31 144.532 111.31 145.376 111.797C146.22 112.285 146.22 113.075 145.376 113.562Z" fill="#EEEDEF"/>
<path d="M151.49 117.092C150.646 117.579 149.277 117.579 148.433 117.092C147.589 116.605 147.589 115.814 148.433 115.327C149.277 114.84 150.646 114.84 151.49 115.327C152.334 115.814 152.334 116.605 151.49 117.092Z" fill="#EEEDEF"/>
<path d="M157.604 120.622C156.76 121.109 155.391 121.109 154.547 120.622C153.703 120.134 153.703 119.344 154.547 118.857C155.391 118.37 156.76 118.37 157.604 118.857C158.448 119.344 158.448 120.134 157.604 120.622Z" fill="#EEEDEF"/>
<path d="M163.717 124.152C162.873 124.639 161.505 124.639 160.661 124.152C159.816 123.664 159.816 122.874 160.661 122.387C161.505 121.899 162.873 121.899 163.717 122.387C164.562 122.874 164.562 123.664 163.717 124.152Z" fill="#EEEDEF"/>
<path d="M120.921 102.973C120.077 103.46 118.709 103.46 117.865 102.973C117.02 102.486 117.02 101.695 117.865 101.208C118.709 100.721 120.077 100.721 120.921 101.208C121.766 101.695 121.766 102.486 120.921 102.973Z" fill="#EEEDEF"/>
<path d="M127.035 106.503C126.191 106.99 124.822 106.99 123.978 106.503C123.134 106.015 123.134 105.225 123.978 104.738C124.822 104.25 126.191 104.25 127.035 104.738C127.879 105.225 127.879 106.015 127.035 106.503Z" fill="#EEEDEF"/>
<path d="M133.149 110.032C132.305 110.52 130.936 110.52 130.092 110.032C129.248 109.545 129.248 108.755 130.092 108.268C130.936 107.78 132.305 107.78 133.149 108.268C133.993 108.755 133.993 109.545 133.149 110.032Z" fill="#EEEDEF"/>
<path d="M139.263 113.562C138.418 114.05 137.05 114.05 136.206 113.562C135.362 113.075 135.362 112.285 136.206 111.797C137.05 111.31 138.418 111.31 139.263 111.797C140.107 112.285 140.107 113.075 139.263 113.562Z" fill="#EEEDEF"/>
<path d="M145.376 117.092C144.532 117.579 143.164 117.579 142.319 117.092C141.475 116.605 141.475 115.814 142.319 115.327C143.164 114.84 144.532 114.84 145.376 115.327C146.22 115.814 146.22 116.605 145.376 117.092Z" fill="#EEEDEF"/>
<path d="M151.49 120.622C150.646 121.109 149.277 121.109 148.433 120.622C147.589 120.134 147.589 119.344 148.433 118.857C149.277 118.37 150.646 118.37 151.49 118.857C152.334 119.344 152.334 120.134 151.49 120.622Z" fill="#EEEDEF"/>
<path d="M157.604 124.152C156.76 124.639 155.391 124.639 154.547 124.152C153.703 123.664 153.703 122.874 154.547 122.387C155.391 121.899 156.76 121.899 157.604 122.387C158.448 122.874 158.448 123.664 157.604 124.152Z" fill="#EEEDEF"/>
<path d="M120.921 106.503C120.077 106.99 118.709 106.99 117.865 106.503C117.02 106.015 117.02 105.225 117.865 104.738C118.709 104.25 120.077 104.25 120.921 104.738C121.766 105.225 121.766 106.015 120.921 106.503Z" fill="#EEEDEF"/>
<path d="M127.035 110.032C126.191 110.52 124.822 110.52 123.978 110.032C123.134 109.545 123.134 108.755 123.978 108.268C124.822 107.78 126.191 107.78 127.035 108.268C127.879 108.755 127.879 109.545 127.035 110.032Z" fill="#EEEDEF"/>
<path d="M133.149 113.562C132.305 114.05 130.936 114.05 130.092 113.562C129.248 113.075 129.248 112.285 130.092 111.797C130.936 111.31 132.305 111.31 133.149 111.797C133.993 112.285 133.993 113.075 133.149 113.562Z" fill="#EEEDEF"/>
<path d="M139.263 117.092C138.418 117.579 137.05 117.579 136.206 117.092C135.362 116.605 135.362 115.814 136.206 115.327C137.05 114.84 138.418 114.84 139.263 115.327C140.107 115.814 140.107 116.605 139.263 117.092Z" fill="#EEEDEF"/>
<path d="M145.376 120.622C144.532 121.109 143.164 121.109 142.319 120.622C141.475 120.134 141.475 119.344 142.319 118.857C143.164 118.37 144.532 118.37 145.376 118.857C146.22 119.344 146.22 120.134 145.376 120.622Z" fill="#EEEDEF"/>
<path d="M151.49 124.152C150.646 124.639 149.277 124.639 148.433 124.152C147.589 123.664 147.589 122.874 148.433 122.387C149.277 121.899 150.646 121.899 151.49 122.387C152.334 122.874 152.334 123.664 151.49 124.152Z" fill="#EEEDEF"/>
<path d="M157.604 127.681C156.76 128.169 155.391 128.169 154.547 127.681C153.703 127.194 153.703 126.404 154.547 125.916C155.391 125.429 156.76 125.429 157.604 125.916C158.448 126.404 158.448 127.194 157.604 127.681Z" fill="#EEEDEF"/>
<path d="M114.808 106.503C113.964 106.99 112.595 106.99 111.751 106.503C110.907 106.015 110.907 105.225 111.751 104.738C112.595 104.25 113.964 104.25 114.808 104.738C115.652 105.225 115.652 106.015 114.808 106.503Z" fill="#EEEDEF"/>
<path d="M120.921 110.032C120.077 110.52 118.709 110.52 117.865 110.032C117.02 109.545 117.02 108.755 117.865 108.268C118.709 107.78 120.077 107.78 120.921 108.268C121.766 108.755 121.766 109.545 120.921 110.032Z" fill="#EEEDEF"/>
<path d="M127.035 113.562C126.191 114.05 124.822 114.05 123.978 113.562C123.134 113.075 123.134 112.285 123.978 111.797C124.822 111.31 126.191 111.31 127.035 111.797C127.879 112.285 127.879 113.075 127.035 113.562Z" fill="#EEEDEF"/>
<path d="M133.149 117.092C132.305 117.579 130.936 117.579 130.092 117.092C129.248 116.605 129.248 115.814 130.092 115.327C130.936 114.84 132.305 114.84 133.149 115.327C133.993 115.814 133.993 116.605 133.149 117.092Z" fill="#EEEDEF"/>
<path d="M139.263 120.622C138.418 121.109 137.05 121.109 136.206 120.622C135.362 120.134 135.362 119.344 136.206 118.857C137.05 118.37 138.418 118.37 139.263 118.857C140.107 119.344 140.107 120.134 139.263 120.622Z" fill="#EEEDEF"/>
<path d="M145.376 124.152C144.532 124.639 143.164 124.639 142.319 124.152C141.475 123.664 141.475 122.874 142.319 122.387C143.164 121.899 144.532 121.899 145.376 122.387C146.22 122.874 146.22 123.664 145.376 124.152Z" fill="#EEEDEF"/>
<path d="M151.49 127.681C150.646 128.169 149.277 128.169 148.433 127.681C147.589 127.194 147.589 126.404 148.433 125.916C149.277 125.429 150.646 125.429 151.49 125.916C152.334 126.404 152.334 127.194 151.49 127.681Z" fill="#EEEDEF"/>
<path d="M114.808 110.032C113.964 110.52 112.595 110.52 111.751 110.032C110.907 109.545 110.907 108.755 111.751 108.268C112.595 107.78 113.964 107.78 114.808 108.268C115.652 108.755 115.652 109.545 114.808 110.032Z" fill="#EEEDEF"/>
<path d="M120.921 113.562C120.077 114.05 118.709 114.05 117.865 113.562C117.02 113.075 117.02 112.285 117.865 111.797C118.709 111.31 120.077 111.31 120.921 111.797C121.766 112.285 121.766 113.075 120.921 113.562Z" fill="#EEEDEF"/>
<path d="M127.035 117.092C126.191 117.579 124.822 117.579 123.978 117.092C123.134 116.605 123.134 115.814 123.978 115.327C124.822 114.84 126.191 114.84 127.035 115.327C127.879 115.814 127.879 116.605 127.035 117.092Z" fill="#EEEDEF"/>
<path d="M133.149 120.622C132.305 121.109 130.936 121.109 130.092 120.622C129.248 120.134 129.248 119.344 130.092 118.857C130.936 118.37 132.305 118.37 133.149 118.857C133.993 119.344 133.993 120.134 133.149 120.622Z" fill="#EEEDEF"/>
<path d="M139.263 124.152C138.418 124.639 137.05 124.639 136.206 124.152C135.362 123.664 135.362 122.874 136.206 122.387C137.05 121.899 138.418 121.899 139.263 122.387C140.107 122.874 140.107 123.664 139.263 124.152Z" fill="#EEEDEF"/>
<path d="M145.376 127.681C144.532 128.169 143.164 128.169 142.319 127.681C141.475 127.194 141.475 126.404 142.319 125.916C143.164 125.429 144.532 125.429 145.376 125.916C146.22 126.404 146.22 127.194 145.376 127.681Z" fill="#EEEDEF"/>
<path d="M151.49 131.211C150.646 131.698 149.277 131.698 148.433 131.211C147.589 130.724 147.589 129.934 148.433 129.446C149.277 128.959 150.646 128.959 151.49 129.446C152.334 129.934 152.334 130.724 151.49 131.211Z" fill="#EEEDEF"/>
<path d="M108.694 110.032C107.85 110.52 106.481 110.52 105.637 110.032C104.793 109.545 104.793 108.755 105.637 108.268C106.481 107.78 107.85 107.78 108.694 108.268C109.538 108.755 109.538 109.545 108.694 110.032Z" fill="#EEEDEF"/>
<path d="M114.808 113.562C113.964 114.05 112.595 114.05 111.751 113.562C110.907 113.075 110.907 112.285 111.751 111.797C112.595 111.31 113.964 111.31 114.808 111.797C115.652 112.285 115.652 113.075 114.808 113.562Z" fill="#EEEDEF"/>
<path d="M120.921 117.092C120.077 117.579 118.709 117.579 117.865 117.092C117.02 116.605 117.02 115.814 117.865 115.327C118.709 114.84 120.077 114.84 120.921 115.327C121.766 115.814 121.766 116.605 120.921 117.092Z" fill="#EEEDEF"/>
<path d="M127.035 120.622C126.191 121.109 124.822 121.109 123.978 120.622C123.134 120.134 123.134 119.344 123.978 118.857C124.822 118.37 126.191 118.37 127.035 118.857C127.879 119.344 127.879 120.134 127.035 120.622Z" fill="#EEEDEF"/>
<path d="M133.149 124.152C132.305 124.639 130.936 124.639 130.092 124.152C129.248 123.664 129.248 122.874 130.092 122.387C130.936 121.899 132.305 121.899 133.149 122.387C133.993 122.874 133.993 123.664 133.149 124.152Z" fill="#EEEDEF"/>
<path d="M139.263 127.681C138.418 128.169 137.05 128.169 136.206 127.681C135.362 127.194 135.362 126.404 136.206 125.916C137.05 125.429 138.418 125.429 139.263 125.916C140.107 126.404 140.107 127.194 139.263 127.681Z" fill="#EEEDEF"/>
<path d="M145.376 131.211C144.532 131.698 143.164 131.698 142.319 131.211C141.475 130.724 141.475 129.934 142.319 129.446C143.164 128.959 144.532 128.959 145.376 129.446C146.22 129.934 146.22 130.724 145.376 131.211Z" fill="#EEEDEF"/>
<path d="M108.694 113.562C107.85 114.05 106.481 114.05 105.637 113.562C104.793 113.075 104.793 112.285 105.637 111.797C106.481 111.31 107.85 111.31 108.694 111.797C109.538 112.285 109.538 113.075 108.694 113.562Z" fill="#EEEDEF"/>
<path d="M114.808 117.092C113.964 117.579 112.595 117.579 111.751 117.092C110.907 116.605 110.907 115.814 111.751 115.327C112.595 114.84 113.964 114.84 114.808 115.327C115.652 115.814 115.652 116.605 114.808 117.092Z" fill="#EEEDEF"/>
<path d="M120.921 120.622C120.077 121.109 118.709 121.109 117.865 120.622C117.02 120.134 117.02 119.344 117.865 118.857C118.709 118.37 120.077 118.37 120.921 118.857C121.766 119.344 121.766 120.134 120.921 120.622Z" fill="#EEEDEF"/>
<path d="M127.035 124.152C126.191 124.639 124.822 124.639 123.978 124.152C123.134 123.664 123.134 122.874 123.978 122.387C124.822 121.899 126.191 121.899 127.035 122.387C127.879 122.874 127.879 123.664 127.035 124.152Z" fill="#EEEDEF"/>
<path d="M133.149 127.681C132.305 128.169 130.936 128.169 130.092 127.681C129.248 127.194 129.248 126.404 130.092 125.916C130.936 125.429 132.305 125.429 133.149 125.916C133.993 126.404 133.993 127.194 133.149 127.681Z" fill="#EEEDEF"/>
<path d="M139.263 131.211C138.418 131.698 137.05 131.698 136.206 131.211C135.362 130.724 135.362 129.934 136.206 129.446C137.05 128.959 138.418 128.959 139.263 129.446C140.107 129.934 140.107 130.724 139.263 131.211Z" fill="#EEEDEF"/>
<path d="M145.376 134.741C144.532 135.228 143.164 135.228 142.319 134.741C141.475 134.253 141.475 133.463 142.319 132.976C143.164 132.489 144.532 132.489 145.376 132.976C146.22 133.463 146.22 134.253 145.376 134.741Z" fill="#EEEDEF"/>
<path d="M102.58 113.562C101.736 114.05 100.368 114.05 99.5234 113.562C98.6793 113.075 98.6793 112.285 99.5234 111.797C100.368 111.31 101.736 111.31 102.58 111.797C103.424 112.285 103.424 113.075 102.58 113.562Z" fill="#EEEDEF"/>
<path d="M108.694 117.092C107.85 117.579 106.481 117.579 105.637 117.092C104.793 116.605 104.793 115.814 105.637 115.327C106.481 114.84 107.85 114.84 108.694 115.327C109.538 115.814 109.538 116.605 108.694 117.092Z" fill="#EEEDEF"/>
<path d="M114.808 120.622C113.964 121.109 112.595 121.109 111.751 120.622C110.907 120.134 110.907 119.344 111.751 118.857C112.595 118.37 113.964 118.37 114.808 118.857C115.652 119.344 115.652 120.134 114.808 120.622Z" fill="#EEEDEF"/>
<path d="M120.921 124.152C120.077 124.639 118.709 124.639 117.865 124.152C117.02 123.664 117.02 122.874 117.865 122.387C118.709 121.899 120.077 121.899 120.921 122.387C121.766 122.874 121.766 123.664 120.921 124.152Z" fill="#EEEDEF"/>
<path d="M127.035 127.681C126.191 128.169 124.822 128.169 123.978 127.681C123.134 127.194 123.134 126.404 123.978 125.916C124.822 125.429 126.191 125.429 127.035 125.916C127.879 126.404 127.879 127.194 127.035 127.681Z" fill="#EEEDEF"/>
<path d="M133.149 131.211C132.305 131.698 130.936 131.698 130.092 131.211C129.248 130.724 129.248 129.934 130.092 129.446C130.936 128.959 132.305 128.959 133.149 129.446C133.993 129.934 133.993 130.724 133.149 131.211Z" fill="#EEEDEF"/>
<path d="M139.263 134.741C138.418 135.228 137.05 135.228 136.206 134.741C135.362 134.253 135.362 133.463 136.206 132.976C137.05 132.489 138.418 132.489 139.263 132.976C140.107 133.463 140.107 134.253 139.263 134.741Z" fill="#EEEDEF"/>
<path d="M102.58 117.092C101.736 117.579 100.368 117.579 99.5234 117.092C98.6793 116.605 98.6793 115.814 99.5234 115.327C100.368 114.84 101.736 114.84 102.58 115.327C103.424 115.814 103.424 116.605 102.58 117.092Z" fill="#EEEDEF"/>
<path d="M108.694 120.622C107.85 121.109 106.481 121.109 105.637 120.622C104.793 120.134 104.793 119.344 105.637 118.857C106.481 118.37 107.85 118.37 108.694 118.857C109.538 119.344 109.538 120.134 108.694 120.622Z" fill="#EEEDEF"/>
<path d="M114.808 124.152C113.964 124.639 112.595 124.639 111.751 124.152C110.907 123.664 110.907 122.874 111.751 122.387C112.595 121.899 113.964 121.899 114.808 122.387C115.652 122.874 115.652 123.664 114.808 124.152Z" fill="#EEEDEF"/>
<path d="M120.921 127.681C120.077 128.169 118.709 128.169 117.865 127.681C117.02 127.194 117.02 126.404 117.865 125.916C118.709 125.429 120.077 125.429 120.921 125.916C121.766 126.404 121.766 127.194 120.921 127.681Z" fill="#EEEDEF"/>
<path d="M127.035 131.211C126.191 131.698 124.822 131.698 123.978 131.211C123.134 130.724 123.134 129.934 123.978 129.446C124.822 128.959 126.191 128.959 127.035 129.446C127.879 129.934 127.879 130.724 127.035 131.211Z" fill="#EEEDEF"/>
<path d="M133.149 134.741C132.305 135.228 130.936 135.228 130.092 134.741C129.248 134.253 129.248 133.463 130.092 132.976C130.936 132.489 132.305 132.489 133.149 132.976C133.993 133.463 133.993 134.253 133.149 134.741Z" fill="#EEEDEF"/>
<path d="M139.263 138.271C138.418 138.758 137.05 138.758 136.206 138.271C135.362 137.783 135.362 136.993 136.206 136.506C137.05 136.018 138.418 136.018 139.263 136.506C140.107 136.993 140.107 137.783 139.263 138.271Z" fill="#EEEDEF"/>
<path d="M96.4666 117.092C95.6224 117.579 94.2538 117.579 93.4097 117.092C92.5656 116.605 92.5656 115.814 93.4097 115.327C94.2538 114.84 95.6224 114.84 96.4666 115.327C97.3107 115.814 97.3107 116.605 96.4666 117.092Z" fill="#EEEDEF"/>
<path d="M102.58 120.622C101.736 121.109 100.368 121.109 99.5234 120.622C98.6793 120.134 98.6793 119.344 99.5234 118.857C100.368 118.37 101.736 118.37 102.58 118.857C103.424 119.344 103.424 120.134 102.58 120.622Z" fill="#EEEDEF"/>
<path d="M108.694 124.152C107.85 124.639 106.481 124.639 105.637 124.152C104.793 123.664 104.793 122.874 105.637 122.387C106.481 121.899 107.85 121.899 108.694 122.387C109.538 122.874 109.538 123.664 108.694 124.152Z" fill="#EEEDEF"/>
<path d="M114.808 127.681C113.964 128.169 112.595 128.169 111.751 127.681C110.907 127.194 110.907 126.404 111.751 125.916C112.595 125.429 113.964 125.429 114.808 125.916C115.652 126.404 115.652 127.194 114.808 127.681Z" fill="#EEEDEF"/>
<path d="M120.921 131.211C120.077 131.698 118.709 131.698 117.865 131.211C117.02 130.724 117.02 129.934 117.865 129.446C118.709 128.959 120.077 128.959 120.921 129.446C121.766 129.934 121.766 130.724 120.921 131.211Z" fill="#EEEDEF"/>
<path d="M127.035 134.741C126.191 135.228 124.822 135.228 123.978 134.741C123.134 134.253 123.134 133.463 123.978 132.976C124.822 132.489 126.191 132.489 127.035 132.976C127.879 133.463 127.879 134.253 127.035 134.741Z" fill="#EEEDEF"/>
<path d="M133.149 138.271C132.305 138.758 130.936 138.758 130.092 138.271C129.248 137.783 129.248 136.993 130.092 136.506C130.936 136.018 132.305 136.018 133.149 136.506C133.993 136.993 133.993 137.783 133.149 138.271Z" fill="#EEEDEF"/>
<path d="M96.4666 120.622C95.6224 121.109 94.2538 121.109 93.4097 120.622C92.5656 120.134 92.5656 119.344 93.4097 118.857C94.2538 118.37 95.6224 118.37 96.4666 118.857C97.3107 119.344 97.3107 120.134 96.4666 120.622Z" fill="#EEEDEF"/>
<path d="M102.58 124.152C101.736 124.639 100.368 124.639 99.5234 124.152C98.6793 123.664 98.6793 122.874 99.5234 122.387C100.368 121.899 101.736 121.899 102.58 122.387C103.424 122.874 103.424 123.664 102.58 124.152Z" fill="#EEEDEF"/>
<path d="M108.694 127.681C107.85 128.169 106.481 128.169 105.637 127.681C104.793 127.194 104.793 126.404 105.637 125.916C106.481 125.429 107.85 125.429 108.694 125.916C109.538 126.404 109.538 127.194 108.694 127.681Z" fill="#EEEDEF"/>
<path d="M114.808 131.211C113.964 131.698 112.595 131.698 111.751 131.211C110.907 130.724 110.907 129.934 111.751 129.446C112.595 128.959 113.964 128.959 114.808 129.446C115.652 129.934 115.652 130.724 114.808 131.211Z" fill="#EEEDEF"/>
<path d="M120.921 134.741C120.077 135.228 118.709 135.228 117.865 134.741C117.02 134.253 117.02 133.463 117.865 132.976C118.709 132.489 120.077 132.489 120.921 132.976C121.766 133.463 121.766 134.253 120.921 134.741Z" fill="#EEEDEF"/>
<path d="M127.035 138.271C126.191 138.758 124.822 138.758 123.978 138.271C123.134 137.783 123.134 136.993 123.978 136.506C124.822 136.018 126.191 136.018 127.035 136.506C127.879 136.993 127.879 137.783 127.035 138.271Z" fill="#EEEDEF"/>
<path d="M133.149 141.8C132.305 142.288 130.936 142.288 130.092 141.8C129.248 141.313 129.248 140.523 130.092 140.035C130.936 139.548 132.305 139.548 133.149 140.035C133.993 140.523 133.993 141.313 133.149 141.8Z" fill="#EEEDEF"/>
<path d="M90.3528 120.622C89.5087 121.109 88.1401 121.109 87.296 120.622C86.4519 120.134 86.4519 119.344 87.296 118.857C88.1401 118.37 89.5087 118.37 90.3528 118.857C91.197 119.344 91.197 120.134 90.3528 120.622Z" fill="#EEEDEF"/>
<path d="M96.4666 124.152C95.6224 124.639 94.2538 124.639 93.4097 124.152C92.5656 123.664 92.5656 122.874 93.4097 122.387C94.2538 121.899 95.6224 121.899 96.4666 122.387C97.3107 122.874 97.3107 123.664 96.4666 124.152Z" fill="#EEEDEF"/>
<path d="M102.58 127.681C101.736 128.169 100.368 128.169 99.5234 127.681C98.6793 127.194 98.6793 126.404 99.5234 125.916C100.368 125.429 101.736 125.429 102.58 125.916C103.424 126.404 103.424 127.194 102.58 127.681Z" fill="#EEEDEF"/>
<path d="M108.694 131.211C107.85 131.698 106.481 131.698 105.637 131.211C104.793 130.724 104.793 129.934 105.637 129.446C106.481 128.959 107.85 128.959 108.694 129.446C109.538 129.934 109.538 130.724 108.694 131.211Z" fill="#EEEDEF"/>
<path d="M114.808 134.741C113.964 135.228 112.595 135.228 111.751 134.741C110.907 134.253 110.907 133.463 111.751 132.976C112.595 132.489 113.964 132.489 114.808 132.976C115.652 133.463 115.652 134.253 114.808 134.741Z" fill="#EEEDEF"/>
<path d="M120.921 138.271C120.077 138.758 118.709 138.758 117.865 138.271C117.02 137.783 117.02 136.993 117.865 136.506C118.709 136.018 120.077 136.018 120.921 136.506C121.766 136.993 121.766 137.783 120.921 138.271Z" fill="#EEEDEF"/>
<path d="M127.035 141.8C126.191 142.288 124.822 142.288 123.978 141.8C123.134 141.313 123.134 140.523 123.978 140.035C124.822 139.548 126.191 139.548 127.035 140.035C127.879 140.523 127.879 141.313 127.035 141.8Z" fill="#EEEDEF"/>
<path d="M90.3528 124.152C89.5087 124.639 88.1401 124.639 87.296 124.152C86.4519 123.664 86.4519 122.874 87.296 122.387C88.1401 121.899 89.5087 121.899 90.3528 122.387C91.197 122.874 91.197 123.664 90.3528 124.152Z" fill="#EEEDEF"/>
<path d="M96.4666 127.681C95.6224 128.169 94.2538 128.169 93.4097 127.681C92.5656 127.194 92.5656 126.404 93.4097 125.916C94.2538 125.429 95.6224 125.429 96.4666 125.916C97.3107 126.404 97.3107 127.194 96.4666 127.681Z" fill="#EEEDEF"/>
<path d="M102.58 131.211C101.736 131.698 100.368 131.698 99.5234 131.211C98.6793 130.724 98.6793 129.934 99.5234 129.446C100.368 128.959 101.736 128.959 102.58 129.446C103.424 129.934 103.424 130.724 102.58 131.211Z" fill="#EEEDEF"/>
<path d="M108.694 134.741C107.85 135.228 106.481 135.228 105.637 134.741C104.793 134.253 104.793 133.463 105.637 132.976C106.481 132.489 107.85 132.489 108.694 132.976C109.538 133.463 109.538 134.253 108.694 134.741Z" fill="#EEEDEF"/>
<path d="M114.808 138.271C113.964 138.758 112.595 138.758 111.751 138.271C110.907 137.783 110.907 136.993 111.751 136.506C112.595 136.018 113.964 136.018 114.808 136.506C115.652 136.993 115.652 137.783 114.808 138.271Z" fill="#EEEDEF"/>
<path d="M120.921 141.8C120.077 142.288 118.709 142.288 117.865 141.8C117.02 141.313 117.02 140.523 117.865 140.035C118.709 139.548 120.077 139.548 120.921 140.035C121.766 140.523 121.766 141.313 120.921 141.8Z" fill="#EEEDEF"/>
<path d="M127.035 145.33C126.191 145.817 124.822 145.817 123.978 145.33C123.134 144.843 123.134 144.053 123.978 143.565C124.822 143.078 126.191 143.078 127.035 143.565C127.879 144.053 127.879 144.843 127.035 145.33Z" fill="#EEEDEF"/>
<path d="M115.635 41.8258C114.243 41.0092 111.986 41.0092 110.594 41.8258L48.6435 77.7365C47.2515 78.5532 47.3994 79.3195 47.3993 80.615L47.3992 113.355L110.594 76.8673C111.986 76.0507 114.243 76.0507 115.635 76.8673L162.124 103.307L163.495 105.577L163.564 72.2726C163.564 70.8934 163.655 69.9968 162.263 69.1802L115.635 41.8258Z" fill="#23192D" fill-opacity="0.1"/>
<path d="M110.046 76.1725C111.439 75.3682 113.698 75.3682 115.091 76.1725L161.756 103.114C163.149 103.919 163.149 105.223 161.756 106.027L100.587 141.343C99.1941 142.147 96.9355 142.147 95.5424 141.343L48.8775 114.401C47.4844 113.597 47.4844 112.293 48.8775 111.488L110.046 76.1725Z" fill="#DCDBDD"/>
<path fill-rule="evenodd" clip-rule="evenodd" d="M115.431 75.9762L162.096 102.918C163.676 103.831 163.676 105.31 162.096 106.223L100.927 141.539C99.3462 142.451 96.7834 142.451 95.2027 141.539L48.5378 114.597C46.9571 113.684 46.9571 112.205 48.5378 111.292L109.707 75.9762C111.287 75.0635 113.85 75.0635 115.431 75.9762ZM115.091 76.1722C113.698 75.3679 111.439 75.3679 110.046 76.1722L48.8775 111.488C47.4844 112.292 47.4844 113.596 48.8775 114.401L95.5423 141.343C96.9354 142.147 99.1941 142.147 100.587 141.343L161.756 106.027C163.149 105.223 163.149 103.919 161.756 103.114L115.091 76.1722Z" fill="#908E96"/>
<path fill-rule="evenodd" clip-rule="evenodd" d="M116.072 75.9415C114.572 75.0743 112.14 75.0743 110.64 75.9415L44.7817 114.019C43.9462 114.502 43.5761 115.153 43.6713 115.784L43.6545 115.793C43.6545 116.212 43.6425 116.598 43.6315 116.954C43.5809 118.587 43.5499 119.588 44.7812 120.3L95.0236 149.35C96.5235 150.217 98.9553 150.217 100.455 149.35L166.313 111.272C167.532 110.567 167.506 109.712 167.454 107.943C167.443 107.578 167.431 107.173 167.429 106.723C167.507 106.102 167.135 105.465 166.314 104.991L116.072 75.9415ZM85.1196 122.093C85.2646 122.223 85.4354 122.346 85.6319 122.459C87.1318 123.326 89.5636 123.326 91.0635 122.459L125.011 102.832C125.206 102.719 125.376 102.597 125.52 102.468C123.636 101.479 120.72 101.51 118.901 102.562L85.1196 122.093Z" fill="#2B1E37" fill-opacity="0.08"/>
<path fill-rule="evenodd" clip-rule="evenodd" d="M112.833 40.5581C113.925 40.5581 115.039 40.7948 115.907 41.2904L162.807 68.0607C163.744 68.5955 164.279 69.3767 164.185 70.227V104.146C164.279 104.997 163.744 105.778 162.807 106.313L101.33 141.404C100.462 141.899 99.3483 142.136 98.2563 142.136C97.1644 142.136 96.0511 141.899 95.1828 141.404L48.2827 114.633C47.3327 114.091 46.7967 113.295 46.9083 112.433L46.89 77.9611L46.9404 77.9611C47.0858 77.3404 47.5669 76.7898 48.2827 76.3812L109.76 41.2904C110.628 40.7948 111.741 40.5581 112.833 40.5581ZM47.6788 78.7399L47.6967 112.487L47.6926 112.515C47.628 112.956 47.8755 113.501 48.6768 113.958L95.5769 140.729C96.2972 141.14 97.2661 141.356 98.2563 141.356C99.2466 141.356 100.215 141.14 100.936 140.729L162.413 105.638C163.202 105.187 163.454 104.652 163.4 104.216L163.397 104.193V103.93V70.181L163.4 70.1574C163.454 69.7217 163.202 69.1862 162.413 68.7357L115.513 41.9654C114.833 41.5776 113.933 41.3628 113.002 41.3396L112.995 41.6152C112.965 41.6144 112.935 41.6139 112.905 41.6135C112.889 41.6133 112.873 41.6132 112.857 41.6131M47.6788 78.7399L47.6825 78.3534C47.6855 77.9493 47.9584 77.4662 48.6768 77.0562L110.154 41.9654C110.874 41.5542 111.843 41.3375 112.833 41.3375C112.842 41.3375 112.85 41.3375 112.858 41.3375" fill="#908E96"/>
<path fill-rule="evenodd" clip-rule="evenodd" d="M115.77 41.2671L162.435 68.2091C164.204 69.23 164.204 70.8852 162.435 71.9061L101.267 107.222C99.4982 108.243 96.6313 108.243 94.863 107.222L48.1982 80.28C46.4299 79.2591 46.4299 77.6039 48.1982 76.5829L109.367 41.2671C111.135 40.2462 114.002 40.2462 115.77 41.2671ZM115.091 41.6593C113.698 40.855 111.439 40.855 110.046 41.6593L48.8775 76.9751C47.4844 77.7794 47.4844 79.0835 48.8775 79.8878L95.5424 106.83C96.9354 107.634 99.1941 107.634 100.587 106.83L161.756 71.5139C163.149 70.7096 163.149 69.4056 161.756 68.6013L115.091 41.6593Z" fill="#908E96"/>
<path fill-rule="evenodd" clip-rule="evenodd" d="M98.0065 142.136V107.403H98.6618V142.136H98.0065Z" fill="#908E96"/>
<path fill-rule="evenodd" clip-rule="evenodd" d="M116.071 41.8685C114.571 40.995 112.139 40.995 110.639 41.8685L43.6545 78.8457C43.6545 79.2681 43.6425 79.6568 43.6315 80.0154C43.5809 81.6595 43.5499 82.6687 44.7812 83.3858L95.0236 112.646C96.5235 113.519 98.9553 113.519 100.455 112.646L166.313 74.2916C167.532 73.5821 167.506 72.7206 167.454 70.9389C167.442 70.5271 167.428 70.0661 167.428 69.5465L116.071 41.8685ZM91.7424 85.9557C89.8675 87.0476 86.8278 87.0476 84.9529 85.9557L84.4629 85.6222C84.6088 85.5055 84.7722 85.3939 84.953 85.2886L118.901 65.5185C120.775 64.4266 123.815 64.4266 125.69 65.5185C125.871 65.6237 126.034 65.7353 126.18 65.852C126.034 65.9687 125.871 66.0803 125.69 66.1856L91.7424 85.9557Z" fill="#908E96"/>
<path fill-rule="evenodd" clip-rule="evenodd" d="M43.7817 78.4981L110.629 41.9859C112.126 41.1233 114.553 41.1233 116.049 41.9859L167.301 69.3158C167.301 69.8289 167.314 70.2841 167.327 70.6907C167.379 72.4501 167.404 73.3007 166.188 74.0012L100.466 111.873C98.9688 112.736 96.542 112.736 95.0452 111.873L44.9061 82.9812C43.6773 82.2731 43.7083 81.2765 43.7587 79.6531C43.7698 79.2991 43.7817 78.9153 43.7817 78.4981ZM116.429 41.3029C115.535 40.7917 114.416 40.5581 113.339 40.5581C112.261 40.5581 111.14 40.7923 110.246 41.305L42.9993 78.0353L42.9993 78.4981C42.9993 78.9015 42.9878 79.2738 42.9767 79.6288C42.976 79.6542 42.9752 79.6795 42.9744 79.7048C42.9509 80.4529 42.9273 81.2053 43.0951 81.8552C43.2894 82.6079 43.7268 83.2033 44.515 83.6574L94.654 112.549C95.5493 113.065 96.6735 113.301 97.7554 113.301C98.8372 113.301 99.9615 113.065 100.857 112.549L166.58 74.6775C167.338 74.2405 167.788 73.6955 167.989 72.9444C168.158 72.3121 168.135 71.5586 168.111 70.7574L168.109 70.6675C168.096 70.2603 168.083 69.8159 168.083 69.3158V68.8477L116.429 41.3029ZM88.3829 85.5465C89.5081 85.5465 90.5909 85.2969 91.3795 84.8425L124.592 65.7044C123.907 65.448 123.095 65.3107 122.261 65.3107C121.136 65.3107 120.053 65.5603 119.264 66.0147L86.0519 85.1528C86.7371 85.4092 87.5483 85.5465 88.3829 85.5465ZM84.5062 85.1894L84.9952 85.5187C85.0678 85.5606 85.1421 85.6008 85.2181 85.6394C87.0999 86.5953 89.9723 86.5551 91.7707 85.5187L125.648 65.9972C125.829 65.8932 125.992 65.783 126.137 65.6678C125.992 65.5526 125.829 65.4424 125.648 65.3384C125.576 65.2966 125.502 65.2564 125.426 65.2178C123.544 64.2619 120.671 64.3021 118.873 65.3384L84.9952 84.86C84.8148 84.964 84.6518 85.0742 84.5062 85.1894Z" fill="#908E96"/>
<path fill-rule="evenodd" clip-rule="evenodd" d="M116.073 39.2353C114.572 38.3776 112.139 38.3776 110.638 39.2353L44.7389 76.892C43.2381 77.7496 43.2381 79.1401 44.7389 79.9977L95.0126 108.726C96.5135 109.583 98.9468 109.583 100.448 108.726L166.347 71.0688C167.848 70.2112 167.848 68.8207 166.347 67.9631L116.073 39.2353ZM91.7289 85.6268C89.8529 86.6989 86.8112 86.6989 84.9352 85.6268L84.4449 85.2993C84.5909 85.1848 84.7544 85.0752 84.9353 84.9719L118.904 65.5612C120.78 64.4891 123.822 64.4891 125.698 65.5612C125.879 65.6645 126.042 65.7741 126.188 65.8886C126.042 66.0032 125.879 66.1128 125.698 66.2161L91.7289 85.6268Z" fill="#FBFBFB"/>
<path fill-rule="evenodd" clip-rule="evenodd" d="M113.34 37.2814C114.422 37.2814 115.547 37.517 116.443 38.0329L166.613 66.9248C167.505 67.4382 168.128 68.2202 168.128 69.1628C168.128 70.1053 167.505 70.8874 166.613 71.4008L100.849 109.273C99.9536 109.789 98.8287 110.024 97.7461 110.024C96.6636 110.024 95.5387 109.789 94.6428 109.273L44.4726 80.3807C43.5811 79.8673 42.9579 79.0853 42.9579 78.1427C42.9579 77.2002 43.5811 76.4181 44.4726 75.9047L76.731 57.3278L110.236 38.0329C110.816 37.6991 111.491 37.4827 112.189 37.3715C112.57 37.3107 112.957 37.2814 113.34 37.2814ZM88.3674 85.3934C89.4933 85.3934 90.5768 85.1439 91.3659 84.6895L124.599 65.5513C123.913 65.295 123.101 65.1577 122.266 65.1577C121.14 65.1577 120.057 65.4072 119.268 65.8617L86.0349 84.9998C86.7206 85.2561 87.5323 85.3934 88.3674 85.3934ZM84.4883 85.0363L84.9776 85.3657C85.0502 85.4075 85.1246 85.4478 85.2006 85.4863C87.0836 86.4422 89.9578 86.402 91.7573 85.3657L125.656 65.8441C125.837 65.7402 126 65.63 126.145 65.5147C126 65.3995 125.837 65.2894 125.656 65.1854C125.584 65.1436 125.509 65.1034 125.433 65.0648C123.55 64.1089 120.676 64.1491 118.876 65.1854L84.9776 84.707C84.7971 84.8109 84.634 84.9211 84.4883 85.0363ZM110.628 38.7091C111.08 38.4485 111.618 38.2666 112.189 38.1635C113.508 37.9254 115.006 38.1072 116.051 38.7091L166.222 67.6011C167.719 68.4636 167.719 69.862 166.222 70.7245L100.458 108.596C98.9603 109.459 96.532 109.459 95.0342 108.596L44.8641 79.7044C43.3663 78.8419 43.3663 77.4435 44.8641 76.581L76.731 58.2295L93.6793 48.4693L110.628 38.7091Z" fill="#908E96"/>
<path fill-rule="evenodd" clip-rule="evenodd" d="M115.497 41.1466C114.113 40.3523 111.849 40.3635 110.441 41.1715L48.6142 76.6517C47.2061 77.4597 47.1867 78.7587 48.5708 79.5529L94.9337 106.159C96.3178 106.953 98.5813 106.942 99.9894 106.134L161.816 70.6539C163.224 69.8458 163.244 68.5469 161.86 67.7526L115.497 41.1466ZM91.4314 85.3232C89.5594 86.3975 86.5244 86.3975 84.6525 85.3232L84.1632 84.9951C84.3089 84.8803 84.472 84.7705 84.6525 84.6669L118.547 65.216C120.419 64.1418 123.454 64.1418 125.326 65.216C125.507 65.3196 125.67 65.4294 125.815 65.5441C125.67 65.6589 125.507 65.7687 125.326 65.8723L91.4314 85.3232Z" fill="#DCDBDD"/>
<path fill-rule="evenodd" clip-rule="evenodd" d="M161.667 68.1418L115.207 41.3185C114.055 40.6529 112.155 40.6564 110.965 41.3436L49.0098 77.1135C47.8196 77.8007 47.8134 78.8973 48.9662 79.5628L95.4256 106.386C96.5784 107.052 98.4777 107.048 99.6679 106.361L161.623 70.5911C162.813 69.9039 162.82 68.8074 161.667 68.1418ZM115.619 41.0806C114.232 40.2799 111.964 40.2911 110.553 41.1058L48.5978 76.8757C47.1868 77.6904 47.1673 78.9999 48.5543 79.8007L95.0137 106.624C96.4006 107.425 98.6688 107.413 100.08 106.599L162.035 70.8289C163.446 70.0143 163.466 68.7047 162.079 67.904L115.619 41.0806Z" fill="#908E96"/>
<path fill-rule="evenodd" clip-rule="evenodd" d="M128.216 56.9684L76.3877 86.8914C74.0978 88.2135 74.0978 90.357 76.3877 91.6791C78.6776 93.0012 82.3903 93.0012 84.6802 91.6791L136.508 61.7561C138.798 60.434 138.798 58.2905 136.508 56.9684C134.219 55.6463 130.506 55.6463 128.216 56.9684ZM75.3512 86.293C72.4888 87.9456 72.4888 90.625 75.3512 92.2776C78.2136 93.9302 82.8544 93.9302 85.7168 92.2776L137.545 62.3545C140.407 60.7019 140.407 58.0225 137.545 56.3699C134.683 54.7173 130.042 54.7173 127.179 56.3699L75.3512 86.293Z" fill="#908E96"/>
<path fill-rule="evenodd" clip-rule="evenodd" d="M91.1851 96.7958C93.1592 97.9356 96.36 97.9356 98.3342 96.7958C100.308 95.656 100.308 93.808 98.3342 92.6682C96.36 91.5284 93.1592 91.5284 91.1851 92.6682C89.2109 93.808 89.2109 95.656 91.1851 96.7958ZM96.2916 103.872C93.7534 102.406 93.7534 100.03 96.2916 98.5647L101.398 95.6165C103.936 94.151 108.052 94.151 110.59 95.6165L111.611 96.2061C112.175 96.5318 112.175 97.0598 111.611 97.3854L99.3555 104.461C98.7915 104.787 97.877 104.787 97.3129 104.461L96.2916 103.872Z" fill="#86848D"/>
<path fill-rule="evenodd" clip-rule="evenodd" d="M114.518 83.5463C116.493 84.6861 119.693 84.6861 121.668 83.5463C123.642 82.4065 123.642 80.5585 121.668 79.4187C119.693 78.2789 116.493 78.2789 114.518 79.4187C112.544 80.5585 112.544 82.4065 114.518 83.5463ZM119.625 90.6221C117.087 89.1567 117.087 86.7807 119.625 85.3152L124.732 82.367C127.27 80.9015 131.385 80.9015 133.923 82.367L134.945 82.9566C135.509 83.2823 135.509 83.8103 134.945 84.1359L122.689 91.2118C122.125 91.5374 121.21 91.5374 120.646 91.2118L119.625 90.6221Z" fill="#86848D"/>
<path fill-rule="evenodd" clip-rule="evenodd" d="M137.699 69.988C139.673 71.1278 142.874 71.1278 144.848 69.988C146.822 68.8482 146.822 67.0003 144.848 65.8605C142.874 64.7207 139.673 64.7207 137.699 65.8605C135.725 67.0003 135.725 68.8482 137.699 69.988ZM142.805 77.0639C140.267 75.5984 140.267 73.2225 142.805 71.757L147.912 68.8087C150.45 67.3433 154.565 67.3433 157.104 68.8087L158.125 69.3984C158.689 69.724 158.689 70.252 158.125 70.5777L145.869 77.6535C145.305 77.9792 144.391 77.9792 143.827 77.6535L142.805 77.0639Z" fill="#86848D"/>
<path fill-rule="evenodd" clip-rule="evenodd" d="M97.7863 72.3106C96.8068 71.7451 97.5006 69.4107 98.8858 68.6109L105.608 64.7297C106.993 63.93 107.687 65.4633 106.708 67.1599L103.346 72.9817C102.739 74.0334 101.755 74.6018 101.148 74.2512L97.7863 72.3106Z" fill="#482648" fill-opacity="0.06"/>
<path fill-rule="evenodd" clip-rule="evenodd" d="M97.4199 72.9452C96.1139 72.1912 97.0389 69.0787 98.8858 68.0123L105.608 64.1311C107.455 63.0648 108.38 65.1093 107.074 67.3713L103.713 73.1931C102.903 74.5954 101.591 75.3532 100.781 74.8858L97.4199 72.9452ZM98.8858 69.2092C97.9624 69.7424 97.4999 71.2987 98.1529 71.6757L101.514 73.6163C101.919 73.85 102.575 73.4711 102.98 72.7699L106.341 66.9482C106.994 65.8171 106.532 64.7949 105.608 65.3281L98.8858 69.2092Z" fill="#C8C7CB"/>
<path fill-rule="evenodd" clip-rule="evenodd" d="M99.5817 73.5071C98.6023 72.9416 99.296 70.6072 100.681 69.8075L107.404 65.9263C108.789 65.1265 109.483 66.6599 108.503 68.3564L105.142 74.1782C104.535 75.2299 103.55 75.7983 102.943 75.4477L99.5817 73.5071Z" fill="#E9E8EA"/>
<path fill-rule="evenodd" clip-rule="evenodd" d="M65.1472 61.0365C58.3831 57.1312 63.1738 41.0106 72.7396 35.4878L119.162 8.68558C128.728 3.1627 133.519 13.7516 126.755 25.4674L103.875 67.782C99.6816 75.0448 92.8831 78.9699 88.69 76.549L65.1472 61.0365Z" fill="#EEEDEF"/>
<path fill-rule="evenodd" clip-rule="evenodd" d="M99.2153 74.142C97.9093 73.388 98.8343 70.2754 100.681 69.2091L107.404 65.3279C109.251 64.2616 110.176 66.3061 108.87 68.5681L105.508 74.3899C104.699 75.7922 103.386 76.55 102.577 76.0826L99.2153 74.142ZM100.681 70.406C99.7578 70.9392 99.2953 72.4955 99.9483 72.8725L103.309 74.8131C103.714 75.0468 104.371 74.6678 104.775 73.9667L108.137 68.1449C108.79 67.0139 108.327 65.9917 107.404 66.5248L100.681 70.406Z" fill="#86848D"/>
<path fill-rule="evenodd" clip-rule="evenodd" d="M111.412 42.0247L114.631 40.1661C115.075 39.9095 115.436 39.2854 115.436 38.7722L115.436 16.702L112.339 18.4901C112.415 18.9746 112.455 19.4948 112.455 20.0489C112.455 21.7533 112.077 23.5742 111.412 25.3526L111.412 25.1384C111.412 24.399 111.157 23.8368 110.705 23.5753L107.246 21.5784L107.414 21.2927C107.241 21.355 107.075 21.387 106.92 21.3905L101.99 18.5441C101.537 18.2827 100.923 18.3435 100.283 18.7132L99.6504 19.0784C100.922 17.4593 102.412 16.0899 104.005 15.1702C104.613 14.8191 105.207 14.5508 105.778 14.3617L105.778 10.8941L93.3044 18.0959C92.8599 18.3526 92.4996 18.9766 92.4996 19.4899L92.4996 23.2069L91.6948 23.6716L91.6948 19.9545C91.6948 18.928 92.4154 17.6799 93.3044 17.1667L105.916 9.88511C106.343 9.63865 106.753 9.5981 107.055 9.77237L115.769 14.8036C116.071 14.9779 116.24 15.3527 116.24 15.8457L116.24 38.3076C116.24 39.334 115.52 40.5822 114.631 41.0954L111.412 42.9539L111.412 42.0247ZM115.2 15.7893C115.232 15.8079 115.261 15.831 115.287 15.8584L107.79 20.1868C107.124 20.5717 106.583 20.2597 106.583 19.4899L106.583 10.8144L115.2 15.7893Z" fill="#86848D"/>
<path fill-rule="evenodd" clip-rule="evenodd" d="M105.778 51.7819L108.998 49.9233C109.442 49.6667 109.802 49.0426 109.802 48.5294L109.802 26.4592L106.705 28.2473C106.782 28.7318 106.822 29.252 106.822 29.8061C106.822 31.5105 106.444 33.3314 105.778 35.1098L105.778 34.8956C105.778 34.1562 105.524 33.594 105.071 33.3325L101.613 31.3356L101.781 31.0499C101.607 31.1122 101.442 31.1442 101.287 31.1477L96.3569 28.3013C95.9041 28.0399 95.29 28.1007 94.6497 28.4704L94.0171 28.8356C95.2889 27.2165 96.779 25.8471 98.372 24.9274C98.9802 24.5763 99.5733 24.308 100.145 24.1189L100.145 20.6513L87.6711 27.8531C87.2266 28.1098 86.8663 28.7338 86.8663 29.2471L86.8663 32.9641L86.0615 33.4288L86.0615 29.7117C86.0615 28.6852 86.7821 27.4371 87.6711 26.9239L100.283 19.6423C100.71 19.3959 101.119 19.3553 101.421 19.5296L110.136 24.5608C110.437 24.7351 110.607 25.1099 110.607 25.6029L110.607 48.0648C110.607 49.0912 109.886 50.3394 108.998 50.8526L105.778 52.7111L105.778 51.7819ZM109.567 25.5465C109.599 25.5651 109.628 25.5882 109.654 25.6156L102.157 29.944C101.49 30.3289 100.95 30.0169 100.95 29.2471L100.95 20.5716L109.567 25.5465Z" fill="#86848D"/>
<path fill-rule="evenodd" clip-rule="evenodd" d="M103.364 59.681L82.0375 71.9939C81.5931 72.2505 81.2328 72.0424 81.2328 71.5292L81.2328 39.0047C81.2328 38.4915 81.5931 37.8675 82.0375 37.6108L94.5115 30.409L94.5115 33.8766C93.9398 34.0657 93.3466 34.334 92.7385 34.6851C88.0716 37.3795 84.2884 43.9323 84.2884 49.3211C84.2884 54.7099 88.0716 56.8942 92.7385 54.1998C97.4053 51.5054 101.189 44.9526 101.189 39.5638C101.189 39.0097 101.149 38.4895 101.072 38.005L104.169 36.2169L104.169 58.2871C104.169 58.8003 103.808 59.4244 103.364 59.681ZM91.4583 46.9157L95.0827 40.7612C95.3649 40.9325 95.7337 40.9561 96.1472 40.8076L91.4583 48.7699L88.8804 47.3692L89.683 45.9511L91.4583 46.9157ZM104.02 35.3733C103.994 35.3459 103.965 35.3228 103.933 35.3042L95.3163 30.3293L95.3163 39.0047C95.3163 39.7746 95.8567 40.0866 96.5234 39.7017L104.02 35.3733ZM80.428 39.4694C80.428 38.4429 81.1486 37.1948 82.0375 36.6816L94.6496 29.4C95.0764 29.1535 95.4858 29.113 95.7877 29.2873L104.502 34.3185C104.804 34.4928 104.974 34.8676 104.974 35.3605L104.974 57.8225C104.974 58.8489 104.253 60.0971 103.364 60.6103L82.0375 72.9231C81.1486 73.4364 80.428 73.0203 80.428 71.9939L80.428 39.4694ZM86.0614 59.9133C85.8392 60.0416 85.659 60.3537 85.659 60.6103C85.659 60.8669 85.8392 60.9709 86.0614 60.8426L98.133 53.8731C98.3552 53.7448 98.5354 53.4327 98.5354 53.1761C98.5354 52.9195 98.3552 52.8155 98.133 52.9438L86.0614 59.9133ZM86.0614 62.7012C85.8392 62.8295 85.659 63.1415 85.659 63.3981C85.659 63.6547 85.8392 63.7587 86.0614 63.6304L94.9139 58.5194C95.1361 58.3911 95.3163 58.0791 95.3163 57.8225C95.3163 57.5659 95.1361 57.4619 94.9139 57.5902L86.0614 62.7012ZM85.659 66.1859C85.659 65.9293 85.8392 65.6173 86.0614 65.489L96.9258 59.2164C97.148 59.0881 97.3282 59.1921 97.3282 59.4487C97.3282 59.7053 97.148 60.0174 96.9258 60.1457L86.0614 66.4182C85.8392 66.5465 85.659 66.4425 85.659 66.1859Z" fill="#86848D"/>
<path d="M18.5035 96.0329C18.5035 96.8299 17.7857 97.476 16.9001 97.476C16.0146 97.476 15.2968 96.8299 15.2968 96.0329C15.2968 95.2359 16.0146 94.5898 16.9001 94.5898C17.7857 94.5898 18.5035 95.2359 18.5035 96.0329Z" fill="#4A4A4F"/>
<path d="M79.6379 43.4084L62.0005 53.4485" stroke="#050013" stroke-opacity="0.22" stroke-linecap="round" stroke-dasharray="2 3"/>
<path d="M31.6693 71.4973V131.393C31.6693 132.834 32.4439 134.163 33.6973 134.874L41.787 139.458C43.0278 140.161 44.549 140.15 45.7798 139.43L68.6419 126.047" stroke="#050013" stroke-opacity="0.22" stroke-linecap="round" stroke-dasharray="2 3"/>
<path d="M148.171 84.7289L174.12 100.196C176.811 101.8 176.697 105.735 173.918 107.181L157.776 115.578" stroke="#050013" stroke-opacity="0.22" stroke-linecap="round" stroke-dasharray="1 2"/>
<path d="M177.865 103.608C177.865 104.405 177.147 105.051 176.261 105.051C175.376 105.051 174.658 104.405 174.658 103.608C174.658 102.811 175.376 102.165 176.261 102.165C177.147 102.165 177.865 102.811 177.865 103.608Z" fill="#4A4A4F"/>
<path d="M34.3872 70.5768C34.3872 71.9139 33.1829 72.9978 31.6973 72.9978C30.2117 72.9978 29.0073 71.9139 29.0073 70.5768C29.0073 69.2398 30.2117 68.1559 31.6973 68.1559C33.1829 68.1559 34.3872 69.2398 34.3872 70.5768Z" fill="#4A4A4F"/>
</g>
<defs>
<clipPath id="clip0_621_8560">
<rect width="200" height="150" fill="white"/>
</clipPath>
</defs>
</svg>
