<?xml version="1.0" standalone="no"?>
<!DOCTYPE svg PUBLIC "-//W3C//DTD SVG 20010904//EN"
 "http://www.w3.org/TR/2001/REC-SVG-20010904/DTD/svg10.dtd">
<svg version="1.0" xmlns="http://www.w3.org/2000/svg"
 width="192.000000pt" height="192.000000pt" viewBox="0 0 192.000000 192.000000"
 preserveAspectRatio="xMidYMid meet">

<g transform="translate(0.000000,192.000000) scale(0.100000,-0.100000)"
fill="#000000" stroke="none">
<path d="M845 1914 c-410 -61 -723 -343 -822 -740 -23 -95 -23 -333 0 -428 78
-312 294 -562 587 -678 126 -49 204 -63 355 -62 198 1 319 34 489 133 87 50
241 193 295 274 57 84 111 204 138 304 22 84 26 119 27 243 0 128 -3 157 -27
244 -28 103 -81 219 -138 303 -18 26 -73 89 -124 138 -128 126 -276 209 -446
250 -64 15 -277 27 -334 19z m641 -464 c77 -38 161 -115 193 -177 l21 -41 -54
-30 c-69 -39 -131 -110 -273 -310 -151 -212 -255 -313 -386 -376 -104 -50
-168 -66 -265 -66 -210 0 -406 130 -518 343 -20 38 -34 70 -32 72 1 1 40 -4
86 -13 69 -13 94 -14 153 -4 142 24 213 80 377 297 125 164 170 211 254 265
94 61 164 81 279 77 86 -2 103 -6 165 -37z m-926 -14 c14 -52 31 -69 83 -86
48 -15 43 -31 -16 -48 -43 -12 -47 -17 -65 -65 -11 -28 -24 -53 -29 -54 -5 -2
-17 21 -26 51 -17 52 -20 55 -67 71 -27 9 -52 20 -55 25 -2 4 19 16 47 26 52
19 66 35 88 97 14 39 26 34 40 -17z m973 -816 c62 -69 14 -180 -78 -180 -41 0
-85 28 -101 65 -47 114 96 206 179 115z"/>
<path d="M1175 1409 c-126 -44 -187 -100 -358 -326 -113 -148 -169 -205 -249
-248 -54 -30 -160 -55 -233 -55 l-49 0 43 -44 c127 -129 324 -140 498 -26 93
61 207 189 295 332 128 206 214 268 375 268 l77 0 -28 29 c-15 15 -53 41 -84
56 -78 39 -200 45 -287 14z"/>
</g>
</svg>
