<svg width="32" height="32" viewBox="0 0 32 32" fill="none" xmlns="http://www.w3.org/2000/svg">
<rect width="32" height="32" fill="white" fill-opacity="0.01"/>
<path fill-rule="evenodd" clip-rule="evenodd" d="M5.5 4.75024C4.37351 4.75024 3.5 5.62995 3.5 6.66691V21.9169H12.375C13.6784 21.9169 14.8707 22.4184 15.75 23.2393V9.33358C15.75 6.82386 13.6453 4.75024 11 4.75024H5.5ZM17.25 9.33358V23.2393C18.1293 22.4184 19.3216 21.9169 20.625 21.9169H29.5V6.66691C29.5 5.62995 28.6265 4.75024 27.5 4.75024H22C19.3547 4.75024 17.25 6.82386 17.25 9.33358ZM17.25 26.6669C17.25 26.9025 17.1414 27.1127 16.9714 27.2502H27.5C28.6265 27.2502 29.5 26.3705 29.5 25.3336V23.4169H20.625C18.7391 23.4169 17.25 24.8936 17.25 26.6669ZM16.0286 27.2502C15.8586 27.1127 15.75 26.9025 15.75 26.6669C15.75 24.8936 14.2609 23.4169 12.375 23.4169H3.5V25.3336C3.5 26.3705 4.37351 27.2502 5.5 27.2502H16.0286ZM2 6.66691V22.6669V25.3336C2 27.2421 3.58893 28.7502 5.5 28.7502H27.5C29.4111 28.7502 31 27.2421 31 25.3336V22.6669V6.66691C31 4.75835 29.4111 3.25024 27.5 3.25024H22C19.6355 3.25024 17.5607 4.53441 16.5 6.44001C15.4393 4.53441 13.3645 3.25024 11 3.25024H5.5C3.58893 3.25024 2 4.75835 2 6.66691Z" fill="#1A1523"/>
</svg>
