<svg width="32" height="32" viewBox="0 0 32 32" fill="none" xmlns="http://www.w3.org/2000/svg">
<path fill-rule="evenodd" clip-rule="evenodd" d="M4.875 9.33358C4.875 6.83605 6.99229 4.75024 9.625 4.75024H23.375C26.0077 4.75024 28.125 6.83605 28.125 9.33358V22.6669C28.125 25.1644 26.0077 27.2502 23.375 27.2502H9.625C6.99229 27.2502 4.875 25.1644 4.875 22.6669V9.33358ZM9.625 3.25024C6.20771 3.25024 3.375 5.96444 3.375 9.33358V22.6669C3.375 26.036 6.20771 28.7502 9.625 28.7502H23.375C26.7923 28.7502 29.625 26.036 29.625 22.6669V9.33358C29.625 5.96444 26.7923 3.25024 23.375 3.25024H9.625ZM21.8509 10.4115C22.1393 10.7088 22.132 11.1837 21.8346 11.472L15.7846 17.3387C15.4937 17.6208 15.0313 17.6208 14.7404 17.3387L11.1654 13.872C10.868 13.5836 10.8607 13.1088 11.1491 12.8115C11.4374 12.5141 11.9122 12.5068 12.2096 12.7952L15.2625 15.7555L20.7904 10.3952C21.0878 10.1068 21.5626 10.1141 21.8509 10.4115ZM10.25 21.3336C10.25 20.9194 10.5858 20.5836 11 20.5836H22C22.4142 20.5836 22.75 20.9194 22.75 21.3336C22.75 21.7478 22.4142 22.0836 22 22.0836H11C10.5858 22.0836 10.25 21.7478 10.25 21.3336Z" fill="#1A1523"/>
</svg>
